<?xml version="1.0" encoding="utf-8"?>
<!-- Generator: Adobe Illustrator 16.0.0, SVG Export Plug-In . SVG Version: 6.00 Build 0)  -->
<!DOCTYPE svg PUBLIC "-//W3C//DTD SVG 1.1//EN" "http://www.w3.org/Graphics/SVG/1.1/DTD/svg11.dtd">
<svg version="1.1" id="Layer_1" xmlns="http://www.w3.org/2000/svg" xmlns:xlink="http://www.w3.org/1999/xlink" x="0px" y="0px"
	 width="750px" height="500px" viewBox="0 0 750 500" enable-background="new 0 0 750 500" xml:space="preserve">
<g id="OBJECTS">
	<g>
		<g>
			<rect x="494.914" y="213.313" fill="#261542" width="147.532" height="6.554"/>
			<g>
				<rect x="614.59" y="165.193" fill="#261542" width="20.298" height="47.968"/>
				<rect x="614.59" y="202.923" fill="#E4BCE8" width="20.298" height="2.523"/>
				<rect x="614.59" y="167.364" fill="#E4BCE8" width="20.298" height="2.522"/>
				<rect x="614.59" y="165.193" opacity="0.5" fill="#E4BCE8" enable-background="new    " width="1.94" height="47.968"/>
				<rect x="632.947" y="165.193" opacity="0.5" fill="#7C4284" enable-background="new    " width="1.939" height="47.968"/>
				<circle fill="#E2E2E2" cx="624.739" cy="176.907" r="4.672"/>
				<circle fill="#552F5E" cx="624.739" cy="176.907" r="3.304"/>
			</g>
			<g>
				<rect x="594.293" y="165.193" fill="#261542" width="20.297" height="47.968"/>
				<rect x="594.293" y="202.923" fill="#E4BCE8" width="20.297" height="2.523"/>
				<rect x="594.293" y="167.364" fill="#E4BCE8" width="20.297" height="2.522"/>
				<rect x="594.293" y="165.193" opacity="0.5" fill="#E4BCE8" enable-background="new    " width="1.94" height="47.968"/>
				<rect x="612.65" y="165.193" opacity="0.5" fill="#7C4284" enable-background="new    " width="1.938" height="47.968"/>
				<circle fill="#E2E2E2" cx="604.441" cy="176.907" r="4.673"/>
				<circle fill="#552F5E" cx="604.441" cy="176.907" r="3.304"/>
			</g>
			<g>
				<rect x="573.995" y="165.193" fill="#261542" width="20.298" height="47.968"/>
				<rect x="573.995" y="202.923" fill="#E4BCE8" width="20.298" height="2.523"/>
				<rect x="573.995" y="167.364" fill="#E4BCE8" width="20.298" height="2.522"/>
				<rect x="573.995" y="165.193" opacity="0.5" fill="#E4BCE8" enable-background="new    " width="1.939" height="47.968"/>
				<rect x="592.354" y="165.193" opacity="0.5" fill="#7C4284" enable-background="new    " width="1.939" height="47.968"/>
				<circle fill="#E2E2E2" cx="584.144" cy="176.907" r="4.672"/>
				<circle fill="#552F5E" cx="584.144" cy="176.907" r="3.304"/>
			</g>
			<g>
				<rect x="553.698" y="165.193" fill="#261542" width="20.297" height="47.968"/>
				<rect x="553.698" y="202.923" fill="#E4BCE8" width="20.297" height="2.523"/>
				<rect x="553.698" y="167.364" fill="#E4BCE8" width="20.297" height="2.522"/>
				<rect x="553.698" y="165.193" opacity="0.5" fill="#E4BCE8" enable-background="new    " width="1.939" height="47.968"/>
				<rect x="572.055" y="165.193" opacity="0.5" fill="#7C4284" enable-background="new    " width="1.94" height="47.968"/>
				<circle fill="#E2E2E2" cx="563.847" cy="176.907" r="4.673"/>
				<circle fill="#552F5E" cx="563.847" cy="176.907" r="3.304"/>
			</g>
		</g>
		<g>
			<g>
				<path fill="#261542" d="M138.306,351.311c0,0-37.663-34.424-50.631-69.074C87.674,282.236,123.524,285.262,138.306,351.311z"/>
				<path opacity="0.3" fill="#FFFFFF" enable-background="new    " d="M124.65,328.452c-0.675-1.248-1.403-2.466-2.139-3.677
					c-0.738-1.211-1.446-2.44-2.208-3.637c-1.524-2.392-3.063-4.773-4.668-7.111c-3.217-4.67-6.571-9.244-10.128-13.659
					c-3.542-4.425-7.267-8.705-11.227-12.757c1.749,2.229,3.509,4.438,5.203,6.703c1.722,2.24,3.407,4.508,5.097,6.769
					c3.353,4.544,6.637,9.133,9.813,13.795c3.215,4.638,6.263,9.384,9.246,14.173l2.214,3.607l2.142,3.652
					c1.502,2.397,2.757,4.93,4.209,7.367C129.946,338.488,127.491,333.361,124.65,328.452z"/>
			</g>
			<g>
				<path fill="#261542" d="M138.703,348.794c0,0-15.177-40.321-11.681-71.362C127.022,277.432,152.848,293.425,138.703,348.794z"/>
				<path opacity="0.3" fill="#FFFFFF" enable-background="new    " d="M137.17,326.363c-0.03-1.197-0.113-2.393-0.203-3.586
					c-0.092-1.192-0.155-2.391-0.271-3.582c-0.233-2.383-0.479-4.764-0.793-7.139c-0.635-4.746-1.409-9.473-2.396-14.156
					c-0.973-4.685-2.139-9.332-3.57-13.896c0.464,2.348,0.944,4.684,1.352,7.036c0.439,2.345,0.84,4.696,1.247,7.045
					c0.785,4.702,1.501,9.413,2.107,14.138c0.646,4.719,1.124,9.459,1.537,14.205l0.287,3.563l0.215,3.568
					c0.213,2.379,0.189,4.765,0.349,7.154C137.317,335.943,137.43,331.146,137.17,326.363z"/>
			</g>
			<g>
				<path fill="#261542" d="M133.157,356.417c0,0-31.298-16.442-41.434-27.056l-8.836,29.897c0,0-2.98-28.077,6.763-44.534
					c0,0,29.216,5.936,47.769,37.269L133.157,356.417z"/>
				<path opacity="0.3" fill="#FFFFFF" enable-background="new    " d="M121.784,341.239l-2.092-1.878
					c-2.818-2.469-5.744-4.824-8.781-7.022c-3.025-2.216-6.137-4.313-9.321-6.294c-3.187-1.984-6.434-3.841-9.791-5.57l-0.586-0.302
					l-0.332,0.55c-1.186,1.967-2.229,4.01-3.044,6.137c-0.787,2.137-1.475,4.305-1.957,6.518c-0.486,2.211-0.865,4.439-1.086,6.686
					c-0.223,2.244-0.368,4.494-0.299,6.742c0.358-4.477,1.16-8.896,2.338-13.188c0.583-2.147,1.322-4.244,2.171-6.285
					c0.763-1.84,1.694-3.594,2.729-5.273c3.067,1.644,6.091,3.432,9.073,5.254c3.167,1.951,6.276,3.994,9.34,6.104
					c3.071,2.102,6.054,4.326,8.993,6.613c2.954,2.272,5.758,4.725,8.554,7.212c-1.278-1.361-2.524-2.767-3.89-4.046
					L121.784,341.239z"/>
			</g>
		</g>
		<g>
			<g>
				<path fill="#261542" d="M619.912,376.643c0,0,37.662-34.425,50.631-69.074C670.543,307.568,634.693,310.596,619.912,376.643z"/>
				<path opacity="0.3" fill="#FFFFFF" enable-background="new    " d="M633.568,353.784c0.674-1.248,1.401-2.466,2.139-3.677
					s1.446-2.44,2.208-3.637c1.524-2.391,3.063-4.772,4.668-7.111c3.217-4.67,6.571-9.244,10.128-13.658
					c3.542-4.424,7.268-8.706,11.227-12.758c-1.747,2.229-3.51,4.438-5.202,6.703c-1.723,2.24-3.406,4.508-5.098,6.769
					c-3.353,4.544-6.638,9.133-9.813,13.795c-3.215,4.638-6.263,9.384-9.246,14.173l-2.215,3.607l-2.143,3.652
					c-1.503,2.397-2.757,4.93-4.209,7.367C628.271,363.82,630.729,358.693,633.568,353.784z"/>
			</g>
			<g>
				<path fill="#261542" d="M619.515,374.126c0,0,15.178-40.321,11.683-71.362C631.196,302.764,605.37,318.757,619.515,374.126z"/>
				<path opacity="0.3" fill="#FFFFFF" enable-background="new    " d="M621.048,351.695c0.029-1.197,0.112-2.393,0.202-3.586
					c0.093-1.192,0.155-2.391,0.271-3.582c0.231-2.383,0.479-4.764,0.793-7.139c0.635-4.744,1.408-9.473,2.396-14.156
					c0.974-4.685,2.14-9.332,3.569-13.896c-0.463,2.348-0.943,4.684-1.353,7.036c-0.438,2.345-0.839,4.696-1.246,7.045
					c-0.784,4.702-1.502,9.413-2.107,14.138c-0.646,4.721-1.123,9.459-1.536,14.204l-0.287,3.563l-0.215,3.568
					c-0.213,2.381-0.189,4.765-0.35,7.154C620.9,361.275,620.787,356.479,621.048,351.695z"/>
			</g>
			<g>
				<path fill="#261542" d="M625.061,381.75c0,0,31.299-16.443,41.435-27.057l8.837,29.897c0,0,2.979-28.077-6.763-44.534
					c0,0-29.218,5.936-47.771,37.269L625.061,381.75z"/>
				<path opacity="0.3" fill="#FFFFFF" enable-background="new    " d="M636.434,366.57l2.093-1.877
					c2.817-2.469,5.743-4.823,8.78-7.022c3.025-2.216,6.138-4.313,9.321-6.294c3.188-1.984,6.435-3.841,9.79-5.57l0.586-0.302
					l0.332,0.55c1.186,1.967,2.229,4.01,3.044,6.137c0.787,2.137,1.476,4.305,1.957,6.519c0.487,2.21,0.866,4.44,1.087,6.685
					c0.223,2.244,0.368,4.494,0.299,6.742c-0.357-4.477-1.159-8.896-2.339-13.187c-0.582-2.148-1.321-4.245-2.171-6.286
					c-0.763-1.84-1.694-3.594-2.729-5.273c-3.067,1.645-6.092,3.432-9.073,5.254c-3.166,1.951-6.275,3.994-9.34,6.104
					c-3.071,2.102-6.056,4.326-8.993,6.613c-2.954,2.272-5.759,4.725-8.555,7.211c1.277-1.36,2.523-2.766,3.892-4.045
					L636.434,366.57z"/>
			</g>
		</g>
		<g>
			<circle fill="#261542" cx="495.908" cy="150.396" r="31.034"/>
			<circle fill="#7C4284" cx="495.908" cy="150.396" r="25.795"/>
			<circle fill="#FFFFFF" cx="495.908" cy="150.396" r="24.668"/>
			
				<rect x="502.285" y="137.113" transform="matrix(-0.4626 -0.8866 0.8866 -0.4626 607.1736 660.3056)" fill="#9D68AA" width="2.858" height="18.03"/>
			
				<rect x="500.54" y="148.781" transform="matrix(-0.8878 0.4601 -0.4601 -0.8878 1020.0705 72.3564)" fill="#9D68AA" width="1.355" height="23.424"/>
			<circle fill="#552F5E" cx="495.908" cy="150.396" r="1.969"/>
			<g>
				<g>
					<rect x="494.924" y="126.867" fill="#DD4026" width="1.969" height="4.13"/>
					<rect x="494.924" y="170.169" fill="#DD4026" width="1.969" height="4.13"/>
				</g>
				<g>
					<rect x="515.494" y="149.599" fill="#DD4026" width="4.13" height="1.969"/>
					<rect x="472.192" y="149.599" fill="#DD4026" width="4.13" height="1.969"/>
				</g>
			</g>
			<g>
				<g>
					
						<rect x="510.23" y="133.205" transform="matrix(-0.7072 -0.707 0.707 -0.7072 777.1288 592.3556)" fill="#DD4026" width="1.969" height="4.129"/>
					
						<rect x="479.627" y="163.816" transform="matrix(-0.7071 -0.7071 0.7071 -0.7071 703.1594 623.0199)" fill="#DD4026" width="1.968" height="4.13"/>
				</g>
				<g>
					
						<rect x="510.246" y="163.842" transform="matrix(0.7071 -0.7071 0.7071 0.7071 32.4221 410.0875)" fill="#DD4026" width="1.969" height="4.13"/>
					
						<rect x="479.611" y="133.191" transform="matrix(0.7071 -0.7071 0.7071 0.7071 45.1226 379.4473)" fill="#DD4026" width="1.968" height="4.13"/>
				</g>
			</g>
		</g>
		<g>
			<g>
				<path fill="#9177C9" d="M651.023,406.907H74.208c-0.009,0.051-0.017,0.093-0.025,0.145c-0.119,0.45-0.238,0.9-0.451,1.334
					c-0.298,0.604-0.655,0.748-0.842,0.323c-0.06-0.136-0.085-0.323-0.085-0.527c0-0.434,0.085-0.857,0.17-1.273h-2.006
					c1.088-5.212,2.669-10.695,4.778-16.434c20.991-57.08,94.266-56.944,110.028-96.646c15.771-39.711,34.457-69.696,64.935-68.99
					c30.486,0.697,77.305,72.758,118.164,66.023c40.858-6.725,70.112-57.547,131.774-49.003
					c26.432,3.664,63.106,71.719,96.213,78.699C622.917,326.057,655.139,370.537,651.023,406.907z"/>
				<path fill="none" stroke="#FFFFFF" stroke-width="1.2236" stroke-miterlimit="10" d="M76.997,406.907
					c1.02-4.559,2.423-9.25,4.191-14.063c10.644-28.938,36.021-42.107,60.565-54.844c21.288-11.052,41.394-21.482,49.403-41.641
					c18.346-46.197,36.115-65.684,59.426-65.147l0.263,0.009c11.401,0.467,27.163,13.857,43.86,28.029
					c20.676,17.564,44.115,37.467,66.958,38.402c2.746,0.109,5.466-0.053,8.085-0.478c17.114-2.821,31.796-12.506,47.345-22.75
					c21.127-13.926,42.967-28.328,73.547-27.078c3.035,0.127,6.155,0.408,9.269,0.841c10.72,1.488,25.775,18.134,40.34,34.236
					c17.972,19.859,36.557,40.408,55.498,44.403c20.123,4.241,47.532,37.978,49.648,69.841c0.238,3.579,0.137,6.988-0.306,10.236"/>
				<path opacity="0.5" fill="#5C4D7C" enable-background="new    " d="M570.463,406.907h-419.46
					c0.791-3.987,1.98-8.196,3.604-12.617c15.175-41.274,68.157-41.173,79.549-69.883c11.4-28.71,24.918-50.39,46.954-49.888
					c22.036,0.511,55.898,52.607,85.433,47.744c29.543-4.861,50.695-41.615,95.277-35.435c19.12,2.651,45.637,51.86,69.568,56.91
					C550.398,347.753,573.965,380.482,570.463,406.907z"/>
			</g>
			<g>
				<g>
					<g>
						<path fill="#FFFFFF" d="M74.386,405.648c-0.017,0.425-0.093,0.842-0.178,1.259c-0.009,0.051-0.017,0.093-0.025,0.145
							c-0.119,0.45-0.238,0.9-0.451,1.334c-0.298,0.604-0.655,0.748-0.842,0.323c-0.06-0.136-0.085-0.323-0.085-0.527
							c0-0.434,0.085-0.857,0.17-1.273c0.009-0.052,0.017-0.094,0.025-0.146c0.128-0.46,0.229-0.927,0.468-1.353
							c0.314-0.595,0.697-0.723,0.858-0.289C74.37,405.266,74.395,405.444,74.386,405.648z"/>
					</g>
					<g>
						<path fill="#FFFFFF" d="M74.14,402.931c0.029-0.485,0.159-0.944,0.28-1.405c0.15-0.452,0.292-0.907,0.551-1.323
							c0.351-0.575,0.738-0.675,0.869-0.23c0.042,0.143,0.051,0.326,0.035,0.522c-0.045,0.479-0.172,0.933-0.291,1.388
							c-0.149,0.446-0.291,0.896-0.532,1.314c-0.331,0.578-0.7,0.705-0.858,0.265C74.143,403.318,74.127,403.132,74.14,402.931z"/>
					</g>
					<g>
						<path fill="#FFFFFF" d="M75.785,397.771c0.535-1.855,1.208-3.666,1.938-5.451c0.749-1.776,1.543-3.536,2.479-5.223
							c0.319-0.574,0.733-0.873,0.927-0.672c0.159,0.165,0.121,0.615-0.072,1.085c-0.741,1.769-1.475,3.521-2.211,5.279
							c-0.751,1.752-1.429,3.533-2.167,5.296c-0.258,0.596-0.621,0.948-0.842,0.775C75.657,398.718,75.637,398.262,75.785,397.771z"
							/>
					</g>
					<g>
						<path fill="#FFFFFF" d="M82.418,382.73c0.04-0.306,0.172-0.562,0.295-0.82c0.153-0.243,0.293-0.494,0.533-0.688
							c0.545-0.445,0.914-0.246,0.832,0.432l-0.005,0.035c-0.044,0.302-0.17,0.557-0.294,0.813c-0.15,0.241-0.292,0.486-0.526,0.684
							c-0.526,0.451-0.904,0.272-0.84-0.41L82.418,382.73z"/>
					</g>
					<g>
						<path fill="#FFFFFF" d="M85.29,377.705c0.058-0.305,0.204-0.553,0.347-0.803c0.167-0.234,0.332-0.473,0.583-0.651
							c0.581-0.407,0.927-0.169,0.797,0.493l-0.007,0.035c-0.063,0.298-0.211,0.537-0.35,0.783
							c-0.167,0.229-0.322,0.465-0.566,0.646c-0.556,0.415-0.924,0.215-0.812-0.463L85.29,377.705z"/>
					</g>
				</g>
			</g>
		</g>
		<g>
			<g>
				<rect x="239.511" y="139.101" fill="#261542" width="203.265" height="132.652"/>
				<rect x="244.275" y="157.504" fill="#FFFFFF" width="193.735" height="108.389"/>
				<rect x="239.511" y="139.101" fill="#261542" width="203.265" height="13.478"/>
				<path fill="#E2E2E2" d="M438.011,245.695h-30.074v-21.213h30.074v-1.137h-30.074v-21.213h30.074v-1.137h-30.074v-21.212h30.074
					v-1.137h-30.074v-21.141h-1.133v21.141h-31.989v-21.141h-1.133v21.141h-31.988v-21.141h-1.133v21.141h-31.988v-21.141h-1.132
					v21.141h-31.99v-21.141h-1.132v21.141h-30.042v1.137h30.042v21.212h-30.042v1.137h30.042v21.213h-30.042v1.137h30.042v21.213
					h-30.042v1.137h30.042v18.85h1.132v-18.85h31.989v18.85h1.132v-18.85h31.988v18.85h1.133v-18.85h31.988v18.85h1.133v-18.85
					h31.989v18.85h1.133v-18.85h30.074L438.011,245.695L438.011,245.695z M340.561,223.345h-31.988v-21.213h31.988V223.345z
					 M341.693,202.132h31.988v21.213h-31.988V202.132z M374.814,223.345v-21.213h31.989v21.213H374.814z M374.814,200.995v-21.212
					h31.989v21.212H374.814z M373.682,200.995h-31.988v-21.212h31.988V200.995z M340.561,200.995h-31.988v-21.212h31.988V200.995z
					 M307.439,200.995H275.45v-21.212h31.989V200.995L307.439,200.995z M307.439,202.132v21.213H275.45v-21.213H307.439z
					 M307.439,224.482v21.213H275.45v-21.213H307.439z M308.571,224.482h31.988v21.213h-31.988V224.482z M341.693,224.482h31.988
					v21.213h-31.988V224.482z M374.814,224.482h31.989v21.213h-31.989V224.482z"/>
			</g>
			
				<rect x="310.322" y="180.835" transform="matrix(-0.9871 0.16 -0.16 -0.9871 657.3086 324.6897)" fill="#261542" width="10.523" height="15.941"/>
			
				<rect x="292.646" y="203.744" transform="matrix(-0.9901 -0.1405 0.1405 -0.9901 563.1143 463.1854)" fill="#FF8976" width="10.523" height="15.941"/>
			
				<rect x="295.16" y="204.431" transform="matrix(-0.9976 -0.0699 0.0699 -0.9976 585.2574 445.2918)" fill="#261542" width="10.524" height="15.943"/>
		</g>
		<g>
			<path opacity="0.3" fill="#F6F5F7" enable-background="new    " d="M297.104,413.062l-13.527,13.336c0,0-3.811,4.435,6.557,4.435
				c10.367,0,331.222,0,331.222,0s6.213-0.342,2.069-6.509s-14.701-11.262-14.701-11.262H297.104z"/>
			<g>
				<path fill="#FFDCAE" d="M290.693,315.874c0,0-8.654,78.789-11.013,107.592c-0.317,3.87,6.367,4.892,6.995,1.073
					c4.054-24.656,17.066-108.665,17.066-108.665H290.693z"/>
				<path fill="#F29353" d="M302.855,315.874c0,0-7.582,69.022-9.648,94.256c-0.278,3.39,5.578,4.284,6.128,0.939
					c3.552-21.601,14.951-95.195,14.951-95.195H302.855z"/>
				<path fill="#F29353" d="M595.18,315.874c0,0,7.581,69.022,9.647,94.256c0.278,3.39-5.578,4.284-6.128,0.939
					c-3.553-21.601-14.95-95.195-14.95-95.195H595.18z"/>
				<path fill="#FFDCAE" d="M608.504,315.874c0,0,8.654,78.789,11.014,107.592c0.317,3.87-6.366,4.892-6.994,1.073
					c-4.056-24.656-17.066-108.665-17.066-108.665H608.504z"/>
				<path fill="#CC584E" d="M607.202,320.223H293.305c-5.665,0-10.257-4.592-10.257-10.257v-2.95H617.46v2.95
					C617.459,315.631,612.867,320.223,607.202,320.223z"/>
				<g>
					<rect x="265.694" y="305.646" fill="#F29353" width="369.119" height="5.549"/>
					<polygon fill="#FFDCAE" points="283.381,295.625 265.694,305.646 634.813,305.646 618.503,295.625 					"/>
				</g>
				<g>
					<g>
						<g>
							<path fill="#CC584E" d="M613.766,284.969l-0.285,4.407l-0.135,2.099l-0.438,6.563c-0.21,2.919-22.913,3.224-23.161,0.286
								l-0.534-6.545l-0.189-2.117l-0.383-4.693H613.766z"/>
							<ellipse fill="#E57873" cx="601.207" cy="284.969" rx="12.559" ry="1.544"/>
							<ellipse fill="#3E2B13" cx="601.207" cy="284.969" rx="9.65" ry="0.957"/>
							<g>
								<path fill="#E4BCE8" d="M613.479,289.376l-0.134,2.099c-2.27,0.765-6.313,1.698-12.477,1.698
									c-5.953,0-9.616-0.743-11.657-1.394l-0.189-2.117c1.525,0.592,5.073,1.584,11.848,1.584
									C607.604,291.246,611.648,290.082,613.479,289.376z"/>
							</g>
						</g>
					</g>
					<path fill="#71BF9D" d="M598.08,285.874c0,0-8.878-20.247,3.118-20.247s3.157,20.246,3.157,20.246
						C604.354,285.904,600.354,285.973,598.08,285.874z"/>
				</g>
			</g>
		</g>
		<g>
			<path fill="#DD4026" d="M320.453,167.727c2.911-8.863,8.146-8.499,8.146-8.499s2.446-7.706,16.438-2.999
				c6.534,1.675,14.95,11.382,9.386,28.229c-1.828,5.533,6.735,9.987,5.196,23.681c-1.363,12.126-43.07,11.331-45.152,0.236
				c-2.394-12.761,8.746-14.48,7.868-21.07C321.434,180.548,318.683,173.116,320.453,167.727z"/>
			<path fill="#261542" d="M356.323,202.732c15.979,11.267,27,38.094,23.55,42.438c-3.45,4.343-10.12,0.257-13.896-3.89
				c-5.347-5.872-17.664-23.228-19.088-26.519C343.428,206.763,353.58,200.798,356.323,202.732z"/>
			<g>
				<g>
					<g>
						<g>
							<path id="SVGID_1_" fill="#3E2344" d="M349.793,408.94c0,0-2.65,3.126-3.048,3.96c-0.394,0.82-1.526,6.665-1.526,6.665
								c0.541,0.735,2.082,1.695,3.385,1.659l1.997-3.551c0,0,2.098,5.373,3.646,6.988c1.87,1.951,11.096,3.145,12.319,2.284
								c0,0,1.142-3.485-1.898-4.85c-5.612-2.517-6.767-9.385-6.767-9.385C358.047,408.543,353.138,406.116,349.793,408.94z"/>
						</g>
						<g>
							<defs>
								<path id="SVGID_2_" d="M349.793,408.94c0,0-2.65,3.126-3.048,3.96c-0.394,0.82-1.526,6.665-1.526,6.665
									c0.541,0.735,2.082,1.695,3.385,1.659l1.997-3.551c0,0,2.098,5.373,3.646,6.988c1.87,1.951,11.096,3.145,12.319,2.284
									c0,0,1.142-3.485-1.898-4.85c-5.612-2.517-6.767-9.385-6.767-9.385C358.047,408.543,353.138,406.116,349.793,408.94z"/>
							</defs>
							<clipPath id="SVGID_4_">
								<use xlink:href="#SVGID_2_"  overflow="visible"/>
							</clipPath>
							<path clip-path="url(#SVGID_4_)" fill="#7C4284" d="M367.534,426.302c-0.169-0.058-11.562,0.109-13.373-2.986
								c-1.419-2.426-2.755-6.669-3.43-7.089c-0.676-0.42-3.986-3.325-3.986-3.325l-3.304,8.447l18.931,11.634L367.534,426.302z"/>
						</g>
					</g>
					<path fill="#F7B614" d="M361.065,419.677l-1.478,0.554c0,0-1.303-1.323-1.406-2.676l1.411-0.744
						c0.256-0.135,0.572-0.038,0.711,0.216l1.04,1.901C361.498,419.21,361.366,419.563,361.065,419.677z"/>
				</g>
				<path fill="#3E2344" d="M375.745,342.107c0.065-11.254-8.188-55.557-15.67-81.207c-3.429-11.754-15.051-6.659-20.245,2.531
					c-11.658,20.627,17.586,75.424,16.342,82.131c-6.253,33.711-6.379,63.378-6.379,63.378c0.123,2.718,8.226,7.904,8.307,2.854
					C358.101,411.796,375.691,351.303,375.745,342.107z"/>
			</g>
			<g>
				<g>
					<g>
						<g>
							<path id="SVGID_3_" fill="#3E2344" d="M328.488,412.637c0,0-1.929,3.617-2.142,4.517c-0.21,0.887-0.081,6.837-0.081,6.837
								c0.686,0.604,2.395,1.218,3.66,0.906l1.2-3.894c0,0,3.188,4.808,5.041,6.059c2.24,1.512,11.511,0.727,12.524-0.374
								c0,0,0.378-3.647-2.882-4.338c-6.018-1.271-8.6-7.739-8.6-7.739C336.471,410.502,331.16,409.17,328.488,412.637z"/>
						</g>
						<g>
							<defs>
								<path id="SVGID_6_" d="M328.488,412.637c0,0-1.929,3.617-2.142,4.517c-0.21,0.887-0.081,6.837-0.081,6.837
									c0.686,0.604,2.395,1.218,3.66,0.906l1.2-3.894c0,0,3.188,4.808,5.041,6.059c2.24,1.512,11.511,0.727,12.524-0.374
									c0,0,0.378-3.647-2.882-4.338c-6.018-1.271-8.6-7.739-8.6-7.739C336.471,410.502,331.16,409.17,328.488,412.637z"/>
							</defs>
							<clipPath id="SVGID_8_">
								<use xlink:href="#SVGID_6_"  overflow="visible"/>
							</clipPath>
							<path clip-path="url(#SVGID_8_)" fill="#7C4284" d="M349.501,425.851c-0.177-0.021-11.276,2.555-13.702-0.089
								c-1.899-2.068-4.104-5.935-4.852-6.202c-0.748-0.267-4.601-2.406-4.601-2.406l-1.44,8.957l20.964,7.361L349.501,425.851z"/>
						</g>
					</g>
					<path fill="#F7B614" d="M341.777,420.745l-1.326,0.853c0,0-1.554-1.018-1.94-2.316l1.223-1.025
						c0.222-0.186,0.551-0.159,0.739,0.061l1.418,1.64C342.101,420.197,342.047,420.57,341.777,420.745z"/>
				</g>
				<path fill="#3E2344" d="M341.267,299.214l-0.652-29.172c-4.196-9.585-18.531-12.524-22.621-1.243
					c-7.637,21.064,6.689,97.895,10.492,144.753c0.691,3.309,8.671,3.962,8.4,0.006
					C336.887,413.558,340.669,312.439,341.267,299.214z"/>
			</g>
			<g>
				<path fill="#261542" d="M320.534,261.673c0,0-5.442,5.345-7.155,17.325c-1.712,11.98-2.201,40.829-2.201,40.829
					s33.04,12.182,62.763-1.194c0,0-7.694-51.271-15.582-58.185C350.47,253.537,328.178,251.949,320.534,261.673z"/>
				<path fill="#BA2F1C" d="M362.221,269.618c-0.505,2.309-9.401,7.639-22.201,7.221c-12.799-0.419-22.86-4.221-22.316-7.562
					c1.285-7.885,9.519-37.751,22.316-37.333C352.818,232.363,363.618,263.234,362.221,269.618z"/>
			</g>
			<path fill="#FF8976" d="M313.331,208.146c3.932-8.289,23.396-14.061,24.396-14.605c0,0,18.824,6.851,21.221,11.82
				c0.476,0.987-2.141,4.328-2.549,8.359c-0.174,1.713,1.975,7.565,1.698,9.588c-0.908,6.663-3.42,16.728-2.583,19.03
				c1.171,3.22,6.102,19.675,7.521,24.43c0.224,0.75-0.097,1.586-0.805,1.92c-19.685,9.303-35.758,4.978-45.493-0.442
				c-0.69-0.384-1.203-0.995-1.005-1.759c1.202-4.633,6.576-18.287,8.082-22.468C325.835,238.406,310.29,214.556,313.331,208.146z"
				/>
			<path fill="#E06258" d="M323.992,242.589c0,0,3.876,14.9,10.226,15.235c6.351,0.334,22.894-11.53,22.894-11.53L323.992,242.589z"
				/>
			<g>
				<g>
					<path fill="#7C4284" d="M340.58,216.875c-0.092,0-0.18-0.036-0.246-0.101c-8.544-8.416-13.263-14.936-14.052-18.924
						c-0.038-0.19,0.696-0.403,0.733-0.214c0.748,3.776,5.444,10.387,13.696,18.529l2.324-0.164
						c4.366-8.97,4.551-16.548,2.214-19.55c-0.119-0.152,0.767-0.097,0.885,0.056c2.534,3.253,2.012,10.646-2.559,19.982
						c-0.055,0.112-0.165,0.187-0.289,0.195l-2.684,0.189C340.596,216.875,340.588,216.875,340.58,216.875z"/>
				</g>
				<g>
					<g>
						<path fill="#FFFFFF" d="M352.111,229.988l-18.202,1.287c-0.426,0.03-0.795-0.291-0.826-0.717L332.3,219.49
							c-0.03-0.426,0.291-0.796,0.717-0.826l18.201-1.287c0.426-0.03,0.796,0.291,0.826,0.717l0.783,11.068
							C352.858,229.588,352.537,229.958,352.111,229.988z"/>
						<path fill="#DD4026" d="M339.392,228.754l-4.583,0.324c-0.342,0.024-0.639-0.234-0.662-0.576l-0.437-6.163
							c-0.024-0.342,0.233-0.639,0.576-0.663l4.583-0.324c0.342-0.024,0.639,0.233,0.663,0.576l0.436,6.162
							C339.991,228.433,339.734,228.73,339.392,228.754z"/>
					</g>
					
						<rect x="339.638" y="218.511" transform="matrix(-0.9975 0.0705 -0.0705 -0.9975 698.9336 413.1319)" fill="#3E2344" width="5.077" height="0.776"/>
					<path fill="#7C4284" d="M343.115,218.835l-2.038,0.144c-0.178,0.013-0.333-0.122-0.345-0.3l-0.189-2.676
						c-0.013-0.178,0.122-0.333,0.3-0.345l2.038-0.145c0.178-0.012,0.333,0.122,0.345,0.3l0.189,2.676
						C343.428,218.667,343.293,218.822,343.115,218.835z"/>
					<g>
						
							<rect x="341.646" y="220.846" transform="matrix(-0.9975 0.0705 -0.0705 -0.9975 707.0709 417.5761)" fill="#A1ABAD" width="9.034" height="0.851"/>
						
							<rect x="341.772" y="222.626" transform="matrix(-0.9975 0.0705 -0.0705 -0.9975 707.4374 421.1418)" fill="#A1ABAD" width="9.034" height="0.851"/>
						
							<rect x="341.898" y="224.407" transform="matrix(-0.9975 0.0705 -0.0705 -0.9975 707.8253 424.6716)" fill="#A1ABAD" width="9.034" height="0.851"/>
						
							<rect x="342.122" y="227.383" transform="matrix(-0.9975 0.0706 -0.0706 -0.9975 708.4929 430.58)" fill="#A1ABAD" width="9.034" height="0.851"/>
					</g>
				</g>
			</g>
			<path fill="#EF7265" d="M334.99,227.58c11.735-0.211,33.011,1.543,41.863,6.184c2.085,1.092,5.691,4.904,4.319,9.985
				c-1.373,5.081-8.791,3.551-8.791,3.551s-28.056-5.308-35.217-7.775C329.229,236.792,329.13,227.686,334.99,227.58z"/>
			<g>
				<path fill="#FFB072" d="M347.572,179.991c-1.307-0.985-1.646-4.17-0.655-5.768c0,0,0.761-1.385,2.408-0.716
					c1.25,0.508,1.624,2.085,1.474,3.644C350.62,179.021,348.999,181.067,347.572,179.991z"/>
				<path fill="#E57E55" d="M348.004,179.25l0.309-1.713l-1.036-0.293c0,0,0.145-3.139,1.895-2.244
					C350.61,175.736,349.717,179.635,348.004,179.25z"/>
			</g>
			<g>
				<path fill="#FFB072" d="M372.866,238.227c1.353-0.16,3.732-1.167,5.073-2.261c1.339-1.095,2.93,2.793,2.93,2.793
					s1.358-2.923-0.404-5.402c-0.354-0.498,0.107-1.398-0.468-2.4c-0.574-1.002-0.805-0.478-1.259-1.221
					c-0.454-0.744-0.237-1.08-0.531-1.834c-0.294-0.755-0.87-0.581-1.357-1.054c-0.487-0.474-0.67-1.292-1.259-1.542
					c-1.158-0.493-2.349,0.136-2.913,0.397c-1.87,0.866-4.486,3.122-5.438,5.103C366.302,232.754,364.929,239.167,372.866,238.227z"
					/>
				<g>
					<path fill="#FFA399" d="M312.239,215.701c-1.062-11.64,8.341-17.787,14.475-9.061c4.555,6.48,9.155,29.396,12.056,30.64
						c2.383,1.021,28.373-6.919,28.373-6.919c4.109,0.094,6.113,7.277,4.722,9.808c-17.426,7.661-32.403,16.58-39.281,13.327
						C324.102,249.485,313.286,227.196,312.239,215.701z"/>
				</g>
			</g>
			<g>
				<path fill="#FFB072" d="M332.813,181.225c0,0-0.043,5.312-1.311,9.543c-1.269,4.231-2.322,5.077-4.167,6.967
					c-1.688,1.731,12.781,8.935,12.781,8.935s1.557,4.047,2.309,4.218l0.421-4.516c0,0,5.309-5.213,3.144-7.977
					c-3.215-4.102-4.488-3.061-3.854-8.887c0.555-5.079,0.899-7.898,0.899-7.898L332.813,181.225z"/>
				<g>
					<g>
						<g>
							<g>
								<path fill="#FFB072" d="M331.751,181.458c0,0,3.024,10.435,12.915,8.159c4.966-1.143,5.954-11.172,3.612-14.137
									c0,0,0.828-4.499-1.439-9.455c-1.833-4.006-10.295-5.082-16.833-1.952c0,0-1.684,2.172,0.346,10.437
									c0,0-1.495-1.33-3.319,0.057c-1.384,1.052-1.247,3.023-0.456,4.781C327.525,181.456,330.109,183.004,331.751,181.458z"/>
								<path fill="#E57E55" d="M330.919,180.756l-1.05-1.878l1.196-0.723c0,0-1.396-3.597-3.263-1.909
									C326.269,177.633,328.903,181.837,330.919,180.756z"/>
							</g>
							<g>
								<g>
									<path fill="#FD6141" d="M345.291,182.725c0,0-0.933-1.558-6.104-0.216C340.208,185.197,345.331,185.818,345.291,182.725z"
										/>
									<g>
										<path fill="#E57E55" d="M345.291,182.725c0,0-3.167,0.497-6.104-0.216"/>
										<path fill="#E57E55" d="M345.291,182.725c-0.998,0.279-2.036,0.336-3.066,0.33c-1.028-0.044-2.069-0.173-3.035-0.545
											c0.515,0.043,1.018,0.108,1.525,0.136c0.507,0.032,1.012,0.072,1.521,0.07
											C343.248,182.761,344.26,182.724,345.291,182.725z"/>
									</g>
								</g>
								<g>
									<path fill="#3E2344" d="M347.221,175.503c0.032,0.478-0.583,0.606-1.348,0.658c-0.766,0.052-1.392,0.007-1.424-0.471
										s0.562-0.907,1.327-0.959C346.542,174.68,347.189,175.025,347.221,175.503z"/>
									<path fill="#D8462A" d="M348.491,173.297c0.033,0.065-1.976-1.123-2.457-1.15c-0.559-0.031-2.146,1.028-2.358,0.81
										c-0.213-0.219-0.467-0.73-0.467-0.73s2.425-0.85,2.974-0.764C346.731,171.548,348.205,172.737,348.491,173.297z"/>
								</g>
								<g>
									<path fill="#3E2344" d="M340.207,175.977c0.032,0.478-0.583,0.606-1.348,0.658c-0.766,0.052-1.393,0.007-1.425-0.471
										c-0.031-0.478,0.563-0.907,1.328-0.958C339.527,175.154,340.174,175.499,340.207,175.977z"/>
									<path fill="#D8462A" d="M335.261,173.652c-0.027,0.068,2.212-1.275,2.829-1.213s2.673,0.736,2.896,0.499
										c0.223-0.237,0.433-0.773,0.433-0.773s-2.935-0.521-3.609-0.391C337.136,171.903,335.502,173.065,335.261,173.652z"/>
								</g>
								<g>
									<path opacity="0.5" fill="#E57E55" enable-background="new    " d="M343.944,180.129c0,0-1.757,0.207-1.789-0.277
										c-0.033-0.485,3.544-1.567,3.798-1.252C346.208,178.913,344.696,179.791,343.944,180.129z"/>
									<path fill="#E57E55" d="M343.141,172.817c0,0-0.179,2.267,0.204,3.016c0.382,0.748,2.256,2.281,2.349,2.651
										c0.092,0.37-1.62,1.57-1.748,1.645c-0.128,0.075,2.581-0.772,2.369-1.621c-0.213-0.849-2.604-2.696-2.742-3.107
										C343.434,174.99,343.141,172.817,343.141,172.817z"/>
								</g>
							</g>
						</g>
					</g>
					<path fill="#D8462A" d="M347.084,162.833c0.79,0.676,5.061,2.903-0.051,3.645c-3.896,0.564-11.861-1.428-14.217-2.087
						c0.561,1.258,0.844,4.531,0.598,5.64c-0.448,2.021-1.286,6.683-1.286,6.683s-1.04-1.46-1.777-2.203
						c-0.736-0.743-3.306-1.281-4.318,1.778c0,0-2.434-4.385-2.495-7.356C323.359,160.424,337.125,154.321,347.084,162.833z"/>
				</g>
			</g>
			<path fill="#FFB072" d="M323.278,233.027c0.821-1.719,2.438-3.406,5.757-4.808c1.219-0.515,2.132-0.612,2.768-0.469
				c0.465-0.036,0.803-0.03,0.803-0.03s7.171-0.098,8.104,2.833c0.933,2.932-0.061,6.731-0.061,6.731s-3.563,0.511-4.82,0.016
				c-1.06,0.626-2.38,1.5-3.494,3.071c-0.435,0.614-1.69,0.386-1.544-0.353c0.254-1.285,0.949-2.662,2.466-4.119
				c-1.365,0.452-3.124,1.104-4.807,2.572c-0.637,0.555-2.004,0.082-1.666-0.657c0.708-1.543,2.159-3.105,5.119-4.538
				c-0.005-0.006-0.012-0.012-0.018-0.018c-1.418,0.453-3.434,1.056-5.355,2.669c-0.64,0.537-2.003,0.089-1.661-0.622
				c0.538-1.116,1.497-2.244,3.19-3.326c-0.999,0.401-2.083,0.977-3.152,1.885C324.245,234.43,322.902,233.813,323.278,233.027z"/>
		</g>
		<g>
			<g>
				<path fill="#FFB072" d="M397.632,310.825c0.111-0.904,0.108-4.343-0.259-5.589c-1.276-4.344-6.541-6.066-8.795-4.563
					c-1.433,0.955-4.782,9.646-3.47,14.557c0.084,0.317,0.281,0.5,0.491,0.568c-0.011,0.824,0.025,1.479,0.109,1.781
					c0.181,0.646,0.804,0.77,1.14,0.422c0.071,0.534,0.167,0.951,0.231,1.171c0.237,0.813,1.097,0.89,1.257,0.138
					c0.348-1.636,0.392-2.735,0.724-3.869c0.229-0.78,0.894-2.422,0.96-2.418c-0.206,0.688-0.397,1.438-0.563,2.177
					c-0.414,1.856-0.117,3.856,0.074,4.424c0.271,0.804,1.244,0.784,1.372,0.026c0.287-1.696,0.367-2.771,0.709-3.937
					c0.314-1.071,1.265-4.272,2.452-5.503c0.119,0.248,0.234,0.514,0.331,0.827c0.209,0.69-0.008,1.354,0.09,3.071
					c0.066,1.209,1.421,2.584,1.985,0.894C396.718,314.275,397.514,311.777,397.632,310.825z"/>
				<path fill="#BA2F1C" d="M398.045,260.016c2.281-11.285-2.063-32.788,2.48-41.973c4.903-9.915,20.859-3.725,20.456,4.272
					c-0.705,13.935-3.403,31.748-5.527,41.451c-2.902,13.262-17.256,42.793-17.256,42.793c-3.666-1.228-7.672-3.221-10.445-5.432
					C387.753,301.127,395.709,271.57,398.045,260.016z"/>
			</g>
			<g>
				<g>
					<g>
						<path id="SVGID_5_" fill="#FFB072" d="M409.352,408.279l-0.7,12.847c0,0,0.445,2.712,0.438,3.625
							c-0.007,0.9-0.488,3.567-0.488,3.567c-1.142,0.821-4.729,1.057-6.536,0.52l-0.347-0.298c0,0-0.352,0.202-2.905,0.779
							c-2.604,0.589-10.321,0.684-11.456-0.265c0,0-0.938-3.854,2.266-4.62c8.017-1.92,9.209-4.05,9.797-6.502
							c0.741-3.088,1.623-10.815,1.623-10.815L409.352,408.279z"/>
					</g>
					<g>
						<defs>
							<path id="SVGID_10_" d="M409.352,408.279l-0.7,12.847c0,0,0.445,2.712,0.438,3.625c-0.007,0.9-0.488,3.567-0.488,3.567
								c-1.142,0.821-4.729,1.057-6.536,0.52l-0.347-0.298c0,0-0.352,0.202-2.905,0.779c-2.604,0.589-10.321,0.684-11.456-0.265
								c0,0-0.938-3.854,2.266-4.62c8.017-1.92,9.209-4.05,9.797-6.502c0.741-3.088,1.623-10.815,1.623-10.815L409.352,408.279z"/>
						</defs>
						<clipPath id="SVGID_12_">
							<use xlink:href="#SVGID_10_"  overflow="visible"/>
						</clipPath>
						<path clip-path="url(#SVGID_12_)" fill="#1C3742" d="M397.354,420.955c0,0,2.14-0.224,3.321,0.973
							c1.119,1.132,1.996,2.091,3.711,1.769c4.395-0.827,4.19-4.234,6.052-2.684l-0.052,8.893l-24.271,0.928l-0.031-6.739
							L397.354,420.955z"/>
					</g>
					<g>
						<defs>
							<path id="SVGID_14_" d="M409.352,408.279l-0.7,12.847c0,0,0.445,2.712,0.438,3.625c-0.007,0.9-0.488,3.567-0.488,3.567
								c-1.142,0.821-4.729,1.057-6.536,0.52l-0.347-0.298c0,0-0.352,0.202-2.905,0.779c-2.604,0.589-10.321,0.684-11.456-0.265
								c0,0-0.938-3.854,2.266-4.62c8.017-1.92,9.209-4.05,9.797-6.502c0.741-3.088,1.623-10.815,1.623-10.815L409.352,408.279z"/>
						</defs>
						<clipPath id="SVGID_16_">
							<use xlink:href="#SVGID_14_"  overflow="visible"/>
						</clipPath>
						<path clip-path="url(#SVGID_16_)" fill="#EFEFEF" d="M386.797,428.1c0,0,0.315,1.158,7.944,0.833s8.313-2.053,14.266-1.879
							l-0.312,2.082l-22.335,1.872L386.797,428.1z"/>
					</g>
				</g>
				<path fill="#261542" d="M406.008,282.65c2.563-12.7,28.606-12.766,26.082-0.019c-8.699,43.914-12.117,99.234-21.524,127.729
					c-4.22,1.531-8.315-0.195-10.469-1.514C400.097,408.849,397.644,324.1,406.008,282.65z"/>
				<path fill="#207089" d="M411.41,411.048c-4.384,1.531-9.956-0.158-12.273-1.529c-0.063-0.036-0.095-0.097-0.093-0.169
					c0.005-0.283,0.025-1.209,0.097-3.837c0.003-0.138,0.144-0.235,0.271-0.183c3.988,1.697,8.626,2.824,12.738,1.319
					c0.145-0.055,0.286,0.074,0.256,0.226c-0.464,2.21-0.778,3.643-0.863,4.029C411.525,410.973,411.477,411.024,411.41,411.048z"/>
			</g>
			<g>
				<g>
					<g>
						<path id="SVGID_7_" fill="#FFB072" d="M432.483,407.579l-0.71,12.846c0,0-0.74,2.646-0.833,3.556
							c-0.093,0.896,0.095,3.601,0.095,3.601c1.045,0.941,4.586,1.568,6.439,1.232l0.377-0.26c0,0,0.327,0.239,2.804,1.094
							c2.523,0.87,10.185,1.811,11.417,0.992c0,0,1.353-3.729-1.746-4.841c-7.759-2.786-8.71-5.034-9.026-7.535
							c-0.397-3.149-0.429-10.93-0.429-10.93L432.483,407.579z"/>
					</g>
					<g>
						<defs>
							<path id="SVGID_18_" d="M432.483,407.579l-0.71,12.846c0,0-0.74,2.646-0.833,3.556c-0.093,0.896,0.095,3.601,0.095,3.601
								c1.045,0.941,4.586,1.568,6.439,1.232l0.377-0.26c0,0,0.327,0.239,2.804,1.094c2.523,0.87,10.185,1.811,11.417,0.992
								c0,0,1.353-3.729-1.746-4.841c-7.759-2.786-8.71-5.034-9.026-7.535c-0.397-3.149-0.429-10.93-0.429-10.93L432.483,407.579z"
								/>
						</defs>
						<clipPath id="SVGID_20_">
							<use xlink:href="#SVGID_18_"  overflow="visible"/>
						</clipPath>
						<path clip-path="url(#SVGID_20_)" fill="#1C3742" d="M443.02,421.492c0,0-2.101-0.456-3.407,0.604
							c-1.236,1.002-2.213,1.859-3.882,1.352c-4.276-1.305-3.7-4.668-5.722-3.33l-0.923,8.844l24.023,3.581l0.769-6.695
							L443.02,421.492z"/>
					</g>
					<g>
						<defs>
							<path id="SVGID_21_" d="M432.483,407.579l-0.71,12.846c0,0-0.74,2.646-0.833,3.556c-0.093,0.896,0.095,3.601,0.095,3.601
								c1.045,0.941,4.586,1.568,6.439,1.232l0.377-0.26c0,0,0.327,0.239,2.804,1.094c2.523,0.87,10.185,1.811,11.417,0.992
								c0,0,1.353-3.729-1.746-4.841c-7.759-2.786-8.71-5.034-9.026-7.535c-0.397-3.149-0.429-10.93-0.429-10.93L432.483,407.579z"
								/>
						</defs>
						<clipPath id="SVGID_22_">
							<use xlink:href="#SVGID_21_"  overflow="visible"/>
						</clipPath>
						<path clip-path="url(#SVGID_22_)" fill="#EFEFEF" d="M452.732,429.75c0,0-0.441,1.117-7.988-0.042
							c-7.548-1.159-8.038-2.951-13.976-3.43l0.082,2.104l21.996,4.308L452.732,429.75z"/>
					</g>
				</g>
				<path fill="#261542" d="M426.88,283.577c0.479-12.979,23.376-17.978,24.733-5.068c5.875,55.841-6.816,97.009-8.825,131.888
					c-5.486,2.149-9.176,1.409-12.081,0.136C430.707,410.531,426.157,303.156,426.88,283.577z"/>
				<path fill="#207089" d="M443.716,406.844c-0.354,2.215-0.53,3.206-0.585,3.509c-0.012,0.068-0.062,0.123-0.127,0.148
					c-5.666,2.191-9.509,1.458-12.543,0.151c-0.071-0.031-0.117-0.096-0.119-0.172c-0.008-0.358-0.032-1.496-0.063-3.252
					c-0.002-0.128,0.118-0.227,0.241-0.196c4.586,1.115,8.83,0.92,12.946-0.412C443.604,406.575,443.739,406.699,443.716,406.844z"
					/>
			</g>
			<path fill="#261542" d="M406.083,286.063c0.266,6.771,10.898,11.853,23.75,11.349c12.851-0.504,22.494-6.379,22.229-13.15
				c-0.857-21.852-11.732-47.392-24.584-46.888C414.628,237.875,405.21,263.794,406.083,286.063z"/>
			<path fill="#DD4026" d="M406.838,260.949c2.072-13.996-6.646-40.86-5.006-44.285c2.465-5.154,28.416-17.829,28.416-17.829
				c1.032,0.564,25.795,12.14,30.393,20.451c1.926,3.479-12.021,35.989-11.803,48.512c0.108,6.172,2.068,12.316,2.019,18.246
				c-0.059,6.776-48.27,5.084-48.211-1.692C402.713,276.471,405.702,268.616,406.838,260.949z"/>
			<path fill="#BA2F1C" d="M459.394,217.849c-0.023-0.04-0.057-0.08-0.081-0.119c-19.803,16.521-21.495,46.013-6.606,65.904
				c-0.479-5.487-2.408-11.075-2.781-16.764C449.105,254.372,461.482,221.233,459.394,217.849z"/>
			<g>
				<polyline fill="none" stroke="#7C4284" stroke-width="0.757" stroke-miterlimit="10" points="417.788,212.226 424.171,228.854 
					427.082,228.854 437.135,211.766 				"/>
				<g>
					<g>
						<path fill="#FFFFFF" d="M435.656,244.27h-19.877c-0.428,0-0.773-0.346-0.773-0.773v-12.138c0-0.427,0.347-0.773,0.773-0.773
							h19.877c0.427,0,0.772,0.347,0.772,0.773v12.138C436.43,243.923,436.083,244.27,435.656,244.27z"/>
						<path fill="#261542" d="M422.005,241.966h-5.075c-0.344,0-0.621-0.278-0.621-0.621v-6.789c0-0.343,0.277-0.621,0.621-0.621
							h5.075c0.343,0,0.621,0.278,0.621,0.621v6.789C422.626,241.688,422.348,241.966,422.005,241.966z"/>
					</g>
					<rect x="422.97" y="231.121" fill="#3E2344" width="5.495" height="0.84"/>
					<path fill="#7C4284" d="M426.758,231.541h-2.264c-0.179,0-0.323-0.145-0.323-0.324v-2.957c0-0.179,0.146-0.324,0.323-0.324
						h2.264c0.179,0,0.324,0.145,0.324,0.324v2.957C427.082,231.396,426.938,231.541,426.758,231.541z"/>
					<g>
						<rect x="424.958" y="233.935" fill="#261542" width="9.778" height="0.921"/>
						<rect x="424.958" y="235.867" fill="#261542" width="9.778" height="0.921"/>
						<rect x="424.958" y="237.8" fill="#261542" width="9.778" height="0.921"/>
						<rect x="424.958" y="241.045" fill="#261542" width="9.778" height="0.921"/>
					</g>
				</g>
			</g>
			<path fill="#FFB072" d="M414.47,179.34c0.323,8.241,4.808,10.649,12.496,10.348c9.838-0.386,13.757-4.792,13.435-13.033
				c-0.323-8.241-6.751-12.951-14.44-12.65C418.27,164.307,414.011,167.64,414.47,179.34z"/>
			<g>
				<path fill="#FFB072" d="M417.78,180.803c-0.538-0.907-2.336-3.081-4.077-1.766c-1.741,1.314-0.797,5.213,0.949,6.731
					C416.399,187.286,421.256,186.657,417.78,180.803z"/>
				<path fill="#E57E55" d="M415.805,183.626c0.285-0.461,0.995,0.5,1.373-0.604c0.133-0.387-0.3-1.223-0.615-1.693
					c-0.372-0.556-1.62-2.125-2.622-1.198c-1.001,0.928-0.326,3.705,0.855,4.585c0.69,0.514,1.338,0.438,1.205,0.162
					C415.781,184.416,415.608,183.855,415.805,183.626z"/>
				<path fill="#BC6658" d="M415.104,181.968c-0.309,1.011,0.07,1.926,0.757,2.579c-0.14-0.373-0.207-0.745-0.057-0.92
					c0.285-0.461,0.995,0.5,1.373-0.604c0.133-0.387-0.3-1.223-0.614-1.693c-0.009-0.012-0.018-0.025-0.025-0.038
					C415.928,181.079,415.258,181.602,415.104,181.968z"/>
			</g>
			<path fill="#DD4026" d="M413.368,169.822c0,0-1.135,6.943,1.735,12.146C417.976,187.171,419.888,167.148,413.368,169.822z"/>
			<path fill="#FFB072" d="M433.379,186.887c0,0,0.38,12.758,2.384,15.202c7.025,8.571-0.339,16.037-6.494,15.912
				c-8.188-0.167-11.023-6.272-6.343-13.549c0.918-1.428,0.13-16.147,0.13-16.147L433.379,186.887z"/>
			<path fill="#FFB072" d="M423.376,197.905c4.843-0.19,9.859-6.697,10.328-11.906c0.281-3.134-2.111-5.119-1.192-9.37
				c1.863-8.621-6.596-9.403-10.32-9.248c-5.088,0.211-7.992,4.356-7.787,9.582c0,0,0.188,7.595,0.405,10.121
				C415.438,194.381,418.533,198.095,423.376,197.905z"/>
			<path fill="#DD4026" d="M418.76,164.444c-1.183,0.173-3.092,1.062-3.348,0.815c-0.539-0.899,1.641-6.556,12.331-3.355
				c0,0-0.957-1.2-0.367-1.359c6.94-1.869,13.188,6.04,12.884,13.789c0.017-0.836,0.222-2.324,0.664-2.411
				c0.778-0.151,1.648,4.297-0.013,8.439c-1.342,4.412-7.37,10.601-7.501,7.256c-0.332-2.381-0.354-4.307-1.37-6.533
				c-0.615-1.344-1.225-2.706-1.346-4.203c-0.07-0.878-0.012-1.766,0.158-2.622c-0.085-0.012-6.274-1.07-10.419-3.482
				c0.265,0.218,0.528,0.429,0.794,0.615c1.791,1.251,5.844,2.716,5.706,3.374c-0.137,0.658-12.42,0.271-12.575-3.192
				c-0.467,0.035-1.679,3.837-2.037,3.197C409.8,170.279,414.332,165.803,418.76,164.444z"/>
			<g>
				<g>
					<path fill="#1E1C1C" d="M426.225,179.354c0.021,0,0.021-0.033,0-0.033C426.204,179.321,426.204,179.354,426.225,179.354
						L426.225,179.354z"/>
				</g>
			</g>
			<g>
				<path fill="#FFFFFF" d="M426.938,188.938c-0.118-0.404-7.732-0.111-7.904,0.233c-0.172,0.345,0.656,1.825,2.791,1.827
					C424.294,191.001,427.055,189.342,426.938,188.938z"/>
				<path fill="#C67154" d="M426.677,189.014c0.089,0.178,0.088,0.102,0.066,0.112l-0.102-0.024
					c-0.076-0.015-0.159-0.026-0.245-0.036c-0.172-0.019-0.349-0.032-0.524-0.041c-0.354-0.019-0.713-0.028-1.071-0.032
					c-0.718-0.013-1.438-0.017-2.157-0.005c-0.72,0.013-1.439,0.031-2.156,0.081c-0.357,0.029-0.718,0.061-1.063,0.118
					c-0.085,0.015-0.172,0.032-0.241,0.055l-0.044,0.017c0.012,0.009,0.021-0.042,0.018-0.021c-0.005,0.012-0.01,0.037-0.005,0.072
					c0.009,0.135,0.089,0.296,0.179,0.433c0.387,0.56,1.048,0.903,1.722,1.029c0.685,0.12,1.396,0.034,2.082-0.115
					c0.688-0.155,1.354-0.408,1.989-0.708c0.318-0.148,0.631-0.313,0.921-0.5c0.146-0.091,0.289-0.191,0.412-0.296
					c0.066-0.052,0.119-0.105,0.166-0.156C426.678,188.96,426.654,188.868,426.677,189.014z M427.197,188.862
					c0.026,0.333-0.115,0.393-0.174,0.49c-0.076,0.082-0.153,0.154-0.23,0.212c-0.155,0.125-0.313,0.23-0.474,0.327
					c-0.32,0.198-0.651,0.364-0.99,0.514c-0.681,0.292-1.389,0.515-2.117,0.645c-0.728,0.123-1.481,0.172-2.221,0.017
					c-0.73-0.153-1.448-0.534-1.88-1.179c-0.105-0.162-0.206-0.33-0.231-0.557c-0.006-0.056-0.005-0.12,0.022-0.195
					c-0.002-0.027,0.063-0.095,0.104-0.117l0.082-0.035c0.102-0.034,0.191-0.053,0.283-0.071c0.365-0.067,0.726-0.106,1.088-0.142
					c0.722-0.077,1.443-0.136,2.167-0.183c0.724-0.045,1.447-0.083,2.174-0.095c0.364-0.003,0.729-0.001,1.095,0.011
					c0.185,0.007,0.368,0.017,0.557,0.034c0.095,0.009,0.189,0.02,0.291,0.037c0.049,0.007,0.107,0.024,0.162,0.037
					C426.966,188.655,427.056,188.604,427.197,188.862z"/>
			</g>
			<g>
				<path fill="#FFB072" d="M432.797,180.214c0.466-0.946,2.088-3.254,3.927-2.08c1.839,1.174,1.203,5.134-0.42,6.785
					S429.791,186.323,432.797,180.214z"/>
				<path fill="#E57E55" d="M434.987,182.875l-1.415-0.495c0,0,0.203-1.243,0.479-1.736c0.328-0.583,1.449-2.246,2.521-1.399
					c1.071,0.847,0.616,3.668-0.494,4.638c-0.648,0.566-1.221,0.665-1.221,0.665L434.987,182.875z"/>
			</g>
			<g>
				<path fill="#FFB072" d="M458.742,308.748c0.222-0.885,1.465-4.088,2.257-5.119c2.757-3.59,8.289-3.299,9.849-1.082
					c0.99,1.406,0.981,10.723-2.014,14.828c-0.193,0.266-0.443,0.364-0.664,0.354c-0.288,0.771-0.557,1.369-0.745,1.621
					c-0.401,0.539-1.025,0.428-1.215-0.018c-0.259,0.473-0.499,0.827-0.639,1.009c-0.516,0.675-1.344,0.433-1.222-0.325
					c0.266-1.65,0.621-2.691,0.721-3.869c0.067-0.812,0.041-2.582-0.023-2.603c-0.056,0.718-0.146,1.485-0.26,2.231
					c-0.283,1.882-1.282,3.641-1.665,4.101c-0.544,0.651-1.443,0.282-1.29-0.47c0.346-1.686,0.658-2.719,0.759-3.928
					c0.093-1.112,0.361-4.44-0.302-6.018c-0.202,0.188-0.404,0.395-0.607,0.653c-0.443,0.567-0.481,1.267-1.19,2.831
					c-0.499,1.104-2.258,1.898-2.175,0.117C458.351,312.296,458.509,309.68,458.742,308.748z"/>
				<path fill="#DD4026" d="M457.984,216.041c5.909,5.94,9.244,21.755,12.175,39.953c3.358,20.869,2.01,49.24,2.01,49.24
					c-0.104,1.301-12.576-0.784-12.473-2.084c0,0-1.461-28.955-5.636-41.875c-4.421-13.683-8.517-23.592-12.511-34.734
					C438.849,219.003,450.183,208.199,457.984,216.041z"/>
			</g>
			<g>
				<g>
					<path id="SVGID_9_" fill="#FD6141" d="M448.66,209.076c0,0-5.838-0.073-8.646,2.925c-4.438,4.743-6.679,6.05-13.76,7.147
						c0,0,9.159-17.304,8.837-18.396s-1.046-3.13,1.239-3.353C438.615,197.177,448.793,203.397,448.66,209.076z"/>
				</g>
				<g>
					<defs>
						<path id="SVGID_23_" d="M448.66,209.076c0,0-5.838-0.073-8.646,2.925c-4.438,4.743-6.679,6.05-13.76,7.147
							c0,0,9.159-17.304,8.837-18.396s-1.046-3.13,1.239-3.353C438.615,197.177,448.793,203.397,448.66,209.076z"/>
					</defs>
					<clipPath id="SVGID_24_">
						<use xlink:href="#SVGID_23_"  overflow="visible"/>
					</clipPath>
					<path clip-path="url(#SVGID_24_)" fill="#DD4026" d="M426.255,219.148c0,0,13.258-12.594,13.578-15.347
						c0.32-2.753-1.077-6.022-5.077-5.188C430.756,199.447,423.2,213.017,426.255,219.148z"/>
				</g>
			</g>
			<g>
				<g>
					<path id="SVGID_11_" fill="#FD6141" d="M409.887,209.883c0,0,4.666-0.381,7.413,3.008c2.586,3.191,4.175,5.991,9.576,6.232
						c0,0-3.771-16.893-3.536-18.007c0.235-1.114,0.191-3.083-2.104-3.126C418.94,197.948,408.722,205.216,409.887,209.883z"/>
				</g>
				<g>
					<defs>
						<path id="SVGID_25_" d="M409.887,209.883c0,0,4.666-0.381,7.413,3.008c2.586,3.191,4.175,5.991,9.576,6.232
							c0,0-3.771-16.893-3.536-18.007c0.235-1.114,0.191-3.083-2.104-3.126C418.94,197.948,408.722,205.216,409.887,209.883z"/>
					</defs>
					<clipPath id="SVGID_26_">
						<use xlink:href="#SVGID_25_"  overflow="visible"/>
					</clipPath>
					<path clip-path="url(#SVGID_26_)" fill="#DD4026" d="M426.876,219.124c0,0-8.095-11.757-8.63-14.477
						c-0.535-2.719,0.603-6.088,4.655-5.569S429.441,212.772,426.876,219.124z"/>
				</g>
			</g>
			<g>
				<path fill="none" stroke="#F7DFD8" stroke-width="0.3527" stroke-miterlimit="10" d="M445.226,308.032"/>
			</g>
			<g>
				<g>
					<path fill="#3E2344" d="M424.294,182.756c-0.011,0.456,0.579,0.552,1.309,0.569c0.73,0.017,1.323-0.052,1.335-0.507
						c0.011-0.456-0.572-0.839-1.303-0.856S424.305,182.3,424.294,182.756z"/>
					<path fill="#DD4026" d="M428.93,178.927c0.005,0.075-2.133-0.51-2.793-0.442c-0.66,0.067-3.113,0.708-3.35,0.471
						c-0.234-0.238-0.486-1.109-0.486-1.109s3.365-0.651,4.084-0.525c0.486,0.085,1.538,0.134,2.133,0.589
						C428.802,178.128,428.909,178.662,428.93,178.927z"/>
				</g>
				<g>
					<path fill="#3E2344" d="M416.987,182.554c-0.012,0.456,0.579,0.551,1.309,0.568c0.73,0.017,1.323-0.052,1.334-0.507
						c0.011-0.455-0.572-0.839-1.303-0.855C417.598,181.743,416.998,182.099,416.987,182.554z"/>
					<path fill="#DD4026" d="M414.664,179.511c-0.001,0.078,1.515-0.878,2.11-0.829c0.595,0.049,3.242,0.918,3.477,0.664
						c0.233-0.255,0.536-1.169,0.536-1.169s-3.705-0.665-4.37-0.51c-0.315,0.073-1.229,0.32-1.538,0.66
						C414.538,178.702,414.669,179.214,414.664,179.511z"/>
				</g>
				<g>
					<path opacity="0.5" fill="#E57E55" enable-background="new    " d="M420.442,186.824c0,0,1.679,0.123,1.688-0.339
						c0.011-0.462-3.437-1.34-3.664-1.031C418.24,185.764,419.714,186.534,420.442,186.824z"/>
					<path fill="#E57E55" d="M420.898,179.839c0,0,0.266,2.147-0.066,2.875c-0.332,0.727-2.049,2.264-2.12,2.619
						s1.605,1.424,1.73,1.49c0.124,0.066-2.486-0.625-2.32-1.441c0.166-0.816,2.361-2.672,2.476-3.069
						C420.712,181.917,420.898,179.839,420.898,179.839z"/>
				</g>
			</g>
		</g>
		<g>
			<g>
				<g>
					<path fill="#549E7B" d="M488.971,213.33c-6.465,12.583-7.177,51.387-16.766,84.49c2.809,2.201,6.857,4.174,10.558,5.378
						c0,0,19.607-35.095,22.06-80.694C505.254,214.458,494.059,203.428,488.971,213.33z"/>
					<g>
						<g>
							<polygon fill="#8C8C8C" points="507.866,311.195 452.067,301.521 459.631,262.955 514.517,272.836 							"/>
							<polygon fill="#E2E2E2" points="453.872,301.835 461.688,264.18 514.517,272.836 507.866,311.195 							"/>
							<circle fill="#8C8C8C" cx="484.194" cy="287.335" r="4.213"/>
						</g>
						<g>
							<path fill="#F4B998" d="M476.56,307.009c-0.285,2.179-3.237,1.709-2.853-0.538c0.178-1.035,0.557-3.139,1.007-4.076
								c0.657-1.367,2.06-1.099,2.309,0.492C477.182,303.91,476.695,305.98,476.56,307.009z"/>
							<path fill="#F4B998" d="M479.18,307.666c-0.286,2.088-3.237,1.639-2.853-0.516c0.178-0.994,0.556-3.01,1.007-3.908
								c0.657-1.313,2.059-1.053,2.308,0.472C479.802,304.695,479.315,306.682,479.18,307.666z"/>
							<path fill="#F4B998" d="M481.821,308.24c-0.287,1.664-3.239,1.307-2.854-0.411c0.18-0.793,0.558-2.399,1.007-3.118
								c0.657-1.045,2.061-0.84,2.309,0.377C482.442,305.871,481.956,307.454,481.821,308.24z"/>
							<path fill="#F4B998" d="M473.92,306.167c-0.287,1.665-3.239,1.308-2.854-0.411c0.179-0.793,0.557-2.4,1.007-3.117
								c0.657-1.046,2.06-0.84,2.308,0.377C474.541,303.798,474.055,305.381,473.92,306.167z"/>
						</g>
					</g>
				</g>
				<g>
					<g>
						<g>
							<path id="SVGID_13_" fill="#207089" d="M496.756,405.557l-0.896,12.915c0,0,0.407,2.736,0.388,3.654
								c-0.021,0.906-0.545,3.584-0.545,3.584c-1.16,0.81-4.775,0.992-6.586,0.426l-0.344-0.306c0,0-0.356,0.198-2.937,0.741
								c-2.63,0.554-10.396,0.535-11.523-0.437c0,0-0.886-3.892,2.348-4.615c8.097-1.813,9.328-3.938,9.956-6.396
								c0.792-3.096,1.794-10.86,1.794-10.86L496.756,405.557z"/>
						</g>
						<g>
							<defs>
								<path id="SVGID_27_" d="M496.756,405.557l-0.896,12.915c0,0,0.407,2.736,0.388,3.654c-0.021,0.906-0.545,3.584-0.545,3.584
									c-1.16,0.81-4.775,0.992-6.586,0.426l-0.344-0.306c0,0-0.356,0.198-2.937,0.741c-2.63,0.554-10.396,0.535-11.523-0.437
									c0,0-0.886-3.892,2.348-4.615c8.097-1.813,9.328-3.938,9.956-6.396c0.792-3.096,1.794-10.86,1.794-10.86L496.756,405.557z"
									/>
							</defs>
							<clipPath id="SVGID_28_">
								<use xlink:href="#SVGID_27_"  overflow="visible"/>
							</clipPath>
							<path clip-path="url(#SVGID_28_)" fill="#1C3742" d="M484.496,418.133c0,0,2.154-0.192,3.328,1.028
								c1.108,1.155,1.978,2.133,3.708,1.834c4.433-0.767,4.277-4.198,6.128-2.61l-0.185,8.946l-24.437,0.574l0.068-6.782
								L484.496,418.133z"/>
						</g>
						<g>
							<defs>
								<path id="SVGID_29_" d="M496.756,405.557l-0.896,12.915c0,0,0.407,2.736,0.388,3.654c-0.021,0.906-0.545,3.584-0.545,3.584
									c-1.16,0.81-4.775,0.992-6.586,0.426l-0.344-0.306c0,0-0.356,0.198-2.937,0.741c-2.63,0.554-10.396,0.535-11.523-0.437
									c0,0-0.886-3.892,2.348-4.615c8.097-1.813,9.328-3.938,9.956-6.396c0.792-3.096,1.794-10.86,1.794-10.86L496.756,405.557z"
									/>
							</defs>
							<clipPath id="SVGID_30_">
								<use xlink:href="#SVGID_29_"  overflow="visible"/>
							</clipPath>
							<path clip-path="url(#SVGID_30_)" fill="#207089" d="M473.766,425.166c0,0,0.302,1.17,7.982,0.955
								c7.682-0.214,8.396-1.941,14.383-1.678l-0.345,2.09l-22.503,1.552L473.766,425.166z"/>
						</g>
					</g>
					<path fill="#261542" d="M517.945,280.198c-2.988-12.731-20.924-14.028-22.688-1.108c-2.531,18.536-9.776,138.34-9.776,138.34
						c3.48,2.823,8.491,1.36,11.64,0.35C497.119,417.778,525.761,313.49,517.945,280.198z"/>
				</g>
				<g>
					<g>
						<g>
							<path id="SVGID_15_" fill="#207089" d="M528.404,405.855l0.003,12.946c0,0-0.598,2.701-0.64,3.619
								c-0.042,0.905,0.297,3.612,0.297,3.612c1.102,0.888,4.695,1.318,6.539,0.879l0.364-0.281c0,0,0.343,0.223,2.877,0.942
								c2.586,0.732,10.336,1.25,11.528,0.359c0,0,1.151-3.82-2.024-4.767c-7.95-2.367-9.032-4.573-9.49-7.068
								c-0.576-3.144-1.04-10.959-1.04-10.959L528.404,405.855z"/>
						</g>
						<g>
							<defs>
								<path id="SVGID_31_" d="M528.404,405.855l0.003,12.946c0,0-0.598,2.701-0.64,3.619c-0.042,0.905,0.297,3.612,0.297,3.612
									c1.102,0.888,4.695,1.318,6.539,0.879l0.364-0.281c0,0,0.343,0.223,2.877,0.942c2.586,0.732,10.336,1.25,11.528,0.359
									c0,0,1.151-3.82-2.024-4.767c-7.95-2.367-9.032-4.573-9.49-7.068c-0.576-3.144-1.04-10.959-1.04-10.959L528.404,405.855z"/>
							</defs>
							<clipPath id="SVGID_32_">
								<use xlink:href="#SVGID_31_"  overflow="visible"/>
							</clipPath>
							<path clip-path="url(#SVGID_32_)" fill="#1C3742" d="M539.768,419.248c0,0-2.137-0.341-3.391,0.797
								c-1.187,1.076-2.12,1.991-3.826,1.573c-4.369-1.071-3.979-4.483-5.934-3.026l-0.435,8.938l24.339,2.258l0.399-6.771
								L539.768,419.248z"/>
						</g>
						<g>
							<defs>
								<path id="SVGID_33_" d="M528.404,405.855l0.003,12.946c0,0-0.598,2.701-0.64,3.619c-0.042,0.905,0.297,3.612,0.297,3.612
									c1.102,0.888,4.695,1.318,6.539,0.879l0.364-0.281c0,0,0.343,0.223,2.877,0.942c2.586,0.732,10.336,1.25,11.528,0.359
									c0,0,1.151-3.82-2.024-4.767c-7.95-2.367-9.032-4.573-9.49-7.068c-0.576-3.144-1.04-10.959-1.04-10.959L528.404,405.855z"/>
							</defs>
							<clipPath id="SVGID_34_">
								<use xlink:href="#SVGID_33_"  overflow="visible"/>
							</clipPath>
							<path clip-path="url(#SVGID_34_)" fill="#207089" d="M549.987,427.004c0,0-0.381,1.147-8.029,0.403
								s-8.241-2.518-14.233-2.666l0.2,2.107l22.343,3.102L549.987,427.004z"/>
						</g>
					</g>
					<path fill="#261542" d="M540.57,276.039c-6.097-11.553-24.31-7.938-24.753,5.123c-1.407,41.383,11.975,137.18,11.975,137.18
						c3.738,2.104,8.338,1.356,11.055-0.396C538.847,417.946,552.015,297.727,540.57,276.039z"/>
				</g>
				<path fill="#261542" d="M498.091,284.953c0.167,6.816,13.034,14.661,24.147,14.389c11.112-0.271,19.504-6.007,19.338-12.824
					c-0.538-22-9.653-33.768-20.768-33.494C509.696,253.294,497.543,262.532,498.091,284.953z"/>
				<g>
					<path fill="#3C8460" d="M494.921,281.882c0.098,3.993,11.963,5.733,24.902,5.417c12.938-0.316,22.624-2.433,22.525-6.426
						c-0.314-12.889-11.557-20.118-24.495-19.803C504.915,261.387,494.6,268.749,494.921,281.882z"/>
					<g>
						<path fill="#71BF9D" d="M550.681,211.773c-4.9-8.206-30.585-15.655-31.769-15.688c-8.174-0.235-26.596,11.34-28.465,15.542
							c-1.627,3.657,5.508,34.292,4.813,48.197c-0.361,7.246-1.293,12.664-1.113,19.967c0.166,6.818,48.714,6.916,48.547,0.1
							c-0.139-5.652-1.182-9.918-1.114-15.813C541.711,252.28,552.786,215.298,550.681,211.773z"/>
						<path opacity="0.3" fill="#549E7B" enable-background="new    " d="M542.692,279.889c-0.139-5.652-1.182-9.918-1.114-15.813
							c0.133-11.796,11.208-48.778,9.103-52.303c-2.116-3.545-9.852-1.084-10.883,3.042c-8.765,20.452-8.699,38.643-1.546,68.19
							C541.027,282.21,542.724,281.172,542.692,279.889z"/>
						<g>
							<circle fill="#FFFFFF" cx="517.059" cy="218.733" r="1.133"/>
							<circle fill="#FFFFFF" cx="515.543" cy="230.819" r="1.134"/>
							<circle fill="#FFFFFF" cx="514.663" cy="242.589" r="1.134"/>
							<circle fill="#FFFFFF" cx="513.794" cy="253.458" r="1.134"/>
							<circle fill="#FFFFFF" cx="513.813" cy="264.179" r="1.134"/>
							<circle fill="#FFFFFF" cx="513.506" cy="274.906" r="1.134"/>
						</g>
					</g>
				</g>
				<g>
					<g>
						<path fill="#FFFFFF" d="M525.364,243.022h-19.877c-0.428,0-0.773-0.346-0.773-0.773v-12.138c0-0.427,0.347-0.773,0.773-0.773
							h19.877c0.427,0,0.772,0.346,0.772,0.773v12.138C526.138,242.676,525.791,243.022,525.364,243.022z"/>
						<path fill="#261542" d="M511.713,240.719h-5.075c-0.344,0-0.621-0.278-0.621-0.622v-6.789c0-0.343,0.277-0.621,0.621-0.621
							h5.075c0.343,0,0.621,0.278,0.621,0.621v6.789C512.334,240.441,512.056,240.719,511.713,240.719z"/>
					</g>
					<rect x="512.679" y="229.874" fill="#3E2344" width="5.494" height="0.84"/>
					<path fill="#7C4284" d="M516.466,230.294h-2.264c-0.179,0-0.323-0.145-0.323-0.324v-2.957c0-0.179,0.146-0.324,0.323-0.324
						h2.264c0.179,0,0.324,0.145,0.324,0.324v2.957C516.79,230.149,516.645,230.294,516.466,230.294z"/>
					<g>
						<rect x="514.666" y="232.688" fill="#A1ABAD" width="9.778" height="0.921"/>
						<rect x="514.666" y="234.621" fill="#A1ABAD" width="9.778" height="0.921"/>
						<rect x="514.666" y="236.553" fill="#A1ABAD" width="9.778" height="0.921"/>
						<rect x="514.666" y="239.798" fill="#A1ABAD" width="9.778" height="0.921"/>
					</g>
				</g>
				<g>
					<path fill="#764582" d="M516.646,227.533h-2.561c-0.279,0-0.529-0.167-0.638-0.424c-3.254-7.785-8.019-24.48-5.542-27.894
						c0.123-0.169,0.605-0.565,0.521-0.374c-1.464,3.337,2.04,19.176,5.717,27.974l2.502-0.04l0.154-0.215
						c4.18-4.802,14.109-17.449,14.711-26.839c0.015-0.209,0.661,0.442,0.647,0.651c-0.616,9.621-10.56,21.825-14.787,26.685
						l-0.207,0.238C517.038,227.446,516.849,227.533,516.646,227.533z"/>
				</g>
				<g>
					<path fill="#3C8460" d="M528.502,193.306c-0.927-2.093-17.328-1.413-17.986,0.636l0.799,8.74l17.268-1.062L528.502,193.306z"/>
					<g>
						<g>
							<path fill="#FFB072" d="M524.135,181.959c0,0-0.078,5.594,1.16,10.079c1.238,4.485,4.566,10.228,4.566,10.228l-7.766,1.016
								l-5.038,7.867l-1.859-8.864l-6.032-1.872c0,0,5.495-3.795,4.96-9.945c-0.466-5.36-0.765-8.337-0.765-8.337L524.135,181.959z"
								/>
							<g>
								<path fill="#84D1AA" d="M528.502,193.306c0,0,0.512,1.706-2.689,4.843c-1,0.981-4.473,3.439-4.473,3.439l-4.73,10.185
									l1.193,0.13l4.499-9.49l5.321,7.143c2.552-3.204,4.207-6.217,4.326-8.906L528.502,193.306z"/>
								<polygon fill="#3C8460" points="527.623,209.557 522.302,202.414 517.803,211.904 523.463,206.825 								"/>
							</g>
							<g>
								<path fill="#84D1AA" d="M510.516,193.942c0.041,2.361,1.623,6.243,4.553,7.799l2.734,10.162l-1.193-0.13l-2.27-9.166
									l-3.182,7.171c-1.857-2.803-3.274-5.745-3.53-9.053L510.516,193.942z"/>
								<polygon fill="#3C8460" points="511.158,209.779 514.34,202.608 516.608,211.773 514.465,206.836 								"/>
							</g>
							<g>
								<g>
									<path fill="#FFB072" d="M508.222,181.132c1.601-1.361,1.796-5.469,0.406-7.443c0,0-1.078-1.718-3.141-0.737
										c-1.565,0.745-1.927,2.794-1.616,4.782C504.241,180.118,506.474,182.62,508.222,181.132z"/>
									<path fill="#E57E55" d="M507.611,180.215l-0.523-2.173l1.307-0.454c0,0-0.421-4.014-2.598-2.734
										C504.008,175.906,505.445,180.837,507.611,180.215z"/>
								</g>
								<g>
									<path fill="#FFB072" d="M524.135,181.959c0,0-0.342,3.769-1.733,5.754c-1.677,2.39-4.005,5.29-10.729,4.268
										c-6.723-1.022-5.282-15.29-5.282-15.29s-0.431-5.594,0.933-10.029c1.361-4.436,10.512-5.977,17.578-3.088
										c0,0,1.903,2.181,0.277,10.994c0,0,1.491-1.489,3.495-0.144c1.521,1.021,1.497,3.102,0.772,4.998
										C528.578,181.696,525.956,183.483,524.135,181.959z"/>
									<path fill="#E57930" d="M506.262,179.77c0,0-5.714,15.006,4.771,16.784c6.066,1.028,11.361-2.079,13.247-6.015
										c1.193-2.495,0.059-8.337-0.532-11.177c-0.088-0.421-0.389,0.004-0.431-0.304l-1.613,6.618c0,0-3.229-4.114-9.069-4.244
										c-5.223-0.116-6.122,3.121-6.122,3.121L506.262,179.77z"/>
									<g>
										<path fill="#FFB072" d="M517.4,183.344c-0.572,0.385-1.222,0.611-1.881,0.787c-0.663,0.168-1.351,0.236-2.035,0.245
											c-0.344-0.001-0.687-0.012-1.027-0.043c-0.34-0.021-0.672-0.038-1.01-0.093c-0.334-0.062-0.672-0.127-0.999-0.266
											c-0.318-0.136-0.677-0.29-0.886-0.639c-0.024-0.041-0.012-0.093,0.028-0.118c0.022-0.013,0.049-0.015,0.071-0.008
											l0.021,0.007c0.579,0.195,1.231,0.202,1.875,0.317c0.65,0.109,1.293,0.27,1.938,0.293
											c1.288,0.068,2.625-0.078,3.829-0.598l0.008-0.003c0.034-0.015,0.074,0.001,0.089,0.036
											C517.438,183.291,517.427,183.326,517.4,183.344z"/>
									</g>
									<path fill="#E57930" d="M528.524,163.478c-1.006-1.906-4.636-3.099-7.743-3.795c-0.053-0.27-0.116-0.543-0.205-0.82
										c-1.412-4.431-6.333-4.318-6.333-4.318v2.858c-0.749-1.173-0.749-3.368-0.749-3.368c-3.639,2.143-3.387,4.829-3.387,4.829
										l-0.805-2.073c0,0-2.55,1.981-2.579,4.794c-0.602,0.462-1.063,0.995-1.271,1.617c-1.209,3.6,0.938,13.491,0.938,13.491
										l0.465-7.128c0,0,0.306-2.335,1.177-4.134c0,0,0.784,0.914,5.463,0.914c0.193,0,0.387-0.004,0.579-0.008
										c0.101,0.005,0.17,0.008,0.17,0.008c0.021-0.003,0.041-0.008,0.063-0.011c4.369-0.111,8.327-1.066,8.327-1.066
										s0.231,2.65,0.996,5.043c0.436,1.365-0.343,9.052-0.343,9.052s0.191,0.919,0.461,0c0.492-1.682,1.445-5.668,3.392-5.49
										C527.139,173.871,530.374,166.985,528.524,163.478z"/>
									<path fill="#E57E55" d="M524.967,181.169l0.989-2.039l-1.303-0.687c0,0,1.246-3.867,3.313-2.208
										C529.664,177.6,527.152,182.182,524.967,181.169z"/>
								</g>
								<g>
									<g>
										<path fill="#3E2344" d="M516.3,176.846c-0.005,0.504,0.649,0.602,1.457,0.609c0.81,0.007,1.464-0.078,1.469-0.583
											s-0.646-0.919-1.454-0.927C516.963,175.938,516.305,176.341,516.3,176.846z"/>
										<path fill="#E57930" d="M521.703,173.176c0.025,0.074-2.31-0.675-3.043-0.649c-0.733,0.025-3.495,0.53-3.733,0.267
											c-0.239-0.264-0.441-1.189-0.441-1.189s3.766-0.454,4.548-0.274C519.814,171.511,521.479,172.542,521.703,173.176z"/>
									</g>
									<g>
										<path fill="#3E2344" d="M508.21,176.738c-0.004,0.504,0.65,0.602,1.458,0.609c0.808,0.007,1.464-0.079,1.468-0.583
											c0.005-0.504-0.646-0.919-1.454-0.926C508.873,175.83,508.215,176.233,508.21,176.738z"/>
										<path fill="#E57930" d="M507.161,173.174c-0.026,0.073,1.273-0.892,1.781-0.85c0.507,0.041,2.77,0.874,2.965,0.617
											c0.193-0.256,0.438-1.169,0.438-1.169s-3.157-0.616-3.722-0.455C508.063,171.479,507.387,172.551,507.161,173.174z"/>
									</g>
									<g>
										<path opacity="0.5" fill="#E57E55" enable-background="new    " d="M512.102,181.409c0,0,1.859,0.109,1.864-0.402
											c0.005-0.512-3.823-1.429-4.071-1.083C509.647,180.271,511.291,181.1,512.102,181.409z"/>
										<path fill="#E57E55" d="M512.496,173.671c0,0,0.328,2.373-0.028,3.184c-0.354,0.81-2.23,2.538-2.305,2.932
											c-0.073,0.395,1.8,1.551,1.938,1.622c0.14,0.071-2.761-0.652-2.591-1.558c0.171-0.905,2.571-2.995,2.691-3.436
											S512.496,173.671,512.496,173.671z"/>
									</g>
								</g>
							</g>
							<g>
								<g>
									<path opacity="0.5" fill="#A1ABAD" enable-background="new    " d="M505.332,173.979c0,0-1.009,4.318,3.288,4.318
										c4.365,0,3.261-4.456,3.261-4.456C507.165,173.217,505.332,173.979,505.332,173.979z"/>
									<path opacity="0.5" fill="#A1ABAD" enable-background="new    " d="M521.21,173.841c-4.716-0.624-6.549,0.138-6.549,0.138
										s-1.008,4.318,3.288,4.318C522.314,178.296,521.21,173.841,521.21,173.841z"/>
								</g>
								<path fill="#DD4026" d="M524.678,174.889v-0.711l-3.288-0.537l-0.149-0.02c-4.723-0.624-6.586,0.12-6.663,0.152
									l-0.106,0.044l-0.021,0.1c-1.189-0.615-2.095-0.209-2.338-0.073c-0.005-0.018-0.012-0.05-0.014-0.055l-0.036-0.147
									l-0.149-0.02c-4.721-0.623-6.586,0.121-6.664,0.152l-0.105,0.044l-0.025,0.111c-0.021,0.084-0.471,2.08,0.601,3.428
									c0.612,0.772,1.59,1.164,2.904,1.164c1.322,0,2.302-0.396,2.912-1.176c0.748-0.956,0.741-2.225,0.661-2.961
									c0.729-0.547,1.93-0.068,2.176,0.041c-0.075,0.692-0.087,1.972,0.676,2.932c0.612,0.772,1.59,1.164,2.905,1.164
									c1.321,0,2.302-0.396,2.911-1.176c0.672-0.858,0.736-1.979,0.685-2.732v0.003L524.678,174.889z M511.179,177.071
									c-0.521,0.666-1.383,1.003-2.56,1.003c-1.171,0-2.03-0.334-2.555-0.994c-0.8-1.005-0.612-2.504-0.539-2.933
									c0.449-0.139,2.315-0.597,6.169-0.105C511.781,174.519,511.979,176.05,511.179,177.071z M520.509,177.071
									c-0.521,0.666-1.383,1.003-2.56,1.003c-1.171,0-2.03-0.334-2.556-0.994c-0.799-1.005-0.612-2.504-0.538-2.933
									c0.449-0.138,2.315-0.597,6.168-0.105C521.111,174.519,521.309,176.05,520.509,177.071z"/>
							</g>
						</g>
					</g>
				</g>
				<g>
					<path fill="#71BF9D" d="M550.949,212.123c-6.54-9.009-19.872,2.392-14.667,13.4c5.257,11.115,13.131,21.083,14.665,31.313
						c1.069,7.137-15.845,34.811-15.845,34.811c-0.124,1.308,7.546,9.078,8.908,9.103c0,0,29.074-30.885,26.028-47.881
						C567.563,239.048,559.617,225.093,550.949,212.123z"/>
					<path fill="#549E7B" d="M551.904,256.837c2.258-1.992,10.473-5.384,11.166-4.513c0.552,0.693-7.521,3.535-7.521,3.535
						s10.358-3.245,10.938-1.053c0.317,1.204-6.379,0.332-13.807,2.719C552.683,257.525,550.572,258.012,551.904,256.837z"/>
					<path fill="#2B545E" d="M533.043,288.33c0,0,3.275,7.143,11.86,12.963c0,0,0.14,0.838-0.636,1.079
						c-0.772,0.241-2.575-1.271-5.981-4.621c-2.277-2.239-6.097-7.871-6.195-8.646C531.993,288.33,533.043,288.33,533.043,288.33z"
						/>
				</g>
			</g>
		</g>
		<g>
			<ellipse opacity="0.3" fill="#F7F7F7" enable-background="new    " cx="200.331" cy="428.439" rx="69.409" ry="3.976"/>
			<g>
				<g>
					<g>
						<path id="SVGID_17_" fill="#207089" d="M173.135,408.065l-0.003,13.056c0,0,0.602,2.724,0.645,3.648
							c0.042,0.913-0.299,3.644-0.299,3.644c-1.111,0.896-4.735,1.331-6.596,0.887l-0.367-0.283c0,0-0.345,0.226-2.902,0.949
							c-2.607,0.74-10.423,1.262-11.625,0.364c0,0-1.161-3.854,2.041-4.807c8.019-2.389,9.109-4.611,9.571-7.129
							c0.581-3.17,1.049-11.052,1.049-11.052L173.135,408.065z"/>
					</g>
					<g>
						<defs>
							<path id="SVGID_35_" d="M173.135,408.065l-0.003,13.056c0,0,0.602,2.724,0.645,3.648c0.042,0.913-0.299,3.644-0.299,3.644
								c-1.111,0.896-4.735,1.331-6.596,0.887l-0.367-0.283c0,0-0.345,0.226-2.902,0.949c-2.607,0.74-10.423,1.262-11.625,0.364
								c0,0-1.161-3.854,2.041-4.807c8.019-2.389,9.109-4.611,9.571-7.129c0.581-3.17,1.049-11.052,1.049-11.052L173.135,408.065z"
								/>
						</defs>
						<clipPath id="SVGID_36_">
							<use xlink:href="#SVGID_35_"  overflow="visible"/>
						</clipPath>
						<path clip-path="url(#SVGID_36_)" fill="#2E1933" d="M161.676,421.57c0,0,2.154-0.345,3.419,0.804
							c1.196,1.085,2.138,2.008,3.858,1.586c4.407-1.079,4.013-4.521,5.984-3.052l0.438,9.014l-24.544,2.276l-0.403-6.827
							L161.676,421.57z"/>
					</g>
					<g>
						<defs>
							<path id="SVGID_37_" d="M173.135,408.065l-0.003,13.056c0,0,0.602,2.724,0.645,3.648c0.042,0.913-0.299,3.644-0.299,3.644
								c-1.111,0.896-4.735,1.331-6.596,0.887l-0.367-0.283c0,0-0.345,0.226-2.902,0.949c-2.607,0.74-10.423,1.262-11.625,0.364
								c0,0-1.161-3.854,2.041-4.807c8.019-2.389,9.109-4.611,9.571-7.129c0.581-3.17,1.049-11.052,1.049-11.052L173.135,408.065z"
								/>
						</defs>
						<clipPath id="SVGID_38_">
							<use xlink:href="#SVGID_37_"  overflow="visible"/>
						</clipPath>
						<path clip-path="url(#SVGID_38_)" fill="#4C2B54" d="M151.37,429.392c0,0,0.384,1.157,8.097,0.406
							c7.713-0.75,8.311-2.537,14.353-2.688l-0.202,2.127l-22.531,3.126L151.37,429.392z"/>
					</g>
				</g>
				<g>
					<g>
						<path id="SVGID_19_" fill="#207089" d="M205.05,407.763l0.904,13.025c0,0-0.412,2.759-0.391,3.685
							c0.021,0.914,0.55,3.613,0.55,3.613c1.17,0.817,4.816,1.002,6.641,0.43l0.347-0.308c0,0,0.36,0.2,2.96,0.747
							c2.652,0.559,10.485,0.539,11.622-0.438c0,0,0.892-3.925-2.368-4.653c-8.164-1.829-9.406-3.974-10.04-6.451
							c-0.798-3.123-1.809-10.953-1.809-10.953L205.05,407.763z"/>
					</g>
					<g>
						<defs>
							<path id="SVGID_39_" d="M205.05,407.763l0.904,13.025c0,0-0.412,2.759-0.391,3.685c0.021,0.914,0.55,3.613,0.55,3.613
								c1.17,0.817,4.816,1.002,6.641,0.43l0.347-0.308c0,0,0.36,0.2,2.96,0.747c2.652,0.559,10.485,0.539,11.622-0.438
								c0,0,0.892-3.925-2.368-4.653c-8.164-1.829-9.406-3.974-10.04-6.451c-0.798-3.123-1.809-10.953-1.809-10.953L205.05,407.763z
								"/>
						</defs>
						<clipPath id="SVGID_40_">
							<use xlink:href="#SVGID_39_"  overflow="visible"/>
						</clipPath>
						<path clip-path="url(#SVGID_40_)" fill="#2E1933" d="M217.414,420.445c0,0-2.173-0.194-3.356,1.037
							c-1.119,1.166-1.994,2.15-3.739,1.85c-4.471-0.773-4.315-4.234-6.18-2.632l0.186,9.021l24.643,0.579l-0.069-6.84
							L217.414,420.445z"/>
					</g>
					<g>
						<defs>
							<path id="SVGID_41_" d="M205.05,407.763l0.904,13.025c0,0-0.412,2.759-0.391,3.685c0.021,0.914,0.55,3.613,0.55,3.613
								c1.17,0.817,4.816,1.002,6.641,0.43l0.347-0.308c0,0,0.36,0.2,2.96,0.747c2.652,0.559,10.485,0.539,11.622-0.438
								c0,0,0.892-3.925-2.368-4.653c-8.164-1.829-9.406-3.974-10.04-6.451c-0.798-3.123-1.809-10.953-1.809-10.953L205.05,407.763z
								"/>
						</defs>
						<clipPath id="SVGID_42_">
							<use xlink:href="#SVGID_41_"  overflow="visible"/>
						</clipPath>
						<path clip-path="url(#SVGID_42_)" fill="#4C2B54" d="M228.235,427.538c0,0-0.304,1.18-8.05,0.964
							c-7.746-0.217-8.466-1.959-14.504-1.692l0.348,2.107l22.692,1.564L228.235,427.538z"/>
					</g>
				</g>
				<g>
					<path fill="#2E1933" d="M195.152,221.17c3.588,7.557,27.368,36.331,36.803,40.088c14.059,5.598,37.042-3.849,46.971-7.746
						c3.786-2.175-0.241-12.633-3.622-12.145c0,0-32.554,4.675-36.104,2.688c-3.045-1.703-18.178-25.35-31.035-35.298
						C203.843,205.413,190.336,211.029,195.152,221.17z"/>
					<path fill="#FFFFFF" d="M279.236,246.454c0.593,1.988,0.575,3.886,0.058,5.057c-0.248,0.587-0.63,0.993-1.12,1.14
						c-0.675,0.201-1.446-0.123-2.166-0.813c-0.859-0.819-1.644-2.167-2.126-3.786c-0.596-1.997-0.572-3.907-0.043-5.072
						c0.25-0.578,0.626-0.972,1.116-1.119c0.185-0.055,0.372-0.07,0.569-0.049l0.009-0.003
						C276.897,241.956,278.461,243.855,279.236,246.454z"/>
					<path fill="#FFB072" d="M298.34,239.789c-0.154,0.227-0.478,0.626-0.926,1.082c0.564,0.104,0.904,0.837,0.422,1.485
						c-0.22,0.307-0.804,0.813-1.58,1.387c0.08,0.268,0.036,0.593-0.179,0.919c-2.422,3.562-13.222,7.186-16.128,6.724
						c-0.063-0.012-0.134-0.011-0.213-0.007c-0.831,0.018-2.53,0.635-3.181,0.375c-0.033-0.011-0.069-0.029-0.105-0.05
						c-0.859-0.821-1.643-2.167-2.126-3.786c-0.596-1.997-0.571-3.907-0.043-5.072c0.332-0.441,0.932-0.489,1.686-1.167l0.009-0.003
						c0.376-0.324,0.795-0.811,1.241-1.578c0.465-0.803,2.107-2.793,5.71-5.398c0.918-0.667,3.891-1.503,4.751-1.759
						c1.992-0.614,1.677,1.775,0.597,2.711c-1.541,1.315-2.321,1.568-2.814,2.279c-0.278,0.385-0.467,0.764-0.631,1.125
						c0.975-0.039,5.808-1.118,7.009-1.547c1.34-0.47,2.406-1.15,4.199-2.058c0.797-0.399,1.519,0.604,0.958,1.456
						c-0.395,0.601-2.052,2.334-4.083,3.222c-0.811,0.353-1.649,0.683-2.433,0.958c0.043,0.078,2.048-0.39,2.941-0.706
						c1.303-0.459,2.361-1.198,4.145-2.002C298.384,238.014,298.94,238.965,298.34,239.789z"/>
				</g>
				<path fill="#261542" d="M183.682,281.348c3.014-12.839,21.101-14.146,22.88-1.117c2.552,18.691,9.86,139.507,9.86,139.507
					c-3.511,2.847-8.564,1.372-11.738,0.352C204.684,420.088,175.801,314.92,183.682,281.348z"/>
				<path fill="#261542" d="M160.866,277.152c6.147-11.648,24.514-8.006,24.961,5.166c1.419,41.732-12.075,138.338-12.075,138.338
					c-3.771,2.122-8.409,1.368-11.149-0.399C162.604,420.257,149.326,299.023,160.866,277.152z"/>
				<path fill="#261542" d="M203.704,289.225c-0.168,6.875-6.949,14.785-18.157,14.512c-11.207-0.273-25.863-6.059-25.695-12.934
					c0.542-22.187,9.735-34.053,20.942-33.777C192.001,257.298,204.257,266.615,203.704,289.225z"/>
				<path fill="#3C8460" d="M206.901,283.045c-0.099,4.027-12.064,5.782-25.112,5.463c-13.048-0.318-22.815-2.453-22.717-6.48
					c0.318-12.994,11.654-20.287,24.702-19.969S207.225,269.802,206.901,283.045z"/>
				<g>
					<path fill="#EFE9DA" d="M153.282,212.345c4.943-8.275,28.231-15.787,29.424-15.821c8.244-0.237,26.021,10.952,27.907,15.189
						c1.64,3.688-4.756,35.065-4.055,49.087c0.365,7.308,1.305,12.771,1.125,20.136c-0.168,6.875-49.125,6.975-48.957,0.1
						c0.139-5.7,4.296-9.896,4.229-15.842C162.821,253.299,151.159,215.9,153.282,212.345z"/>
					<path fill="#3E2344" d="M171.302,200.105c0,0,11.631,41.432,6.853,67.615c-1.831,10.034-15.319,21.642-19.083,29.605
						c-2.297,4.86-2.584,16.293-2.584,16.293s-14.209-5.425-14.187-16.293c0.012-5.845,16.771-39.011,16.771-39.011
						s-11.471-36.746-8.672-45.619C153.199,203.825,171.302,200.105,171.302,200.105z"/>
					<path opacity="0.5" fill="#2E1933" enable-background="new    " d="M164.434,262.049c6.213-17.534,4.99-56.912-10.548-54.271
						c-1.629,1.422-2.897,3.056-3.486,4.92c-2.799,8.873,8.672,45.618,8.672,45.618s-5.104,8.408-8.49,16.98
						C155.551,270.583,162.168,268.439,164.434,262.049z"/>
					<g>
						<circle fill="#FFFFFF" cx="184.576" cy="219.364" r="1.143"/>
						<circle fill="#FFFFFF" cx="186.104" cy="231.552" r="1.143"/>
						<circle fill="#FFFFFF" cx="186.992" cy="243.42" r="1.143"/>
						<circle fill="#FFFFFF" cx="187.868" cy="254.381" r="1.143"/>
						<circle fill="#FFFFFF" cx="187.85" cy="265.193" r="1.143"/>
						<circle fill="#FFFFFF" cx="188.158" cy="276.01" r="1.143"/>
					</g>
				</g>
				<g>
					<path fill="#261542" d="M151.806,209.962c6.595-9.084,17.341,3.884,12.092,14.985c-5.3,11.209-11.948,22.524-13.496,32.841
						c-1.08,7.196,15.978,35.104,15.978,35.104c0.125,1.316-7.609,9.152-8.984,9.178c0,0-29.32-31.146-26.248-48.285
						C133.646,239.85,139.238,223.853,151.806,209.962z"/>
					<path opacity="0.5" fill="#2E1933" enable-background="new    " d="M149.437,257.789c-2.277-2.009-10.562-5.43-11.261-4.551
						c-0.556,0.699,7.583,3.563,7.583,3.563s-10.447-3.271-11.031-1.06c-0.32,1.214,6.433,0.334,13.922,2.738
						C148.651,258.482,150.78,258.975,149.437,257.789z"/>
					<path fill="#2B545E" d="M168.458,289.548c0,0-3.303,7.203-11.96,13.072c0,0-0.141,0.845,0.639,1.088
						c0.78,0.243,2.598-1.282,6.033-4.659c2.297-2.259,6.148-7.938,6.248-8.72C169.516,289.548,168.458,289.548,168.458,289.548z"/>
				</g>
				<path fill="#3E2344" d="M193.526,199.529c0,0,2.099,60.704,2.7,64.521c0.602,3.816,4.966,43.935,7.496,47.034
					c2.529,3.1,9.948-1.436,9.948-1.436l-5.815-50.561c0,0,5.709-39.805,3.557-46.893
					C209.259,205.109,193.526,199.529,193.526,199.529z"/>
				<g>
					<path fill="#AAAAAA" d="M173.32,194.39c1.461-1.939,16.113-2.289,16.887-0.261l-0.332,8.844l-17.446-0.138L173.32,194.39z"/>
					<g>
						<g>
							<path fill="#FFB072" d="M177.106,182.728c0,0,0.38,5.628-0.625,10.211s-4.047,10.545-4.047,10.545l7.874,0.604l5.497,7.65
								l1.396-9.026l5.974-2.211c0,0-5.738-3.525-5.531-9.747c0.181-5.423,0.322-8.437,0.322-8.437L177.106,182.728z"/>
							<g>
								<g>
									<path fill="#FFB072" d="M193.086,181.038c-1.685-1.285-2.104-5.411-0.811-7.474c0,0,0.994-1.788,3.124-0.911
										c1.616,0.666,2.089,2.71,1.885,4.729C197.04,179.802,194.926,182.441,193.086,181.038z"/>
									<path fill="#E57E55" d="M193.651,180.081l0.41-2.216l-1.34-0.386c0,0,0.208-4.064,2.469-2.893
										C197.048,175.548,195.866,180.591,193.651,180.081z"/>
								</g>
								<g>
									<path fill="#FFB072" d="M177.106,182.728c0,0,0.547,3.776,2.057,5.701c1.816,2.316,4.318,5.11,11.033,3.719
										c6.715-1.392,4.495-15.681,4.495-15.681s0.132-5.656-1.479-10.049c-1.61-4.393-10.907-5.452-17.868-2.163
										c0,0-1.799,2.299,0.312,11.086c0,0-1.582-1.419-3.527,0.043c-1.476,1.11-1.34,3.205-0.509,5.075
										C172.617,182.703,175.354,184.36,177.106,182.728z"/>
									<g>
										<path fill="#FD6141" d="M184.028,183.639c1.241,0.459,2.595,0.534,3.889,0.396c0.649-0.059,1.287-0.254,1.937-0.399
											c0.641-0.15,1.298-0.193,1.872-0.421l0.021-0.008c0.044-0.018,0.095,0.004,0.113,0.048
											c0.01,0.025,0.007,0.051-0.004,0.073c-0.192,0.362-0.544,0.537-0.857,0.69c-0.322,0.158-0.659,0.243-0.992,0.321
											c-0.336,0.074-0.67,0.108-1.011,0.148c-0.343,0.05-0.688,0.079-1.033,0.099c-0.69,0.028-1.385-0.003-2.063-0.137
											c-0.674-0.142-1.339-0.334-1.937-0.691c-0.032-0.02-0.043-0.062-0.023-0.094c0.017-0.029,0.052-0.041,0.083-0.029
											L184.028,183.639z"/>
									</g>
									<path fill="#201D42" d="M171.689,164.354c4.596-9.784,13.9-9.766,13.9-9.766l0.154,2.878
										c0.691-1.222,0.573-3.432,0.573-3.432c3.778,1.962,3.67,4.68,3.67,4.68l0.697-2.131c5.747,2.947,6.118,9.884,4.006,19.884
										l-0.852-7.153c0,0-0.433-2.335-1.407-4.1c0,0-0.741,0.962-5.452,1.214c-0.195,0.01-0.389,0.016-0.584,0.023
										c-0.101,0.011-0.17,0.017-0.17,0.017c-0.022-0.002-0.041-0.006-0.063-0.008c-4.406,0.124-8.444-0.625-8.444-0.625
										s-0.09,2.681-0.73,5.132c-0.365,1.398,0.833,9.098,0.833,9.098s-0.144,0.936-0.464,0.025
										c-0.586-1.667-1.216-6.333-5.227-4.707C172.129,175.384,170.016,167.985,171.689,164.354z"/>
									<path fill="#E57E55" d="M176.226,181.978l-1.106-2l1.274-0.762c0,0-1.462-3.828-3.454-2.044
										C171.304,178.636,174.079,183.115,176.226,181.978z"/>
								</g>
								<g>
									<g>
										<path fill="#3E2344" d="M184.72,177.157c0.032,0.507-0.622,0.641-1.435,0.691c-0.813,0.051-1.478,0-1.51-0.507
											c-0.031-0.508,0.602-0.961,1.415-1.012C184.003,176.278,184.688,176.649,184.72,177.157z"/>
										<path fill="#201D42" d="M179.082,173.752c0.004,0.079,2.288-0.804,3.028-0.817c0.741-0.014,3.548,0.346,3.774,0.067
											c0.226-0.279,0.382-1.222,0.382-1.222s-3.817-0.254-4.595-0.031c-0.526,0.151-1.684,0.335-2.278,0.887
											C179.109,172.9,179.066,173.472,179.082,173.752z"/>
									</g>
									<g>
										<path fill="#3E2344" d="M192.86,176.612c0.032,0.508-0.622,0.641-1.435,0.691c-0.813,0.05-1.478,0-1.51-0.507
											c-0.032-0.507,0.602-0.96,1.415-1.011C192.144,175.734,192.829,176.104,192.86,176.612z"/>
										<path fill="#201D42" d="M193.726,172.967c0.004,0.078-1.332-0.829-1.84-0.76c-0.508,0.069-2.742,1.029-2.952,0.782
											c-0.21-0.248-0.504-1.154-0.504-1.154s3.147-0.79,3.722-0.658c0.273,0.063,1.065,0.28,1.344,0.61
											C193.802,172.151,193.71,172.669,193.726,172.967z"/>
									</g>
									<g>
										<path opacity="0.5" fill="#E57E55" enable-background="new    " d="M189.193,181.525c0,0-1.866,0.211-1.898-0.304
											c-0.032-0.515,3.773-1.645,4.041-1.31C191.604,180.247,189.994,181.17,189.193,181.525z"/>
										<path fill="#E57E55" d="M188.379,173.755c0,0-0.202,2.407,0.2,3.204c0.402,0.797,2.384,2.436,2.479,2.829
											c0.095,0.393-1.729,1.658-1.865,1.737c-0.136,0.079,2.746-0.806,2.525-1.708c-0.221-0.902-2.75-2.877-2.895-3.314
											C188.679,176.065,188.379,173.755,188.379,173.755z"/>
									</g>
								</g>
							</g>
							<g>
								<g>
									<path opacity="0.5" fill="#A1ABAD" enable-background="new    " d="M195.61,173.678c0,0,1.248,4.294-3.078,4.525
										c-4.396,0.235-3.524-4.311-3.524-4.311C193.724,173.01,195.61,173.678,195.61,173.678z"/>
									<path opacity="0.5" fill="#A1ABAD" enable-background="new    " d="M179.614,174.396c4.715-0.883,6.602-0.215,6.602-0.215
										s1.248,4.294-3.078,4.525C178.742,178.941,179.614,174.396,179.614,174.396z"/>
								</g>
								<path fill="#666666" d="M179.318,175.193v-0.004c-0.012,0.761,0.113,1.886,0.836,2.714c0.656,0.753,1.665,1.098,2.996,1.027
									c1.324-0.071,2.288-0.518,2.863-1.328c0.716-1.009,0.635-2.296,0.522-2.989c0.242-0.123,1.424-0.67,2.189-0.158
									c-0.042,0.746,0.021,2.024,0.825,2.946c0.656,0.752,1.664,1.098,2.995,1.027c1.325-0.071,2.288-0.518,2.863-1.329
									c1.004-1.415,0.444-3.401,0.419-3.484l-0.032-0.111l-0.109-0.039c-0.08-0.028-2-0.676-6.718,0.206l-0.151,0.028
									l-0.029,0.151c-0.001,0.005-0.006,0.038-0.009,0.056c-0.253-0.124-1.186-0.484-2.35,0.2l-0.029-0.099l-0.109-0.039
									c-0.079-0.028-1.998-0.677-6.718,0.206l-0.15,0.028l-3.282,0.718l0.038,0.716L179.318,175.193z M189.207,174.085
									c3.853-0.703,5.757-0.342,6.217-0.227c0.098,0.428,0.366,1.928-0.385,2.982c-0.492,0.692-1.34,1.075-2.519,1.138
									c-1.185,0.063-2.07-0.23-2.631-0.872C189.028,176.123,189.145,174.57,189.207,174.085z M179.812,174.587
									c3.853-0.703,5.756-0.341,6.217-0.226c0.098,0.428,0.366,1.928-0.385,2.982c-0.492,0.692-1.339,1.075-2.519,1.138
									c-1.185,0.063-2.07-0.23-2.631-0.872C179.634,176.625,179.75,175.073,179.812,174.587z"/>
							</g>
						</g>
					</g>
					<g>
						<path fill="#EFE9DA" d="M173.32,194.39c0,0-0.423,1.745,2.97,4.732c1.061,0.934,4.689,3.222,4.689,3.222l5.313,10.001
							l-1.195,0.195l-5.042-9.314l-4.974,7.48c-1.583-2.104-4.147-7.082-4.412-9.782L173.32,194.39z"/>
						<polygon fill="#AAAAAA" points="175.081,210.707 180.055,203.227 185.097,212.541 179.123,207.732 						"/>
					</g>
					<g>
						<path fill="#EFE9DA" d="M190.207,194.128c0.086,2.379-1.565,6.828-2.903,8.032l-2.207,10.38l1.195-0.195l1.791-9.352
							l3.59,7.049c1.72-2.922,2.35-7.564,1.429-10.896L190.207,194.128z"/>
						<polygon fill="#AAAAAA" points="191.673,210.043 188.083,202.994 186.292,212.345 188.184,207.258 						"/>
					</g>
				</g>
			</g>
		</g>
		<g>
			<path fill="#FFFFFF" d="M142.924,356.539h-3.71v-3.71c0-0.845-0.684-1.527-1.527-1.527l0,0c-0.843,0-1.527,0.685-1.527,1.527
				v3.71h-3.71c-0.843,0-1.527,0.684-1.527,1.527l0,0c0,0.844,0.684,1.526,1.527,1.526h3.71v3.71c0,0.844,0.684,1.527,1.527,1.527
				l0,0c0.843,0,1.527-0.684,1.527-1.527v-3.71h3.71c0.843,0,1.527-0.684,1.527-1.526l0,0
				C144.452,357.223,143.768,356.539,142.924,356.539z"/>
			<path fill="#FFFFFF" d="M470.111,389.918h-3.71v-3.71c0-0.844-0.685-1.526-1.527-1.526l0,0c-0.843,0-1.527,0.684-1.527,1.526
				v3.71h-3.71c-0.843,0-1.526,0.684-1.526,1.527l0,0c0,0.843,0.685,1.525,1.526,1.525h3.71v3.711c0,0.844,0.686,1.527,1.527,1.527
				l0,0c0.844,0,1.527-0.685,1.527-1.527v-3.711h3.71c0.844,0,1.526-0.684,1.526-1.525l0,0
				C471.639,390.602,470.955,389.918,470.111,389.918z"/>
			<path fill="#F7B614" d="M619.827,250.29h-3.71v-3.71c0-0.843-0.685-1.527-1.527-1.527l0,0c-0.843,0-1.525,0.684-1.525,1.527v3.71
				h-3.711c-0.844,0-1.526,0.685-1.526,1.526l0,0c0,0.844,0.684,1.526,1.526,1.526h3.711v3.711c0,0.843,0.684,1.526,1.525,1.526l0,0
				c0.844,0,1.527-0.684,1.527-1.526v-3.711h3.71c0.844,0,1.526-0.684,1.526-1.526l0,0
				C621.354,250.975,620.671,250.29,619.827,250.29z"/>
			<path fill="#F7B614" d="M139.956,187.27h-3.71v-3.71c0-0.843-0.684-1.527-1.527-1.527l0,0c-0.844,0-1.527,0.684-1.527,1.527v3.71
				h-3.71c-0.844,0-1.527,0.684-1.527,1.527l0,0c0,0.844,0.684,1.527,1.527,1.527h3.71v3.71c0,0.844,0.684,1.527,1.527,1.527l0,0
				c0.843,0,1.527-0.684,1.527-1.527v-3.71h3.71c0.843,0,1.527-0.684,1.527-1.527l0,0
				C141.483,187.954,140.799,187.27,139.956,187.27z"/>
		</g>
		<g>
			<path fill="#261542" d="M314.129,86.756c5.985,0,10.844,4.859,10.844,10.843c0,5.985-4.858,10.844-10.844,10.844
				c-5.984,0-10.843-4.859-10.843-10.844C303.286,91.615,308.145,86.756,314.129,86.756z M316.826,72.171
				c-1.793-0.19-3.602-0.19-5.396,0l-0.503,7.835c-1.239,0.226-2.454,0.582-3.619,1.063l-4.659-6.319
				c-1.611,0.809-3.132,1.787-4.538,2.916l3.813,6.863c-0.921,0.86-1.75,1.816-2.47,2.851l-7.336-2.797
				c-0.918,1.552-1.669,3.197-2.241,4.907l6.918,3.712c-0.31,1.222-0.49,2.474-0.537,3.734l-7.684,1.613
				c0.067,1.802,0.324,3.592,0.768,5.339l7.827-0.617c0.4,1.196,0.925,2.346,1.567,3.432l-5.592,5.511
				c1.031,1.48,2.215,2.846,3.533,4.077l6.25-4.751c0.983,0.79,2.047,1.474,3.172,2.04l-1.725,7.659
				c1.667,0.688,3.402,1.197,5.176,1.52l2.69-7.376c1.254,0.133,2.519,0.133,3.771,0l2.69,7.376c1.773-0.323,3.509-0.832,5.176-1.52
				l-1.725-7.659c1.127-0.566,2.189-1.25,3.173-2.04l6.251,4.751c1.318-1.231,2.502-2.597,3.532-4.077l-5.593-5.511
				c0.643-1.085,1.167-2.235,1.567-3.432l7.827,0.617c0.443-1.748,0.701-3.537,0.768-5.339l-7.684-1.613
				c-0.047-1.26-0.228-2.512-0.537-3.734l6.917-3.712c-0.572-1.71-1.323-3.355-2.241-4.907L328.8,87.38
				c-0.72-1.035-1.548-1.991-2.47-2.851l3.813-6.863c-1.404-1.129-2.927-2.107-4.537-2.916l-4.659,6.319
				c-1.166-0.481-2.379-0.837-3.62-1.063L316.826,72.171z"/>
			<path fill="#9D68AA" d="M361.107,102.868c5.261,0.835,8.854,5.783,8.02,11.044c-0.834,5.261-5.783,8.854-11.044,8.02
				s-8.854-5.783-8.021-11.044C350.898,105.627,355.847,102.033,361.107,102.868z M364.152,90.101
				c-0.658-0.134-1.322-0.24-1.989-0.315l-2.487,6.698c-0.949-0.005-1.896,0.075-2.832,0.24l-3.577-6.186
				c-0.645,0.187-1.281,0.402-1.907,0.645l0.91,7.087c-0.843,0.437-1.645,0.948-2.396,1.528l-6.041-3.815
				c-0.485,0.465-0.948,0.951-1.39,1.458l4.1,5.852c-0.543,0.779-1.016,1.604-1.412,2.467l-7.123-0.571
				c-0.212,0.637-0.396,1.283-0.553,1.937l6.35,3.276c-0.118,0.942-0.153,1.893-0.104,2.84l-6.572,2.805
				c0.107,0.663,0.245,1.321,0.41,1.972l7.145-0.05c0.332,0.889,0.743,1.747,1.229,2.563l-4.515,5.538
				c0.402,0.537,0.829,1.056,1.278,1.555l6.305-3.365c0.707,0.633,1.47,1.202,2.277,1.699l-1.425,7.001
				c0.607,0.289,1.226,0.549,1.856,0.783l4.018-5.909c0.92,0.232,1.86,0.381,2.807,0.445l1.992,6.862
				c0.671-0.027,1.34-0.083,2.007-0.169l0.813-7.099c0.923-0.222,1.824-0.527,2.692-0.91l4.953,5.15
				c0.582-0.335,1.148-0.697,1.698-1.083l-2.58-6.663c0.714-0.626,1.37-1.314,1.961-2.058l6.779,2.259
				c0.359-0.567,0.693-1.151,1.001-1.748l-5.382-4.7c0.341-0.886,0.603-1.801,0.781-2.733l7.051-1.15
				c0.055-0.669,0.079-1.341,0.074-2.013l-6.95-1.661c-0.109-0.943-0.304-1.875-0.579-2.783l5.709-4.296
				c-0.263-0.618-0.554-1.224-0.87-1.816l-6.925,1.758c-0.535-0.784-1.141-1.519-1.807-2.195l3.06-6.457
				c-0.521-0.425-1.06-0.827-1.614-1.204l-5.314,4.775c-0.839-0.446-1.716-0.814-2.619-1.104L364.152,90.101z"/>
			<circle fill="#9D68AA" cx="359.742" cy="112.463" r="3.439"/>
		</g>
	</g>
</g>
</svg>
