<?xml version="1.0" encoding="utf-8"?>
<!-- Generator: Adobe Illustrator 16.0.0, SVG Export Plug-In . SVG Version: 6.00 Build 0)  -->
<!DOCTYPE svg PUBLIC "-//W3C//DTD SVG 1.1//EN" "http://www.w3.org/Graphics/SVG/1.1/DTD/svg11.dtd">
<svg version="1.1" id="Layer_1" xmlns="http://www.w3.org/2000/svg" xmlns:xlink="http://www.w3.org/1999/xlink" x="0px" y="0px"
	 width="800px" height="800px" viewBox="0 0 800 800" enable-background="new 0 0 800 800" xml:space="preserve">
<g id="BACKGROUND" display="none">
	
		<radialGradient id="SVGID_1_" cx="398.0898" cy="402.9082" r="561.082" gradientTransform="matrix(1 0 0 -1 0 801)" gradientUnits="userSpaceOnUse">
		<stop  offset="0" style="stop-color:#FFFFFF"/>
		<stop  offset="0.5267" style="stop-color:#F8F8F9"/>
		<stop  offset="1" style="stop-color:#EDEEF0"/>
	</radialGradient>
	<rect display="inline" fill="url(#SVGID_1_)" width="800" height="800"/>
</g>
<g id="OBJECTS">
	<g>
		<g>
			<g>
				<g>
					
						<radialGradient id="SVGID_2_" cx="287.353" cy="444.9004" r="388.9406" gradientTransform="matrix(1 0 0 -1 0 801)" gradientUnits="userSpaceOnUse">
						<stop  offset="0.0376" style="stop-color:#D8D9DD"/>
						<stop  offset="0.5538" style="stop-color:#EDEEF0"/>
						<stop  offset="1" style="stop-color:#F7F7F8"/>
					</radialGradient>
					<path fill="url(#SVGID_2_)" d="M532.872,482c0-34.215-12.772-65.438-33.798-89.185c-24.511-25.667-59.063-41.656-97.354-41.656
						c-74.333,0-134.593,60.256-134.593,134.588c0,34.215,12.775,65.438,33.805,89.186c24.506,25.666,59.063,41.654,97.35,41.654
						C472.612,616.588,532.872,556.332,532.872,482z"/>
				</g>
				
					<radialGradient id="SVGID_3_" cx="397.9482" cy="328.4727" r="161.1971" gradientTransform="matrix(1 0 0 -1 0 801)" gradientUnits="userSpaceOnUse">
					<stop  offset="0" style="stop-color:#828282"/>
					<stop  offset="0.3164" style="stop-color:#848484;stop-opacity:0.6836"/>
					<stop  offset="0.4929" style="stop-color:#8C8C8C;stop-opacity:0.5071"/>
					<stop  offset="0.6349" style="stop-color:#9A9A9A;stop-opacity:0.3651"/>
					<stop  offset="0.7585" style="stop-color:#ADADAE;stop-opacity:0.2415"/>
					<stop  offset="0.8702" style="stop-color:#C5C6C7;stop-opacity:0.1298"/>
					<stop  offset="0.9718" style="stop-color:#E3E4E6;stop-opacity:0.0282"/>
					<stop  offset="1" style="stop-color:#EDEEF0;stop-opacity:0"/>
				</radialGradient>
				<path fill="url(#SVGID_3_)" d="M324.351,553.407l62.714,62.714c3.697,0.307,7.438,0.467,11.22,0.467
					c74.328,0,134.587-60.256,134.587-134.588c0-2.134-0.049-4.256-0.15-6.366l-45.655-45.654L324.351,553.407z"/>
				<g>
					<g>
						<g>
							<g>
								<circle fill="#FFFFFF" cx="398.688" cy="482.442" r="102.772"/>
							</g>
						</g>
					</g>
					<g>
						
							<radialGradient id="SVGID_4_" cx="313.9829" cy="414.6953" r="296.9943" gradientTransform="matrix(1 0 0 -1 0 801)" gradientUnits="userSpaceOnUse">
							<stop  offset="0" style="stop-color:#F7F7F8"/>
							<stop  offset="0.5055" style="stop-color:#FBFBFB"/>
							<stop  offset="0.7151" style="stop-color:#FFFFFF"/>
						</radialGradient>
						<path fill="url(#SVGID_4_)" d="M501.459,482.442c0-26.125-9.75-49.968-25.807-68.101
							c-18.715-19.601-45.1-31.811-74.338-31.811c-56.76,0-102.776,46.013-102.776,102.772c0,26.126,9.754,49.972,25.813,68.104
							c18.714,19.599,45.104,31.809,74.339,31.809C455.45,585.216,501.459,539.203,501.459,482.442z"/>
					</g>
					<g>
						<g>
							<path fill="#EDEEF0" d="M491.067,437.369c5.68,12.761,8.844,26.892,8.844,41.761c0,56.76-46.011,102.774-102.771,102.774
								c-34.104,0-64.319-16.616-83.019-42.188c3.032,4.849,6.454,9.431,10.229,13.691c18.714,19.599,45.104,31.809,74.339,31.809
								c56.761,0,102.77-46.013,102.77-102.772C501.459,466.272,497.722,450.978,491.067,437.369z"/>
						</g>
					</g>
				</g>
			</g>
			<g>
				<text transform="matrix(1 0 0 1 336.7017 484.2676)" fill="#5B5B5F" font-family="'ArialMT'" font-size="24">TECH-SERIES</text>
				<text transform="matrix(1 0 0 1 351.0898 511.4199)" fill="#5B5B5F" font-family="'ArialMT'" font-size="18">CONTACTS</text>
			</g>
			<g>
				<text transform="matrix(1 0 0 1 371.772 428.7207)" fill="#5B5B5F" font-family="'ArialMT'" font-size="14.6762">MODERN</text>
				<text transform="matrix(1 0 0 1 346.9028 535.7227)" fill="#87868A" font-family="'ArialMT'" font-size="6">CONTACT US FOR SALES AND SOLUTION</text>
			</g>
		</g>
		<path fill="#EDEEF0" d="M400,323.069c42.952,0,83.334,16.727,113.706,47.099s47.099,70.754,47.099,113.706
			s-16.727,83.334-47.099,113.706S442.952,644.679,400,644.679c-42.953,0-83.334-16.727-113.706-47.099
			s-47.099-70.754-47.099-113.706s16.727-83.334,47.099-113.706S357.047,323.069,400,323.069 M400,316.019
			c-92.704,0-167.855,75.151-167.855,167.855S307.296,651.729,400,651.729s167.855-75.15,167.855-167.854
			S492.704,316.019,400,316.019L400,316.019z"/>
		<rect x="564.629" y="484.104" fill="#DFE0E3" width="67.78" height="5.495"/>
		<path fill="#DFE0E3" d="M398.688,316.023v6.166c41.68-0.293,83.451,15.416,115.183,47.147
			c31.729,31.73,47.439,73.503,47.146,115.183h6.167c0.293-43.259-16.018-86.611-48.95-119.544
			C485.298,332.04,441.946,315.729,398.688,316.023z"/>
		
			<radialGradient id="SVGID_5_" cx="566.8281" cy="313.2715" r="23.3681" gradientTransform="matrix(1 0 0 -1 0 801)" gradientUnits="userSpaceOnUse">
			<stop  offset="0" style="stop-color:#464646"/>
			<stop  offset="0.1398" style="stop-color:#595959;stop-opacity:0.8602"/>
			<stop  offset="0.4239" style="stop-color:#8B8B8B;stop-opacity:0.5761"/>
			<stop  offset="0.8231" style="stop-color:#DADADA;stop-opacity:0.1769"/>
			<stop  offset="1" style="stop-color:#FFFFFF;stop-opacity:0"/>
		</radialGradient>
		<path fill="url(#SVGID_5_)" d="M584.146,490.18L584.146,490.18l-11.071-11.055l-0.007,0.008c-2.095-2.288-5.095-3.729-8.44-3.729
			c-6.322,0-11.448,5.125-11.448,11.448c0,3.45,1.534,6.538,3.949,8.637l10.295,10.295v-0.001c2.1,2.427,5.195,3.969,8.655,3.969
			c6.323,0,11.448-5.126,11.448-11.448C587.527,495.125,586.234,492.254,584.146,490.18z"/>
		<path fill="#DFE0E3" d="M232.002,483.383h6.166c0-41.298,15.72-82.597,47.161-114.037c31.439-31.44,72.739-47.161,114.037-47.161
			v-6.166c-42.878,0-85.757,16.321-118.399,48.964C248.323,397.626,232.002,440.505,232.002,483.383z"/>
		
			<radialGradient id="SVGID_6_" cx="518.1426" cy="433.0361" r="23.3678" gradientTransform="matrix(1 0 0 -1 0 801)" gradientUnits="userSpaceOnUse">
			<stop  offset="0" style="stop-color:#464646"/>
			<stop  offset="0.1398" style="stop-color:#595959;stop-opacity:0.8602"/>
			<stop  offset="0.4239" style="stop-color:#8B8B8B;stop-opacity:0.5761"/>
			<stop  offset="0.8231" style="stop-color:#DADADA;stop-opacity:0.1769"/>
			<stop  offset="1" style="stop-color:#FFFFFF;stop-opacity:0"/>
		</radialGradient>
		<path opacity="0.6" fill="url(#SVGID_6_)" enable-background="new    " d="M535.462,370.415L535.462,370.415L524.39,359.36
			l-0.008,0.008c-2.093-2.288-5.094-3.73-8.438-3.73c-6.323,0-11.449,5.125-11.449,11.45c0,3.451,1.534,6.538,3.949,8.636
			l10.294,10.295l0.001-0.001c2.1,2.427,5.193,3.968,8.653,3.968c6.324,0,11.449-5.126,11.449-11.448
			C538.842,375.36,537.548,372.489,535.462,370.415z"/>
		
			<radialGradient id="SVGID_7_" cx="401.5635" cy="480.6797" r="23.3678" gradientTransform="matrix(1 0 0 -1 0 801)" gradientUnits="userSpaceOnUse">
			<stop  offset="0" style="stop-color:#464646"/>
			<stop  offset="0.1398" style="stop-color:#595959;stop-opacity:0.8602"/>
			<stop  offset="0.4239" style="stop-color:#8B8B8B;stop-opacity:0.5761"/>
			<stop  offset="0.8231" style="stop-color:#DADADA;stop-opacity:0.1769"/>
			<stop  offset="1" style="stop-color:#FFFFFF;stop-opacity:0"/>
		</radialGradient>
		<path opacity="0.6" fill="url(#SVGID_7_)" enable-background="new    " d="M418.883,322.771L418.883,322.771l-11.072-11.055
			l-0.008,0.008c-2.093-2.288-5.093-3.73-8.438-3.73c-6.323,0-11.449,5.125-11.449,11.45c0,3.451,1.534,6.538,3.949,8.636
			l10.295,10.295v-0.001c2.1,2.427,5.194,3.968,8.654,3.968c6.323,0,11.448-5.126,11.448-11.449
			C422.263,327.717,420.97,324.846,418.883,322.771z"/>
		
			<radialGradient id="SVGID_8_" cx="286.3335" cy="431.9023" r="23.3681" gradientTransform="matrix(1 0 0 -1 0 801)" gradientUnits="userSpaceOnUse">
			<stop  offset="0" style="stop-color:#464646"/>
			<stop  offset="0.1398" style="stop-color:#595959;stop-opacity:0.8602"/>
			<stop  offset="0.4239" style="stop-color:#8B8B8B;stop-opacity:0.5761"/>
			<stop  offset="0.8231" style="stop-color:#DADADA;stop-opacity:0.1769"/>
			<stop  offset="1" style="stop-color:#FFFFFF;stop-opacity:0"/>
		</radialGradient>
		<path opacity="0.6" fill="url(#SVGID_8_)" enable-background="new    " d="M303.652,371.549L303.652,371.549l-11.072-11.055
			l-0.008,0.008c-2.093-2.288-5.093-3.731-8.438-3.731c-6.323,0-11.449,5.125-11.449,11.45c0,3.45,1.534,6.538,3.949,8.636
			l10.294,10.294l0.001-0.001c2.099,2.427,5.194,3.969,8.654,3.969c6.324,0,11.45-5.126,11.45-11.449
			C307.033,376.494,305.739,373.623,303.652,371.549z"/>
		<g>
			
				<rect x="226.28" y="341.504" transform="matrix(-0.7071 -0.7071 0.7071 -0.7071 200.7142 771.641)" fill="#DFE0E3" width="67.779" height="5.494"/>
			<circle fill="#DFE0E3" cx="284.135" cy="368.22" r="11.449"/>
		</g>
		<circle fill="#DFE0E3" cx="564.629" cy="486.851" r="11.45"/>
		<g>
			
				<rect x="506.024" y="340.375" transform="matrix(0.7071 -0.7071 0.7071 0.7071 -84.4877 482.2719)" fill="#DFE0E3" width="67.78" height="5.495"/>
			<circle fill="#DFE0E3" cx="515.943" cy="367.087" r="11.45"/>
		</g>
		
			<radialGradient id="SVGID_9_" cx="237.9512" cy="313.2715" r="23.3678" gradientTransform="matrix(1 0 0 -1 0 801)" gradientUnits="userSpaceOnUse">
			<stop  offset="0" style="stop-color:#464646"/>
			<stop  offset="0.1398" style="stop-color:#595959;stop-opacity:0.8602"/>
			<stop  offset="0.4239" style="stop-color:#8B8B8B;stop-opacity:0.5761"/>
			<stop  offset="0.8231" style="stop-color:#DADADA;stop-opacity:0.1769"/>
			<stop  offset="1" style="stop-color:#FFFFFF;stop-opacity:0"/>
		</radialGradient>
		<path fill="url(#SVGID_9_)" d="M255.27,490.18L255.27,490.18l-11.072-11.055l-0.008,0.008c-2.093-2.288-5.093-3.729-8.439-3.729
			c-6.322,0-11.448,5.125-11.448,11.448c0,3.45,1.534,6.538,3.949,8.637l10.295,10.295v-0.001c2.099,2.427,5.194,3.969,8.654,3.969
			c6.324,0,11.449-5.126,11.449-11.448C258.65,495.125,257.357,492.254,255.27,490.18z"/>
		<rect x="167.972" y="484.104" fill="#DFE0E3" width="67.779" height="5.495"/>
		<circle fill="#DFE0E3" cx="235.751" cy="486.852" r="11.449"/>
		<g>
			<g>
				<path fill="#DFE0E3" d="M277.168,296.001c0-16.532-6.171-31.618-16.331-43.093c-11.843-12.401-28.538-20.127-47.039-20.127
					c-35.917,0-65.033,29.115-65.033,65.031c0,16.532,6.171,31.62,16.333,43.093c11.842,12.401,28.538,20.126,47.039,20.126
					C248.053,361.032,277.168,331.917,277.168,296.001z"/>
			</g>
			<path fill="#CECECE" d="M176.414,330.504l30.301,30.302c1.788,0.148,3.596,0.226,5.422,0.226
				c35.916,0,65.031-29.115,65.031-65.031c0-1.031-0.025-2.057-0.072-3.076l-22.06-22.06L176.414,330.504z"/>
			<g>
				<g>
					<g>
						<g>
							<circle fill="#395398" cx="212.333" cy="296.215" r="49.658"/>
						</g>
					</g>
				</g>
			</g>
		</g>
		<g>
			<g>
				<path fill="#DFE0E3" d="M729.433,482.968c0-16.531-6.171-31.617-16.331-43.092c-11.843-12.402-28.537-20.127-47.039-20.127
					c-35.916,0-65.032,29.114-65.032,65.03c0,16.531,6.173,31.619,16.334,43.094c11.841,12.4,28.538,20.126,47.037,20.126
					C700.315,547.999,729.433,518.884,729.433,482.968z"/>
			</g>
			<path fill="#CECECE" d="M628.678,517.471l30.303,30.304c1.786,0.146,3.595,0.226,5.423,0.226
				c35.913,0,65.029-29.115,65.029-65.031c0-1.031-0.023-2.056-0.072-3.076l-22.062-22.059L628.678,517.471z"/>
			<g>
				<g>
					
						<linearGradient id="SVGID_10_" gradientUnits="userSpaceOnUse" x1="616.2061" y1="317.1255" x2="714.2539" y2="317.1255" gradientTransform="matrix(1 0 0 -1 0 801)">
						<stop  offset="0" style="stop-color:#B81616"/>
						<stop  offset="1" style="stop-color:#9F1616"/>
					</linearGradient>
					<path display="none" fill="url(#SVGID_10_)" d="M714.254,483.183c0-12.624-4.71-24.144-12.47-32.904
						c-9.042-9.472-21.79-15.37-35.919-15.37c-27.425,0-49.659,22.231-49.659,49.658c0,12.623,4.713,24.146,12.472,32.904
						c9.042,9.472,21.793,15.37,35.919,15.37C692.021,532.841,714.254,510.608,714.254,483.183z"/>
				</g>
			</g>
		</g>
		<g>
			<g>
				<path fill="#DFE0E3" d="M651.388,295.309c0-16.532-6.173-31.617-16.334-43.092c-11.843-12.401-28.536-20.127-47.038-20.127
					c-35.918,0-65.031,29.115-65.031,65.032c0,16.53,6.171,31.618,16.332,43.092c11.843,12.401,28.538,20.127,47.039,20.127
					C622.271,360.34,651.388,331.225,651.388,295.309z"/>
			</g>
			<path fill="#CECECE" d="M550.631,329.813l30.303,30.302c1.787,0.148,3.595,0.226,5.422,0.226
				c35.916,0,65.032-29.116,65.032-65.031c0-1.031-0.024-2.056-0.073-3.075l-22.062-22.06L550.631,329.813z"/>
			<g>
				<g>
					<path fill="#32BA46" d="M636.209,295.523c0-12.624-4.713-24.144-12.471-32.905c-9.042-9.471-21.792-15.37-35.919-15.37
						c-27.428,0-49.659,22.234-49.659,49.659c0,12.624,4.713,24.144,12.471,32.905c9.043,9.47,21.793,15.369,35.92,15.369
						C613.977,345.181,636.209,322.949,636.209,295.523z"/>
				</g>
			</g>
		</g>
		<g>
			<g>
				<rect x="396.618" y="251.663" fill="#DFE0E3" width="5.496" height="67.78"/>
				<circle fill="#DFE0E3" cx="399.366" cy="319.443" r="11.45"/>
			</g>
			<g>
				<g>
					<path fill="#DFE0E3" d="M464.202,219.211c0-16.532-6.173-31.618-16.334-43.092c-11.843-12.401-28.536-20.127-47.039-20.127
						c-35.917,0-65.032,29.115-65.032,65.032c0,16.53,6.171,31.617,16.332,43.092c11.843,12.4,28.538,20.126,47.039,20.126
						C435.086,284.242,464.202,255.126,464.202,219.211z"/>
				</g>
				<path fill="#CECECE" d="M363.446,253.714l30.302,30.303c1.787,0.148,3.594,0.225,5.42,0.225
					c35.917,0,65.034-29.115,65.034-65.031c0-1.031-0.025-2.057-0.074-3.075l-22.061-22.06L363.446,253.714z"/>
				<g>
					<g>
						<g>
							<g>
								<circle fill="#7BC5F8" cx="399.365" cy="219.425" r="49.659"/>
							</g>
						</g>
					</g>
				</g>
			</g>
		</g>
		<g>
			<g>
				<path fill="#DFE0E3" d="M198.971,482.969c0-16.532-6.172-31.618-16.332-43.093c-11.842-12.401-28.538-20.128-47.039-20.128
					c-35.917,0-65.032,29.116-65.032,65.033c0,16.529,6.171,31.618,16.332,43.092C98.743,540.274,115.438,548,133.938,548
					C169.854,548,198.971,518.884,198.971,482.969z"/>
			</g>
			<path fill="#CECECE" d="M98.216,517.472l30.301,30.304c1.788,0.146,3.595,0.226,5.421,0.226
				c35.916,0,65.032-29.116,65.032-65.031c0-1.03-0.025-2.057-0.072-3.075l-22.061-22.061L98.216,517.472z"/>
			<g>
				<g>
					
						<linearGradient id="SVGID_11_" gradientUnits="userSpaceOnUse" x1="65.7988" y1="240.8955" x2="216.4952" y2="407.4545" gradientTransform="matrix(1 0 0 -1 0 801)">
						<stop  offset="0" style="stop-color:#F9ED32"/>
						<stop  offset="0.0479" style="stop-color:#F8E236"/>
						<stop  offset="0.1329" style="stop-color:#F7C441"/>
						<stop  offset="0.245" style="stop-color:#F49354"/>
						<stop  offset="0.3784" style="stop-color:#F0506D"/>
						<stop  offset="0.4486" style="stop-color:#EE2A7B"/>
						<stop  offset="0.5443" style="stop-color:#BD2A96"/>
						<stop  offset="0.71" style="stop-color:#6D2AC3"/>
						<stop  offset="0.8465" style="stop-color:#322AE3"/>
						<stop  offset="0.9467" style="stop-color:#0E2AF7"/>
						<stop  offset="1" style="stop-color:#002AFF"/>
					</linearGradient>
					<path fill="url(#SVGID_11_)" d="M183.793,483.183c0-12.624-4.713-24.145-12.471-32.904c-9.043-9.472-21.792-15.37-35.919-15.37
						c-27.426,0-49.659,22.232-49.659,49.659c0,12.624,4.713,24.144,12.472,32.904c9.042,9.47,21.791,15.368,35.919,15.368
						C161.561,532.84,183.793,510.608,183.793,483.183z"/>
				</g>
			</g>
		</g>
		<g>
			<text transform="matrix(1 0 0 1 74.123 388.625)" fill="#5B5B5F" font-family="'ArialMT'" font-size="24.2854">INSTAGRAM</text>
		</g>
		<g>
			<text transform="matrix(1 0 0 1 153.8286 201.2959)" fill="#5B5B5F" font-family="'ArialMT'" font-size="24.2854">FACEBOOK</text>
		</g>
		<g>
			<text transform="matrix(1 0 0 1 535.1914 201.2959)" fill="#5B5B5F" font-family="'ArialMT'" font-size="24.2854">WHATSAPP</text>
		</g>
		<g>
			<text transform="matrix(1 0 0 1 361.8496 123.5898)" fill="#5B5B5F" font-family="'ArialMT'" font-size="24.2854">TWITTER</text>
		</g>
		<g>
		</g>
		<g>
			<path display="none" fill="#F6F6F7" d="M696.945,495.254c0,6.648-5.391,12.037-12.036,12.037h-36.816
				c-6.647,0-12.037-5.389-12.037-12.037v-21.471c0-6.648,5.39-12.037,12.037-12.037h36.816c6.646,0,12.036,5.389,12.036,12.037
				V495.254z"/>
			<g display="none">
				<g display="inline">
					<g>
						
							<linearGradient id="SVGID_12_" gradientUnits="userSpaceOnUse" x1="661.1416" y1="316.4814" x2="676.4785" y2="316.4814" gradientTransform="matrix(1 0 0 -1 0 801)">
							<stop  offset="0" style="stop-color:#B81616"/>
							<stop  offset="1" style="stop-color:#9F1616"/>
						</linearGradient>
						<polygon fill="url(#SVGID_12_)" points="661.142,475.663 676.479,484.519 661.142,493.374 						"/>
					</g>
				</g>
				
					<linearGradient id="SVGID_13_" gradientUnits="userSpaceOnUse" x1="661.1416" y1="320.3726" x2="676.4785" y2="320.3726" gradientTransform="matrix(1 0 0 -1 0 801)">
					<stop  offset="0" style="stop-color:#B81616"/>
					<stop  offset="1" style="stop-color:#9F1616"/>
				</linearGradient>
				<polygon display="inline" fill="url(#SVGID_13_)" points="661.142,475.663 674.621,485.592 676.479,484.519 				"/>
			</g>
		</g>
		<g>
			<g>
				<path fill="#FFFFFF" d="M147.483,515.308h-25.428c-11.285,0-20.467-9.182-20.467-20.467v-22.407
					c0-11.284,9.182-20.467,20.467-20.467h25.428c11.285,0,20.466,9.183,20.466,20.467v22.407
					C167.949,506.126,158.768,515.308,147.483,515.308z M122.055,456.516c-8.777,0-15.918,7.142-15.918,15.918v22.407
					c0,8.777,7.141,15.918,15.918,15.918h25.428c8.777,0,15.918-7.141,15.918-15.918v-22.407c0-8.776-7.141-15.918-15.918-15.918
					H122.055z"/>
			</g>
			<g>
				<path fill="#FFFFFF" d="M134.769,501.855c-10.046,0-18.218-8.173-18.218-18.219s8.171-18.219,18.218-18.219
					c10.046,0,18.218,8.173,18.218,18.219S144.815,501.855,134.769,501.855z M134.769,469.968c-7.538,0-13.67,6.131-13.67,13.67
					c0,7.538,6.132,13.67,13.67,13.67s13.67-6.132,13.67-13.67C148.439,476.099,142.307,469.968,134.769,469.968z"/>
			</g>
			<g>
				<circle fill="#FFFFFF" cx="152.708" cy="465.979" r="3.78"/>
			</g>
		</g>
		<g>
			<path fill="#FFFFFF" d="M427.253,200.15L427.253,200.15L427.253,200.15z"/>
			<path fill="#FFFFFF" d="M425.061,205.839c-1.212,0.335-2.166,0.282-2.166,0.282l0.039-0.23c1.129-0.903,3.975-3.673,4.351-4.97
				c0.163-0.56-0.03-0.753-0.031-0.771l-3.634,1.543l-3.041,1.373l0,0c-2.1-2.222-5.277-3.639-8.83-3.639
				c-6.321,0-11.448,4.479-11.448,10.005c0,1.01,0.151,2.854,0.468,3.774c0,0.289,0.012-0.291,0,0
				c-4.07-0.112-9.288-1.782-13.936-4.136c-9.167-4.644-9.74-7.859-9.74-7.859c-1.438,1.529-2.183,6.591-0.723,10.559
				c0.935,2.541,4.146,4.821,4.146,4.821l0,0c0,0-1.436,0.027-2.939-0.482c-1.505-0.509-2.073-1.013-2.073-1.013
				c-0.895,2.182,0.9,6.077,4.002,8.871c1.808,1.63,5.109,2.652,5.109,2.652l-5.159,0.145c-0.29,5.015,10.515,7.993,10.515,7.993
				l0,0c-3.167,2.435-6.841,3.918-10.779,3.918c-2.042,0-4.015-0.305-5.887-0.864c5.204,4.288,11.892,7.247,19.163,6.865
				c19.292-1.013,30.184-17.597,30.702-33.884l0.024,0.034c0,0,0.903-0.451,2.837-2.384c1.932-1.933,3.134-4.194,3.134-4.194
				S426.274,205.504,425.061,205.839z"/>
			<path fill="#FFFFFF" d="M427.253,200.15C427.267,200.458,427.253,200.181,427.253,200.15L427.253,200.15z"/>
		</g>
		<g>
			<g>
				<path fill="#FFFFFF" d="M587.572,324.786c-5.352,0-10.601-1.416-15.248-4.104l-11.911,4.104l2.448-12.614
					c-3.838-5.259-5.86-11.444-5.86-17.958c0-16.857,13.714-30.571,30.571-30.571s30.572,13.714,30.572,30.571
					C618.145,311.072,604.431,324.786,587.572,324.786z M572.874,315.682l0.92,0.578c4.153,2.603,8.917,3.979,13.778,3.979
					c14.35,0,26.022-11.674,26.022-26.024c0-14.349-11.674-26.022-26.022-26.022c-14.35,0-26.022,11.673-26.022,26.022
					c0,5.838,1.912,11.37,5.527,15.996l0.639,0.817l-1.338,6.892L572.874,315.682z"/>
			</g>
			<path fill="#FFFFFF" d="M572.139,282.469c0,0,1.793-3.136,3.256-3.315c1.463-0.18,3.346-0.18,3.854,0.776
				c0.507,0.956,2.777,6.511,2.777,6.511s0.388,0.956-0.211,1.881c-0.597,0.926-1.938,2.27-1.938,2.27s-0.747,0.956,0,1.971
				c0.746,1.015,1.904,2.882,4.301,5.276c2.393,2.395,6.986,4.102,6.986,4.102s0.658,0.089,1.076-0.33
				c0.418-0.418,2.688-3.255,2.688-3.255s0.73-0.94,1.941-0.387c1.209,0.552,6.448,3.165,6.448,3.165s0.612,0.224,0.612,1.149
				c0,0.926-0.374,3.191-1.141,3.957c-0.767,0.767-3.005,3.126-6.37,3.126s-11.378-2.738-15.648-7.007
				c-4.271-4.272-8.063-8.603-8.958-12.543C570.915,285.874,571.034,284.093,572.139,282.469z"/>
		</g>
		<g>
			<path fill="#FFFFFF" d="M215.252,334.62v-32.725h10.985l1.645-12.754h-12.629v-8.144c0-3.691,1.024-6.208,6.32-6.208l6.753-0.003
				v-11.407c-1.169-0.155-5.177-0.502-9.842-0.502c-9.736,0-16.402,5.944-16.402,16.858v9.405H191.07v12.754h11.012v32.725
				L215.252,334.62L215.252,334.62z"/>
		</g>
	</g>
	<rect x="285.333" y="525.667" fill="none" width="11.938" height="44.95"/>
</g>
</svg>
