<?xml version="1.0" encoding="utf-8"?>
<!-- Generator: Adobe Illustrator 16.0.0, SVG Export Plug-In . SVG Version: 6.00 Build 0)  -->
<!DOCTYPE svg PUBLIC "-//W3C//DTD SVG 1.1//EN" "http://www.w3.org/Graphics/SVG/1.1/DTD/svg11.dtd">
<svg version="1.1" id="OBJECTS" xmlns="http://www.w3.org/2000/svg" xmlns:xlink="http://www.w3.org/1999/xlink" x="0px" y="0px"
	 width="750px" height="500px" viewBox="0 0 750 500" enable-background="new 0 0 750 500" xml:space="preserve">
<g>
	<path fill="#8B77E6" d="M627.76,174.539c0-0.387,0.316-0.705,0.711-0.705c0.396,0,0.713,0.318,0.713,0.705v3.194
		c0,0.395-0.316,0.712-0.713,0.712c-0.395,0-0.711-0.317-0.711-0.712V174.539z M622.926,177.132c-0.277-0.274-0.277-0.722,0-1.005
		c0.273-0.275,0.729-0.275,1.004,0l2.258,2.259c0.275,0.283,0.275,0.729,0,1.004c-0.285,0.275-0.73,0.275-1.004,0L622.926,177.132z
		 M621.336,182.387c-0.396,0-0.713-0.317-0.713-0.712c0-0.386,0.316-0.704,0.713-0.704h3.193c0.387,0,0.705,0.317,0.705,0.704
		c0,0.396-0.318,0.712-0.705,0.712H621.336z M623.93,187.221c-0.275,0.284-0.73,0.284-1.004,0c-0.277-0.274-0.277-0.721,0-0.996
		l2.258-2.258c0.273-0.284,0.719-0.284,1.004,0c0.275,0.275,0.275,0.721,0,1.004L623.93,187.221z M629.184,188.81
		c0,0.395-0.316,0.713-0.713,0.713c-0.395,0-0.711-0.319-0.711-0.713v-3.186c0-0.395,0.316-0.712,0.711-0.712
		c0.396,0,0.713,0.317,0.713,0.712V188.81z M634.018,186.225c0.275,0.275,0.275,0.722,0,0.996c-0.273,0.284-0.729,0.284-1.004,0
		l-2.258-2.249c-0.275-0.284-0.275-0.729,0-1.004c0.275-0.284,0.73-0.284,1.004,0L634.018,186.225z M635.607,180.971
		c0.395,0,0.711,0.317,0.711,0.704c0,0.396-0.316,0.712-0.711,0.712h-3.195c-0.385,0-0.703-0.317-0.703-0.712
		c0-0.386,0.318-0.704,0.703-0.704H635.607z M633.014,176.127c0.275-0.275,0.73-0.275,1.004,0c0.275,0.283,0.275,0.73,0,1.005
		l-2.258,2.258c-0.273,0.275-0.729,0.275-1.004,0s-0.275-0.721,0-1.004L633.014,176.127z"/>
	<path fill-rule="evenodd" clip-rule="evenodd" fill="#D1D2FD" d="M169.375,55.222c-43.536,0-79.146,35.619-79.146,79.155l0,0
		c0,43.528,35.611,79.147,79.146,79.147l0,0c8.742,0,15.887,7.153,15.887,15.885l0,0c0,8.742-7.145,15.885-15.887,15.885H127.96
		c-21.235,0-38.616,17.372-38.616,38.618l0,0c0,21.234,17.38,38.605,38.616,38.605c18.368,0,33.395,15.029,33.395,33.396l0,0l0,0
		c0,33.514,27.418,60.934,60.925,60.934h18.222l0,0h268.336h71.125c43.527,0,79.148-35.619,79.148-79.156l0,0
		c0-43.527-35.621-79.146-79.148-79.146h-55.816c-8.73,0-15.885-7.152-15.885-15.885l0,0c0-8.742,7.154-15.886,15.885-15.886h14.18
		c21.234,0,38.613-17.372,38.613-38.616l0,0c0-21.209-17.336-38.573-38.547-38.607c-0.016,0-4.076,0-4.094,0
		c-18.369,0-33.396-15.026-33.396-33.395l0,0l0,0c0-33.515-27.418-60.934-60.934-60.934
		C380.504,55.222,228.84,55.222,169.375,55.222L169.375,55.222z"/>
	<path fill-rule="evenodd" clip-rule="evenodd" fill="#D1D2FD" d="M628.471,227.778c21.125,0,38.256-17.123,38.256-38.254
		c0-21.125-17.131-38.255-38.256-38.255c-21.123,0-38.254,17.131-38.254,38.255C590.217,210.655,607.348,227.778,628.471,227.778
		L628.471,227.778z"/>
	<g>
		<rect x="184.12" y="98.364" fill-rule="evenodd" clip-rule="evenodd" fill="#BBBBF6" width="37.061" height="11.231"/>
		<rect x="129.076" y="111.845" fill-rule="evenodd" clip-rule="evenodd" fill="#BBBBF6" width="37.07" height="11.232"/>
		<rect x="167.907" y="111.845" fill-rule="evenodd" clip-rule="evenodd" fill="#BBBBF6" width="37.062" height="11.232"/>
		<rect x="145.289" y="125.318" fill-rule="evenodd" clip-rule="evenodd" fill="#BBBBF6" width="37.062" height="11.232"/>
		<rect x="129.076" y="138.799" fill-rule="evenodd" clip-rule="evenodd" fill="#BBBBF6" width="37.07" height="11.232"/>
		<rect x="167.907" y="138.799" fill-rule="evenodd" clip-rule="evenodd" fill="#BBBBF6" width="37.062" height="11.232"/>
	</g>
	<rect x="208.154" y="344.861" fill-rule="evenodd" clip-rule="evenodd" fill="#BBBBF6" width="37.07" height="11.225"/>
	<rect x="246.985" y="344.861" fill-rule="evenodd" clip-rule="evenodd" fill="#BBBBF6" width="37.069" height="11.225"/>
	<rect x="191.951" y="358.336" fill-rule="evenodd" clip-rule="evenodd" fill="#BBBBF6" width="37.062" height="11.23"/>
	<rect x="230.781" y="358.336" fill-rule="evenodd" clip-rule="evenodd" fill="#BBBBF6" width="37.062" height="11.23"/>
	<rect x="246.985" y="371.816" fill-rule="evenodd" clip-rule="evenodd" fill="#BBBBF6" width="37.069" height="11.232"/>
	<rect x="191.951" y="385.289" fill-rule="evenodd" clip-rule="evenodd" fill="#BBBBF6" width="37.062" height="11.232"/>
	<rect x="230.781" y="385.289" fill-rule="evenodd" clip-rule="evenodd" fill="#BBBBF6" width="37.062" height="11.232"/>
	<g>
		<path fill-rule="evenodd" clip-rule="evenodd" fill="#BBBBF6" d="M271.132,89.321h163.153c4.164,0,7.564,3.409,7.564,7.565
			v232.717h5.805c2.791,0,5.076,2.293,5.076,5.084v20.779c0,2.791-2.285,5.076-5.076,5.076H257.761
			c-2.791,0-5.075-2.285-5.075-5.076v-20.779c0-2.791,2.284-5.084,5.075-5.084h5.805V96.886
			C263.566,92.73,266.975,89.321,271.132,89.321L271.132,89.321z"/>
		<path fill-rule="evenodd" clip-rule="evenodd" fill="#F4F5F9" d="M266.975,87.569h163.154c4.164,0,7.564,3.401,7.564,7.557
			v236.323c0,4.156-3.4,7.557-7.564,7.557H266.975c-4.164,0-7.565-3.4-7.565-7.557V95.126
			C259.41,90.97,262.811,87.569,266.975,87.569L266.975,87.569z"/>
		<rect x="273.236" y="219.063" fill-rule="evenodd" clip-rule="evenodd" fill="#645193" width="150.633" height="98.613"/>
		<g>
			<rect x="273.236" y="101.386" fill-rule="evenodd" clip-rule="evenodd" fill="#E6E6F9" width="150.633" height="120.234"/>
			<path fill-rule="evenodd" clip-rule="evenodd" fill="#7060A0" d="M288.091,116.241v37.835h53.033v-37.835H288.091z
				 M288.091,168.931v37.834h53.033v-37.834H288.091z M355.979,206.766h53.034v-37.834h-53.034V206.766z M409.014,154.076v-37.835
				h-53.034v37.835H409.014z"/>
			<path fill-rule="evenodd" clip-rule="evenodd" fill="#BBBBF6" d="M403.002,144.759l-9.316,9.317h-24.662l31.531-31.532h2.447
				V144.759z M379.748,122.544h10.684l-31.532,31.532h-2.92v-7.763L379.748,122.544z M341.124,200.463h-18.488l18.488-18.488
				V200.463z M312.512,200.463H301.83l31.532-31.532h7.763v2.92L312.512,200.463z M378.83,168.931l-22.851,22.85v-22.85H378.83z"/>
		</g>
		<path fill-rule="evenodd" clip-rule="evenodd" fill="#DEDFFD" d="M253.605,327.852H443.5c2.789,0,5.072,2.283,5.072,5.074v20.781
			c0,2.791-2.283,5.084-5.072,5.084H253.605c-2.791,0-5.075-2.293-5.075-5.084v-20.781
			C248.53,330.135,250.814,327.852,253.605,327.852L253.605,327.852z"/>
		<g>
			<path fill-rule="evenodd" clip-rule="evenodd" fill="#443572" d="M353.738,231.522l-1.966,0.206l-1.211-0.042l-1.21-0.052
				l-1.94-0.36l-11.095-11.352l-25.503,11.232c0.781,40.083-3.409,58.89-8.33,86.522h77.48c0.104-11.902,4.904-29.531,5.908-39.096
				l4.363-44.302l-24.543-13.206L353.738,231.522z"/>
			<path fill-rule="evenodd" clip-rule="evenodd" fill="#31275B" d="M358.427,317.676h13.988c3.031-2.508,5.985-4.723,7.874-5.6
				c1.109-11.326,4.723-25.34,5.582-33.496l0.121-1.256c-0.311-3.057-0.654-6.354-1.033-9.908
				c-1.406-13.146,1.65-21.905,4.682-27.118l0.594-6.02l-24.543-13.206l-3.864,3.383l-1.331,6.337c0,0,13.267,10.235,14.874,15.834
				c1.597,5.598-4.002,44.129-7.995,60.76C366.396,311.459,362.995,314.859,358.427,317.676L358.427,317.676z"/>
			<path fill-rule="evenodd" clip-rule="evenodd" fill="#31275B" d="M310.837,232.767c0.404,24.628-1.099,41.149-3.486,56.847l0,0
				c0,0,13.018-48.689,11.575-50.02C317.801,238.554,316.394,237.387,310.837,232.767L310.837,232.767z"/>
			<path fill-rule="evenodd" clip-rule="evenodd" fill="#B1AEC1" d="M364.583,218.229c-8.921-4.284-17.706-4.628-26.938-1.065
				l1.409,4.259l23.794,0.937L364.583,218.229z"/>
			<path fill-rule="evenodd" clip-rule="evenodd" fill="#31275B" d="M353.738,231.522l-1.966,0.206l-2.422-0.095l-1.94-0.36
				l-7.454-7.626l-1.167,0.31l-2.611,3.169c0,0,5.135,13.301,5.445,13.756c0.317,0.455,0.892,0.703,1.786-0.292
				c0.884-1.005,3.684-4.268,3.684-4.268s0.808-0.782,1.134,0.155c0.327,0.926,4.414-1.434,4.414-1.434l0.25,0.893
				c0,0,0.635-0.712,1.202,0.267c0.559,0.979,3.35,5.211,3.547,5.401c0.197,0.197,1.073,0.842,1.751-0.42
				c0.61-1.16,7.926-15.964,9.196-18.548l-2.894-1.563L353.738,231.522z"/>
			<path fill-rule="evenodd" clip-rule="evenodd" fill="#31275B" d="M353.738,231.522l-1.966,0.206l-2.422-0.095l-1.94-0.36
				l-0.739-0.755l-1.743,2.747c0,0,3.589,1.323,3.461,4.508l-7.007,79.903h3.864l7.007-79.748c0.275-3.177,3.804-4.225,3.804-4.225
				l-1.52-2.877L353.738,231.522z"/>
			<path fill-rule="evenodd" clip-rule="evenodd" fill="#E76D60" d="M351.867,198.591L351.867,198.591
				c5.616,0.223,10.038,5.006,9.815,10.622l-0.533,13.517c-0.223,5.616-4.998,10.03-10.622,9.815l0,0
				c-5.616-0.223-10.03-5.006-9.815-10.622l0.533-13.517C341.468,202.791,346.25,198.367,351.867,198.591L351.867,198.591z"/>
			<path fill-rule="evenodd" clip-rule="evenodd" fill="#31275B" d="M348.234,230.362l1.177-0.145c0,0,0.223,0.256,0.241,0.678
				c0.017,0.42-0.009,1.666-0.009,1.666c-0.438,0.137-2.748,0.516-2.662,0.189C346.998,232.672,348.234,230.362,348.234,230.362
				L348.234,230.362z"/>
			<path fill-rule="evenodd" clip-rule="evenodd" fill="#31275B" d="M352.991,230.551l-1.159-0.24c0,0-0.241,0.24-0.292,0.661
				c-0.051,0.42-0.129,1.657-0.129,1.657c0.421,0.352,2.706,0.73,2.645,0.403C354.039,232.956,352.991,230.551,352.991,230.551
				L352.991,230.551z"/>
			<path fill-rule="evenodd" clip-rule="evenodd" fill="#FFFFFF" d="M364.583,218.229c0.129,0.12,1.478,2.713,2.182,3.967
				c0,0,0.644,1.03,0.077,2.696c-0.566,1.675-7.685,15.267-7.685,15.267s-0.499,0.723-1.22-0.025
				c-0.73-0.746-6.105-9.823-6.105-9.823l11.31-11.026C363.674,218.66,364.464,218.109,364.583,218.229L364.583,218.229z"/>
			<path fill-rule="evenodd" clip-rule="evenodd" fill="#FFFFFF" d="M337.646,217.165c-0.094,0.042-1.691,2.593-2.49,3.787
				c0,0-0.721,0.979-0.283,2.688c0.438,1.708,6.458,15.826,6.458,15.826s0.438,0.747,1.219,0.06
				c0.782-0.688,6.861-9.308,6.861-9.308l-10.408-11.885C338.308,217.448,337.732,217.122,337.646,217.165L337.646,217.165z"/>
			<path fill-rule="evenodd" clip-rule="evenodd" fill="#E76D60" d="M331.662,185.839c-0.155,0-0.31,0-0.464,0.008h-0.009l0,0
				c-2.833,0.181-5.272,2.293-5.753,5.213c-0.567,3.4,1.735,6.603,5.135,7.169c3.4,0.559,6.604-1.743,7.17-5.143
				c0.318-1.975-0.318-3.882-1.58-5.247c-0.111,1.846-0.721,4.053-3.083,3.941l0.583-3.546
				C333.902,186.801,332.649,185.942,331.662,185.839L331.662,185.839z"/>
			<path fill-rule="evenodd" clip-rule="evenodd" fill="#E76D60" d="M376.193,192.305c0.146,0.043,0.293,0.096,0.438,0.146h0.01l0,0
				c2.67,0.979,4.404,3.693,4.035,6.638c-0.43,3.409-3.547,5.831-6.964,5.401c-3.418-0.429-5.839-3.546-5.41-6.963
				c0.249-1.984,1.408-3.633,3.005-4.586c-0.42,1.804-0.463,4.097,1.829,4.663l0.456-3.573
				C373.772,192.588,375.215,192.125,376.193,192.305L376.193,192.305z"/>
			<path fill-rule="evenodd" clip-rule="evenodd" fill="#FCB187" d="M358.401,158.249L358.401,158.249
				c-11.618-1.683-22.506,6.44-24.189,18.059l-2.791,19.217c-1.692,11.619,6.44,22.507,18.059,24.19l0,0
				c11.618,1.691,22.498-6.44,24.189-18.059l2.791-19.209C378.143,170.829,370.02,159.941,358.401,158.249L358.401,158.249z"/>
			<path fill-rule="evenodd" clip-rule="evenodd" fill="#F49677" d="M346.5,219.063c0.961,0.284,1.958,0.506,2.98,0.653l0,0
				c11.618,1.691,22.498-6.44,24.189-18.059l2.791-19.209c0.508-3.478,0.129-6.887-0.953-10.004
				c-8.535-2.542-15.808-4.585-15.808-4.585s-26.912-0.026-24.036,7.41l0.765,1.237c0,0,2.318-2.112,6.432-1.116
				c4.122,1.004,17.792,4.56,22.309,6.233c4.516,1.684,5.719,5.042,5.041,9.601c-0.687,4.551-0.206,6.354,0.918,7.11
				C371.127,198.333,369.393,219.063,346.5,219.063L346.5,219.063z"/>
			<path fill-rule="evenodd" clip-rule="evenodd" fill="#FFFFFF" d="M346.267,203.545c-0.557,2.998,1.426,5.883,4.423,6.44
				c3.006,0.558,5.882-1.424,6.44-4.422h-0.009c0.095-0.515-0.249-1.021-0.764-1.115l-8.965-1.667
				c-0.515-0.094-1.021,0.25-1.116,0.764H346.267z"/>
			<path fill-rule="evenodd" clip-rule="evenodd" fill="#FFFFFF" d="M347.504,208.148c0.798,0.928,1.898,1.598,3.186,1.837
				c1.056,0.198,2.095,0.078,3.022-0.284c-0.206-1.192-1.271-2.258-2.73-2.583C349.591,206.808,348.234,207.247,347.504,208.148
				L347.504,208.148z"/>
			<path fill-rule="evenodd" clip-rule="evenodd" fill="#FFFFFF" d="M356.478,204.481l-8.433-1.563
				c-0.309,0.902-0.051,1.924,0.542,2.25c0.712,0.386,6.844,1.365,7.368,0.962C356.203,205.933,356.375,205.195,356.478,204.481
				L356.478,204.481z"/>
			<path fill-rule="evenodd" clip-rule="evenodd" fill="#E76D60" d="M364.369,201.374c-1.528-0.25-2.971,0.79-3.229,2.318
				c-0.25,1.529,0.79,2.972,2.318,3.229c1.529,0.25,2.971-0.79,3.22-2.318C366.937,203.073,365.898,201.631,364.369,201.374
				L364.369,201.374z"/>
			<path fill-rule="evenodd" clip-rule="evenodd" fill="#E76D60" d="M340.54,197.449c-1.528-0.25-2.971,0.79-3.229,2.319
				c-0.249,1.528,0.781,2.971,2.318,3.229c1.529,0.249,2.971-0.791,3.22-2.318C343.108,199.149,342.069,197.707,340.54,197.449
				L340.54,197.449z"/>
			<path fill-rule="evenodd" clip-rule="evenodd" fill="#31275B" d="M344.361,195.002c0.068-0.524-0.06-1.048-0.377-1.469
				c-0.31-0.42-0.773-0.695-1.297-0.772c-0.523-0.077-1.048,0.06-1.468,0.369c-0.421,0.317-0.696,0.782-0.773,1.306
				c-0.06,0.412-0.446,0.695-0.858,0.635c-0.412-0.059-0.705-0.446-0.644-0.858c0.137-0.918,0.626-1.744,1.365-2.302
				c0.747-0.549,1.674-0.79,2.593-0.651c0.928,0.128,1.744,0.618,2.301,1.365c0.559,0.748,0.791,1.674,0.662,2.593
				c-0.06,0.412-0.446,0.704-0.867,0.645C344.585,195.8,344.302,195.414,344.361,195.002L344.361,195.002z M366.121,198.161
				c0.078-0.523-0.051-1.047-0.369-1.468c-0.318-0.42-0.782-0.695-1.296-0.773c-0.524-0.077-1.048,0.061-1.469,0.37
				c-0.421,0.317-0.696,0.781-0.773,1.306c-0.06,0.412-0.446,0.704-0.859,0.644c-0.42-0.06-0.704-0.447-0.644-0.868
				c0.129-0.918,0.619-1.743,1.366-2.301c0.747-0.55,1.674-0.79,2.593-0.653c0.919,0.13,1.744,0.619,2.302,1.366
				s0.79,1.674,0.652,2.593c-0.06,0.42-0.446,0.704-0.858,0.643C366.353,198.96,366.061,198.574,366.121,198.161L366.121,198.161z
				 M367.778,191.351c-1.494-0.996-3.443-1.494-5.152-0.771c-0.386,0.163-0.833-0.026-0.996-0.413
				c-0.163-0.378,0.026-0.823,0.413-0.987c2.113-0.884,4.757-0.387,6.595,0.928c0.344,0.24,0.429,0.712,0.189,1.056
				C368.585,191.506,368.113,191.592,367.778,191.351L367.778,191.351z M340.807,187.437c-0.404,0.128-0.833-0.086-0.962-0.481
				c-0.129-0.395,0.086-0.825,0.481-0.953c2.138-0.739,4.809-0.473,6.595,0.979c0.318,0.267,0.37,0.748,0.103,1.065
				c-0.258,0.327-0.738,0.378-1.065,0.111C344.516,186.981,342.515,186.904,340.807,187.437L340.807,187.437z"/>
			<path fill-rule="evenodd" clip-rule="evenodd" fill="#31275B" d="M331.936,191.97c0,0,3.34-0.825,4.13-6.226
				c0.782-5.41,0.583-4.079,0.996-6.895c0.412-2.818,3.083-7.471,8.802-6.638c5.719,0.833,10.295,1.494,10.295,1.494
				s4.577,0.662,10.296,1.495c5.71,0.832,6.955,6.054,6.543,8.87c-0.403,2.816-0.215,1.485-0.996,6.895
				c-0.791,5.401,2.181,7.145,2.181,7.145c0.626-4.286,2.172-5.779,2.172-5.779s0.833-5.737,1.563-10.751
				c0.729-5.006,0.301-11.944-5.607-17.526c-5.908-5.573-13.791-6.638-13.791-6.638s-7.849-1.22-15.104,2.447
				c-7.248,3.658-9.635,10.193-10.365,15.208c-0.73,5.006-1.563,10.743-1.563,10.743S332.554,187.685,331.936,191.97L331.936,191.97
				z"/>
			<path fill-rule="evenodd" clip-rule="evenodd" fill="#443572" d="M345.864,172.212c0,0,9.609,10.493,24.086,4.336
				c0,0,6.192-3.649,8.116-0.859c0,0,4.318-11.292-5.394-14.211c0,0,2.232-1.117,2.104-2.568c-0.12-1.46-3.332-5.804-13.344-3.623
				c0,0,0.335-3.599-2.876-4.638c-3.204-1.04-13.911,2.593-16.461,9.944C342.095,160.594,340.017,165.995,345.864,172.212
				L345.864,172.212z"/>
			<path fill-rule="evenodd" clip-rule="evenodd" fill="#4F4D6E" d="M378.916,168.588c-0.068-0.524-0.18-1.047-0.336-1.563
				c-2.799,1.468-8.801,3.478-18.126,1.048c-8.244-2.139-8.914-10.434-8.192-16.548c-2.954,1.1-6.174,3.04-8.304,5.736
				c0.017,2.997,1.554,7.35,8.338,11.936C361.905,175.681,374.056,170.967,378.916,168.588L378.916,168.588z"/>
			<path fill-rule="evenodd" clip-rule="evenodd" fill="#FCB187" d="M254.602,143.196l0.034,1.64c0,0,0.807,0.284,1.4,1.615
				c0.601,1.331,0.876,2.31,0.876,2.31l8.569-3.109l0.035-0.669l-0.678-2.043c0,0-0.189-0.361,0.009-0.609l-4.345-1.915
				L254.602,143.196z"/>
			<path fill-rule="evenodd" clip-rule="evenodd" fill="#443572" d="M334.701,220.634c0,0-41.003-21.433-47.503-28.715
				c-6.509-7.273-9.541-17.466-19.458-46.593c0,0-0.36-1.356-2.464-1.211c-2.112,0.138-8.02,2.224-8.827,3.221
				c-0.816,0.996-1.262,2.01-0.971,3.383c0.292,1.374,11.988,46.73,15.303,53.514c3.322,6.784,33.334,34.691,39.577,41.201
				C316.6,251.941,334.701,220.634,334.701,220.634L334.701,220.634z"/>
			<path fill-rule="evenodd" clip-rule="evenodd" fill="#31275B" d="M263.549,144.424c-2.618,0.643-6.457,2.121-7.101,2.911
				c-0.816,0.996-1.262,2.01-0.971,3.383c0.292,1.374,11.988,46.73,15.303,53.514c3.322,6.784,33.334,34.691,39.577,41.201
				c1.949,2.035,5.058,0.369,8.416-2.877c0.274-1.709,0.352-2.782,0.154-2.963c-1.442-1.331-3.357-2.885-13.911-11.678
				c-10.553-8.793-26.946-23.906-29.659-29.497c-2.723-5.599-11.121-35.181-13.834-44.051
				C258.904,145.832,263.214,144.51,263.549,144.424L263.549,144.424z"/>
			<path fill-rule="evenodd" clip-rule="evenodd" fill="#FCB187" d="M267.078,133.432c0.593-3.211,2.361-5.46,3.092-6.216
				c0.953-1.005-3.624-3.788-5.41,1.038c0,0-1.614,1.821-2.542,1.289c-0.918-0.533-2.387-14.65-2.55-16.188
				c-0.155-1.545-1.949-1.657-2.43-1.218c-0.473,0.438-0.215,2.67-0.078,5.512c0.138,2.852,0.257,6.063,0.009,6.346
				c-0.241,0.284-0.893,0.284-1.571-1.245c-0.687-1.537-4.13-10.124-4.895-10.545c-0.764-0.429-2.173,0.361-2.044,1.803
				c0.137,1.442,3.941,9.979,4.079,11.224c0.137,1.253-1.1,1.193-1.657,0.515c-0.559-0.679-5.985-9.351-6.689-9.771
				c-0.704-0.421-2.112,0.429-1.588,1.888c0.523,1.461,5.375,9.979,5.341,10.7c-0.026,0.713-0.971,1.262-2.551,0.146
				c-1.588-1.116-4.602-3.803-5.194-3.83c-0.584-0.025-1.348,1.778,0.06,3.212c1.408,1.434,4.774,5.109,5.204,5.718
				c2.267,3.204,3.435,6.741,5.556,9c0.764,0.815,1.76,1.435,2.877,1.846c2.653,0.979,5.976,0.816,8.527-0.558
				C267.044,141.702,266.254,137.855,267.078,133.432L267.078,133.432z"/>
			<path fill-rule="evenodd" clip-rule="evenodd" fill="#FCB187" d="M335.465,325.533l-2.714,2.318h-22.626
				c0,0,0.875-2.801,2.361-3.676c0,0,0.593-0.283,1.34-0.283c0,0,0.695-0.92,1.751-1.355c1.065-0.439,6.337-1.719,9.094-2.199
				c2.765-0.48,5.436,0.48,6.758,0.48c1.322,0,3.357-0.283,3.357-0.283L335.465,325.533z"/>
			<path fill-rule="evenodd" clip-rule="evenodd" fill="#443572" d="M390.234,234.278c0,0,4.164,2.936,6.156,11.807
				c2,8.879,7.041,53.969,7.994,61.801c0.961,7.84,0.645,19.965-16.623,19.965c-17.27,0-39.175,0-46.054,0c-6.878,0-8.957,0-8.957,0
				s0-5.916,0-8.047c0-2.129,1.357-2.842,2.757-2.842s43.417-4.561,45.416-5.117c1.992-0.559,2.955-1.676,3.033-4.08
				c0.086-2.396-6.793-30.139-8.236-40.529C374.287,256.846,380.357,233.978,390.234,234.278L390.234,234.278z"/>
			<path fill-rule="evenodd" clip-rule="evenodd" fill="#31275B" d="M404.686,311.742c0.164,7.42-2.311,16.109-16.924,16.109
				c-17.27,0-39.175,0-46.054,0c-6.878,0-8.957,0-8.957,0v-6.32c1.348,1.684,4.053,3.605,9.352,3.605c9.437,0,36.385,0,43.338,0
				C392.07,325.137,404.445,320.338,404.686,311.742L404.686,311.742z"/>
			<path fill-rule="evenodd" clip-rule="evenodd" fill="#31275B" d="M375.721,267.236c0.978,7.023,4.431,21.98,6.542,31.676
				c1.014,4.646,1.717,8.082,1.693,8.854c-0.068,2.207-0.885,3.332-2.568,3.934c4.164-0.688,5.574-2.637,6.285-5.273
				c0.619-2.24,0.07-11.668-1.682-29.102c-0.311-3.057-0.654-6.361-1.033-9.908c-1.406-13.146,1.65-21.905,4.682-27.118
				c0.928-1.598,1.855-2.868,2.645-3.821c-1.15-1.563-2.051-2.199-2.051-2.199C380.357,233.978,374.287,256.846,375.721,267.236
				L375.721,267.236z"/>
			<path fill-rule="evenodd" clip-rule="evenodd" fill="#FCCCB1" d="M348.715,200.017c0,0,1.88-1.958,2.481-2.482
				c0.602-0.515,0.721,0.078,0.653,0.859c-0.069,0.781,0.128,2.285-0.292,2.636c-0.42,0.361-2.498,0-2.937-0.18
				C348.182,200.678,348.715,200.017,348.715,200.017L348.715,200.017z"/>
		</g>
	</g>
	<path fill="#8B77E6" d="M210.524,244.239c0-0.343,0.275-0.626,0.619-0.626c0.352,0,0.627,0.283,0.627,0.626v2.81
		c0,0.342-0.275,0.625-0.627,0.625c-0.344,0-0.619-0.283-0.619-0.625V244.239z M206.266,246.523c-0.241-0.248-0.241-0.643,0-0.885
		c0.24-0.248,0.635-0.248,0.884,0l1.983,1.984c0.249,0.24,0.249,0.635,0,0.885c-0.241,0.24-0.636,0.24-0.884,0L206.266,246.523z
		 M204.866,251.143c-0.344,0-0.619-0.283-0.619-0.625c0-0.344,0.275-0.628,0.619-0.628h2.808c0.352,0,0.627,0.284,0.627,0.628
		c0,0.343-0.275,0.625-0.627,0.625H204.866z M207.15,255.395c-0.249,0.248-0.644,0.248-0.884,0c-0.241-0.24-0.241-0.635,0-0.877
		l1.983-1.992c0.249-0.24,0.644-0.24,0.884,0c0.249,0.25,0.249,0.645,0,0.885L207.15,255.395z M211.77,256.793
		c0,0.344-0.275,0.629-0.627,0.629c-0.344,0-0.619-0.285-0.619-0.629v-2.807c0-0.346,0.275-0.629,0.619-0.629
		c0.352,0,0.627,0.283,0.627,0.629V256.793z M216.029,254.518c0.24,0.242,0.24,0.637,0,0.877c-0.249,0.248-0.644,0.248-0.885,0
		l-1.983-1.984c-0.249-0.24-0.249-0.635,0-0.885c0.24-0.24,0.635-0.24,0.876,0L216.029,254.518z M217.42,249.889
		c0.352,0,0.627,0.284,0.627,0.628c0,0.343-0.275,0.625-0.627,0.625h-2.808c-0.343,0-0.619-0.283-0.619-0.625
		c0-0.344,0.275-0.628,0.619-0.628H217.42z M215.144,245.638c0.241-0.248,0.636-0.248,0.885,0c0.24,0.242,0.24,0.637,0,0.885
		l-1.992,1.984c-0.241,0.24-0.636,0.24-0.876,0c-0.249-0.25-0.249-0.645,0-0.885L215.144,245.638z"/>
	<g>
		<path fill-rule="evenodd" clip-rule="evenodd" fill="#DED8F9" d="M88.494,352.428h3.529c0.645,0,1.177,0.531,1.177,1.176v3.539
			c0,0.643-0.532,1.176-1.177,1.176h-3.529c-0.652,0-1.176-0.533-1.176-1.176v-3.539C87.318,352.959,87.842,352.428,88.494,352.428
			L88.494,352.428z"/>
		<path fill-rule="evenodd" clip-rule="evenodd" fill="#DED8F9" d="M100.559,352.428h3.538c0.644,0,1.176,0.531,1.176,1.176v3.539
			c0,0.643-0.533,1.176-1.176,1.176h-3.538c-0.644,0-1.176-0.533-1.176-1.176v-3.539C99.383,352.959,99.915,352.428,100.559,352.428
			L100.559,352.428z"/>
		<path fill-rule="evenodd" clip-rule="evenodd" fill="#DED8F9" d="M112.624,352.428h3.537c0.645,0,1.177,0.531,1.177,1.176v3.539
			c0,0.643-0.533,1.176-1.177,1.176h-3.537c-0.644,0-1.177-0.533-1.177-1.176v-3.539
			C111.447,352.959,111.98,352.428,112.624,352.428L112.624,352.428z"/>
		<path fill-rule="evenodd" clip-rule="evenodd" fill="#DED8F9" d="M124.697,352.428h3.529c0.652,0,1.176,0.531,1.176,1.176v3.539
			c0,0.643-0.524,1.176-1.176,1.176h-3.529c-0.652,0-1.176-0.533-1.176-1.176v-3.539
			C123.521,352.959,124.045,352.428,124.697,352.428L124.697,352.428z"/>
	</g>
	<path fill="#8B77E6" d="M125.839,86.07c0-0.344,0.274-0.618,0.627-0.618c0.343,0,0.618,0.274,0.618,0.618v2.808
		c0,0.344-0.274,0.627-0.618,0.627c-0.353,0-0.627-0.284-0.627-0.627V86.07z M121.58,88.355c-0.24-0.25-0.24-0.645,0-0.884
		c0.249-0.241,0.644-0.241,0.884,0l1.984,1.982c0.249,0.25,0.249,0.645,0,0.884c-0.241,0.241-0.636,0.241-0.876,0L121.58,88.355z
		 M120.189,92.975c-0.352,0-0.627-0.283-0.627-0.627c0-0.343,0.275-0.618,0.627-0.618h2.808c0.343,0,0.618,0.274,0.618,0.618
		c0,0.344-0.275,0.627-0.618,0.627H120.189z M122.464,97.234c-0.24,0.24-0.635,0.24-0.884,0c-0.24-0.249-0.24-0.645,0-0.884
		l1.992-1.993c0.24-0.24,0.635-0.24,0.876,0c0.249,0.25,0.249,0.645,0,0.884L122.464,97.234z M127.084,98.625
		c0,0.343-0.274,0.626-0.618,0.626c-0.353,0-0.627-0.283-0.627-0.626v-2.809c0-0.343,0.274-0.618,0.627-0.618
		c0.343,0,0.618,0.275,0.618,0.618V98.625z M131.344,96.35c0.24,0.24,0.24,0.636,0,0.884c-0.241,0.24-0.644,0.24-0.885,0
		l-1.983-1.993c-0.25-0.24-0.25-0.635,0-0.884c0.24-0.24,0.635-0.24,0.885,0L131.344,96.35z M132.743,91.73
		c0.343,0,0.618,0.274,0.618,0.618c0,0.344-0.275,0.627-0.618,0.627h-2.808c-0.353,0-0.627-0.283-0.627-0.627
		c0-0.343,0.274-0.618,0.627-0.618H132.743z M130.458,87.471c0.241-0.241,0.645-0.241,0.885,0c0.24,0.24,0.24,0.634,0,0.884
		l-1.983,1.982c-0.25,0.241-0.645,0.241-0.885,0c-0.25-0.24-0.25-0.635,0-0.884L130.458,87.471z"/>
	<g>
		<path fill-rule="evenodd" clip-rule="evenodd" fill="#F1EFFD" d="M194.673,199.87h3.538c0.644,0,1.177,0.532,1.177,1.177v3.537
			c0,0.644-0.533,1.177-1.177,1.177h-3.538c-0.644,0-1.177-0.533-1.177-1.177v-3.537C193.496,200.402,194.029,199.87,194.673,199.87
			L194.673,199.87z"/>
		<path fill-rule="evenodd" clip-rule="evenodd" fill="#F1EFFD" d="M206.746,199.87h3.529c0.653,0,1.176,0.532,1.176,1.177v3.537
			c0,0.644-0.523,1.177-1.176,1.177h-3.529c-0.653,0-1.176-0.533-1.176-1.177v-3.537C205.57,200.402,206.093,199.87,206.746,199.87
			L206.746,199.87z"/>
		<path fill-rule="evenodd" clip-rule="evenodd" fill="#F1EFFD" d="M218.811,199.87h3.538c0.645,0,1.177,0.532,1.177,1.177v3.537
			c0,0.644-0.532,1.177-1.177,1.177h-3.538c-0.645,0-1.177-0.533-1.177-1.177v-3.537C217.634,200.402,218.167,199.87,218.811,199.87
			L218.811,199.87z"/>
		<path fill-rule="evenodd" clip-rule="evenodd" fill="#F1EFFD" d="M230.884,199.87h3.529c0.644,0,1.176,0.532,1.176,1.177v3.537
			c0,0.644-0.532,1.177-1.176,1.177h-3.529c-0.653,0-1.177-0.533-1.177-1.177v-3.537C229.708,200.402,230.231,199.87,230.884,199.87
			L230.884,199.87z"/>
	</g>
	<g>
		<path fill-rule="evenodd" clip-rule="evenodd" fill="#BBBBF6" d="M536.367,149.55v77.223h-12.221
			c-8.73,0-15.885,7.144-15.885,15.886l0,0c0,8.733,7.154,15.885,15.885,15.885h12.221v158.303h-27.529H466.41V61.293
			c20.367,9.893,34.492,30.801,34.492,54.863l0,0l0,0c0,18.368,15.027,33.395,33.396,33.395H536.367z"/>
		<path fill-rule="evenodd" clip-rule="evenodd" fill="#DEDFFD" d="M472.514,64.711v352.136h-12.211V58.734
			C464.615,60.272,468.711,62.289,472.514,64.711L472.514,64.711z"/>
		<path fill-rule="evenodd" clip-rule="evenodd" fill="#DEDFFD" d="M487.602,78.27v338.578h-12.219V66.651
			C479.967,69.949,484.082,73.865,487.602,78.27L487.602,78.27z"/>
		<path fill-rule="evenodd" clip-rule="evenodd" fill="#DEDFFD" d="M502.689,126.906v289.942h-12.219V82.168
			c6.576,9.72,10.432,21.425,10.432,33.988l0,0l0,0C500.902,119.909,501.529,123.523,502.689,126.906L502.689,126.906z"/>
		<path fill-rule="evenodd" clip-rule="evenodd" fill="#DEDFFD" d="M517.775,145.145v82.977c-5.588,2.464-9.514,8.063-9.514,14.538
			l0,0c0,6.475,3.926,12.073,9.514,14.538v159.65h-8.938h-3.281V133.106C508.52,138.095,512.736,142.251,517.775,145.145
			L517.775,145.145z"/>
		<path fill-rule="evenodd" clip-rule="evenodd" fill="#DEDFFD" d="M532.863,149.517v77.257h-8.717
			c-1.201,0-2.377,0.137-3.502,0.395v-80.555C524.404,148.306,528.527,149.328,532.863,149.517L532.863,149.517z M532.863,258.545
			v158.303h-12.219V258.15c1.125,0.258,2.301,0.395,3.502,0.395H532.863z"/>
	</g>
	<g>
		<path fill-rule="evenodd" clip-rule="evenodd" fill="#F1EFFD" d="M369.118,388.578h3.538c0.644,0,1.176,0.523,1.176,1.176v3.529
			c0,0.652-0.532,1.178-1.176,1.178h-3.538c-0.645,0-1.177-0.525-1.177-1.178v-3.529
			C367.941,389.102,368.474,388.578,369.118,388.578L369.118,388.578z"/>
		<path fill-rule="evenodd" clip-rule="evenodd" fill="#F1EFFD" d="M381.191,388.578h3.529c0.652,0,1.176,0.523,1.176,1.176v3.529
			c0,0.652-0.523,1.178-1.176,1.178h-3.529c-0.652,0-1.176-0.525-1.176-1.178v-3.529
			C380.016,389.102,380.539,388.578,381.191,388.578L381.191,388.578z"/>
		<path fill-rule="evenodd" clip-rule="evenodd" fill="#F1EFFD" d="M393.256,388.578h3.539c0.643,0,1.176,0.523,1.176,1.176v3.529
			c0,0.652-0.533,1.178-1.176,1.178h-3.539c-0.645,0-1.178-0.525-1.178-1.178v-3.529
			C392.078,389.102,392.611,388.578,393.256,388.578L393.256,388.578z"/>
		<path fill-rule="evenodd" clip-rule="evenodd" fill="#F1EFFD" d="M405.328,388.578h3.531c0.652,0,1.176,0.523,1.176,1.176v3.529
			c0,0.652-0.523,1.178-1.176,1.178h-3.531c-0.65,0-1.176-0.525-1.176-1.178v-3.529
			C404.152,389.102,404.678,388.578,405.328,388.578L405.328,388.578z"/>
	</g>
	<g>
		<path fill-rule="evenodd" clip-rule="evenodd" fill="#F1EFFD" d="M389.365,68.164h3.539c0.643,0,1.176,0.523,1.176,1.176v3.529
			c0,0.653-0.533,1.177-1.176,1.177h-3.539c-0.643,0-1.176-0.524-1.176-1.177v-3.529C388.189,68.687,388.723,68.164,389.365,68.164
			L389.365,68.164z"/>
		<path fill-rule="evenodd" clip-rule="evenodd" fill="#F1EFFD" d="M401.439,68.164h3.527c0.646,0,1.178,0.523,1.178,1.176v3.529
			c0,0.653-0.531,1.177-1.178,1.177h-3.527c-0.652,0-1.176-0.524-1.176-1.177v-3.529C400.264,68.687,400.787,68.164,401.439,68.164
			L401.439,68.164z"/>
		<path fill-rule="evenodd" clip-rule="evenodd" fill="#F1EFFD" d="M413.506,68.164h3.527c0.652,0,1.186,0.523,1.186,1.176v3.529
			c0,0.653-0.533,1.177-1.186,1.177h-3.527c-0.645,0-1.178-0.524-1.178-1.177v-3.529C412.328,68.687,412.861,68.164,413.506,68.164
			L413.506,68.164z"/>
		<path fill-rule="evenodd" clip-rule="evenodd" fill="#F1EFFD" d="M425.568,68.164h3.539c0.643,0,1.176,0.523,1.176,1.176v3.529
			c0,0.653-0.533,1.177-1.176,1.177h-3.539c-0.643,0-1.176-0.524-1.176-1.177v-3.529C424.393,68.687,424.926,68.164,425.568,68.164
			L425.568,68.164z"/>
	</g>
	<g>
		<path fill-rule="evenodd" clip-rule="evenodd" fill="#F1EFFD" d="M558.797,285.887h3.529c0.645,0,1.176,0.523,1.176,1.176v3.529
			c0,0.645-0.531,1.178-1.176,1.178h-3.529c-0.652,0-1.176-0.533-1.176-1.178v-3.529
			C557.621,286.41,558.145,285.887,558.797,285.887L558.797,285.887z"/>
		<path fill-rule="evenodd" clip-rule="evenodd" fill="#F1EFFD" d="M570.861,285.887h3.537c0.645,0,1.178,0.523,1.178,1.176v3.529
			c0,0.645-0.533,1.178-1.178,1.178h-3.537c-0.645,0-1.176-0.533-1.176-1.178v-3.529
			C569.686,286.41,570.217,285.887,570.861,285.887L570.861,285.887z"/>
		<path fill-rule="evenodd" clip-rule="evenodd" fill="#F1EFFD" d="M582.928,285.887h3.537c0.643,0,1.176,0.523,1.176,1.176v3.529
			c0,0.645-0.533,1.178-1.176,1.178h-3.537c-0.646,0-1.178-0.533-1.178-1.178v-3.529C581.75,286.41,582.281,285.887,582.928,285.887
			L582.928,285.887z"/>
		<path fill-rule="evenodd" clip-rule="evenodd" fill="#F1EFFD" d="M595,285.887h3.529c0.65,0,1.176,0.523,1.176,1.176v3.529
			c0,0.645-0.525,1.178-1.176,1.178H595c-0.645,0-1.178-0.533-1.178-1.178v-3.529C593.822,286.41,594.355,285.887,595,285.887
			L595,285.887z"/>
	</g>
	<g>
		<path fill-rule="evenodd" clip-rule="evenodd" fill="#443572" d="M147.247,407.693c-0.017-7.109,0.764-15.293,2.748-24.629
			c0.017-0.066,0.035-0.145,0.052-0.213c0.095-0.379,0.386-1.1,1.142-0.893c1.013,0.273,9.309,4.936,17.063,12.828
			c7.754,7.891,7.625-3.977,0.893-8.648c-6.724-4.67-13.602-6.637-15.663-8.424c-2.07-1.785-1.7-3.828-1.7-3.828l0,0
			c1.605-9.043,2.807-18.309,3.648-27.436l0.009-0.01c0,0,0.387-1.99,2.276,0.344c1.897,2.344,9.231,10.469,14.941,11
			c5.71,0.541,0.481-8.51-7.583-12.949s-9.05-5.383-8.974-6.465v-0.01c0.516-7.188,0.816-14.221,0.927-20.918l0,0
			c0,0,0.326-1.203,1.392-0.334c1.057,0.875,9.085,10.047,13.361,9.076c4.276-0.979,0.121-8.795-6.698-11.531
			c-6.818-2.74-8.003-3.564-8.012-4.578l0,0c-0.069-19.828-1.82-35.799-4.457-42.592c-2.74-7.076,14.667,8.93,30.758,35.053
			c1.382,2.379,1.288,3.744,0.396,6.629c-0.962,3.092-2.019,10.063,0.506,8.441c2.525-1.615,2.868-7.746,3.074-7.857
			c0.154-0.094,0.267,0,0.31,0.051c2.636,4.672,5.169,9.592,7.522,14.701c2.421,5.736-0.816,9.652-5.324,15.25
			c-4.671,5.805-3.83,11.971,1.133,9.377c4.963-2.584,7.273-14.648,7.686-14.975c0.378-0.293,0.652,0.145,0.696,0.232
			c3.28,8.449,5.899,17.285,7.487,26.258c0.335,4.467-3.306,8.166-7.127,14.203c-3.847,6.088-0.893,9.756,2.146,8.922
			c3.031-0.842,5.083-8.252,5.745-8.732c0.61-0.447,0.799-0.07,0.824,0c0.344,8.697-0.472,17.406-2.817,25.906
			c-2.061,7.463-4.225,13.842-6.448,19.279h-39.406L147.247,407.693z"/>
		<path fill-rule="evenodd" clip-rule="evenodd" fill="#31275B" d="M193.042,420.223c-5.169-68.99-22.894-128.746-22.979-129.055
			c-0.249-0.824-1.108-1.297-1.932-1.057c-0.825,0.24-1.297,1.107-1.056,1.932c0.085,0.301,17.715,59.705,22.884,128.18H193.042z"/>
		<path fill-rule="evenodd" clip-rule="evenodd" fill="#A8A8E5" d="M225.542,325.352c29.883-17.697,38.136,19.133,32.082,35.818
			c-4.491,12.348-20.411,39.404-31.625,59.053h-41.69C189.718,378.936,203.551,338.379,225.542,325.352L225.542,325.352z"/>
		<path fill-rule="evenodd" clip-rule="evenodd" fill="#DBDBFD" d="M202.461,420.223c15.208-48.268,38.495-88.199,38.616-88.412
			c0.343-0.594,1.21-0.895,1.923-0.662c0.721,0.232,1.022,0.902,0.678,1.504c-0.121,0.205-23.202,39.775-38.34,87.57H202.461z"/>
		<path fill-rule="evenodd" clip-rule="evenodd" fill="#F1EFFD" d="M97.494,304.236c9.214-34.828,41.689-15.756,55.635,14.014
			c7.874,16.805,21.51,61.141,36.855,101.973h-38.968l-11.584-6.502C112.478,363.316,93.81,318.146,97.494,304.236L97.494,304.236z"
			/>
		<path fill-rule="evenodd" clip-rule="evenodd" fill="#FFFFFF" d="M160.505,411.85c-29.625-56.193-45.073-110.756-45.15-111.029
			c-0.224-0.773,0.224-1.572,0.987-1.795c0.773-0.225,1.58,0.223,1.795,0.986c0.086,0.301,17.063,60.23,49.444,118.904
			L160.505,411.85z"/>
	</g>
	<g>
		<rect x="611.779" y="310.119" fill-rule="evenodd" clip-rule="evenodd" fill="#BBBBF6" width="37.061" height="11.23"/>
		<rect x="595.564" y="323.602" fill-rule="evenodd" clip-rule="evenodd" fill="#BBBBF6" width="37.072" height="11.23"/>
		<path fill-rule="evenodd" clip-rule="evenodd" fill="#BBBBF6" d="M634.396,323.602h23.451c0.662,3.656,1.074,7.41,1.211,11.23
			h-24.662V323.602z"/>
		<rect x="611.779" y="337.072" fill-rule="evenodd" clip-rule="evenodd" fill="#BBBBF6" width="37.061" height="11.234"/>
		<path fill-rule="evenodd" clip-rule="evenodd" fill="#BBBBF6" d="M650.609,337.072h8.492c0.01,0.207,0.01,0.414,0.01,0.619l0,0
			c0,3.6-0.242,7.145-0.715,10.615h-7.787V337.072z"/>
		<path fill-rule="evenodd" clip-rule="evenodd" fill="#BBBBF6" d="M634.396,350.555h23.656c-0.635,3.84-1.545,7.592-2.713,11.232
			h-20.943V350.555z"/>
		<path fill="#8B77E6" d="M572.244,362.475c0-0.344,0.283-0.627,0.627-0.627c0.342,0,0.627,0.283,0.627,0.627v2.807
			c0,0.344-0.285,0.627-0.627,0.627c-0.344,0-0.627-0.283-0.627-0.627V362.475z M567.992,364.75c-0.248-0.24-0.248-0.637,0-0.885
			c0.24-0.24,0.637-0.24,0.885,0l1.984,1.992c0.24,0.24,0.24,0.635,0,0.885c-0.248,0.24-0.645,0.24-0.885,0L567.992,364.75z
			 M566.594,369.379c-0.344,0-0.627-0.285-0.627-0.627c0-0.344,0.283-0.627,0.627-0.627h2.807c0.344,0,0.627,0.283,0.627,0.627
			c0,0.342-0.283,0.627-0.627,0.627H566.594z M568.877,373.629c-0.248,0.248-0.645,0.248-0.885,0c-0.248-0.24-0.248-0.635,0-0.885
			l1.984-1.984c0.24-0.24,0.637-0.24,0.885,0c0.24,0.24,0.24,0.637,0,0.885L568.877,373.629z M573.498,375.029
			c0,0.342-0.285,0.625-0.627,0.625c-0.344,0-0.627-0.283-0.627-0.625v-2.811c0-0.342,0.283-0.625,0.627-0.625
			c0.342,0,0.627,0.283,0.627,0.625V375.029z M577.748,372.744c0.248,0.25,0.248,0.645,0,0.885c-0.24,0.248-0.635,0.248-0.877,0
			l-1.99-1.984c-0.242-0.248-0.242-0.645,0-0.885c0.248-0.24,0.643-0.24,0.883,0L577.748,372.744z M579.148,368.125
			c0.344,0,0.625,0.283,0.625,0.627c0,0.342-0.281,0.627-0.625,0.627h-2.811c-0.342,0-0.625-0.285-0.625-0.627
			c0-0.344,0.283-0.627,0.625-0.627H579.148z M576.871,363.865c0.242-0.24,0.637-0.24,0.877,0c0.248,0.248,0.248,0.645,0,0.885
			l-1.984,1.992c-0.24,0.24-0.635,0.24-0.883,0c-0.242-0.25-0.242-0.645,0-0.885L576.871,363.865z"/>
		<path fill-rule="evenodd" clip-rule="evenodd" fill="#31275B" d="M639.104,305.275c8.619,27.984,11.84,43.193,16.469,55.773
			c2.301-7.395,3.539-15.234,3.539-23.357l0,0v-40.152C659.111,224.541,628.471,270.791,639.104,305.275L639.104,305.275z"/>
		<path fill-rule="evenodd" clip-rule="evenodd" fill="#443572" d="M532.262,411.756c-6.723-8.967-13.584-20.809-17.68-35.303
			c-7.137-25.211,22.154,2.723,45.262,35.303H532.262z"/>
		<path fill-rule="evenodd" clip-rule="evenodd" fill="#443572" d="M572.535,411.756c-7.213-12.195-14.373-28.244-15.5-45.135
			c-2.369-35.541-3.049-46.713-9.822-52.467c-5.805-4.938,64.213-3.881,93.572,74.047c-8.709,10.459-20.051,18.66-32.982,23.555
			H572.535z"/>
		<path fill-rule="evenodd" clip-rule="evenodd" fill="#645193" d="M557.25,312.918c26.508,24.113,47.357,59.766,62.643,93.041
			c-0.729,0.43-1.469,0.85-2.207,1.252c-15.662-34.166-37.207-70.85-64.703-94.705C554.246,312.566,555.68,312.703,557.25,312.918
			L557.25,312.918z"/>
		<path fill-rule="evenodd" clip-rule="evenodd" fill="#BBBBF6" d="M632.455,273.873c5.85,14.4,14.469,46.695,24.662,81.457
			c-4.154,18.102-14.58,33.893-28.826,44.936c-24.695-35.26-46.199-75.316-54.236-107.08
			C557.887,229.264,608.189,214.03,632.455,273.873L632.455,273.873z"/>
		<path fill-rule="evenodd" clip-rule="evenodd" fill="#938ACA" d="M642.52,386.035c-34.193-59.791-50.121-129.945-50.191-130.246
			c-0.162-0.688,0.268-1.375,0.955-1.529c0.686-0.162,1.373,0.266,1.535,0.953c0.07,0.301,15.775,69.461,49.35,128.625
			C643.627,384.576,643.076,385.316,642.52,386.035L642.52,386.035z"/>
		<path fill-rule="evenodd" clip-rule="evenodd" fill="#938ACA" d="M609.486,411.094c-1.264-5.805-3.229-12.074-6.236-18.395
			c-11.395-23.922-39.885-33.23-47.99-29.59c-6.623,2.98-19.957,21.426-10.004,48.646h62.547
			C608.369,411.541,608.928,411.326,609.486,411.094L609.486,411.094z"/>
		<path fill-rule="evenodd" clip-rule="evenodd" fill="#ADA5D8" d="M592.973,411.756c1.451-3.908,4.449-12.494,4.842-17.682
			c0.035-0.404-0.266-0.756-0.668-0.781c-0.396-0.035-0.748,0.266-0.781,0.67c-0.359,4.834-3.109,12.82-4.586,16.848
			c-3.332-6.551-7.395-13.422-12.33-20.369c2.6-10.037,2.301-17.467,2.301-17.492c-0.018-0.402-0.352-0.711-0.756-0.703
			c-0.404,0.018-0.713,0.352-0.703,0.756c0.008,0.025,0.273,6.689-1.949,15.902c-5.609-7.693-12.297-15.465-20.293-22.971
			c-0.584-0.549-1.51-0.521-2.061,0.07c-0.549,0.584-0.514,1.502,0.068,2.051c3.898,3.658,7.471,7.377,10.76,11.121
			c-2.953-0.541-7.463-1.109-11.936-0.66c-0.395,0.041-0.688,0.393-0.654,0.797c0.045,0.396,0.396,0.688,0.799,0.645
			c5.385-0.533,10.838,0.455,13.346,1.014c5.057,5.916,9.402,11.867,13.129,17.707c-5.203-0.5-17.98-1.34-30.381,0.936
			c-0.395,0.076-0.652,0.455-0.584,0.85c0.078,0.395,0.455,0.652,0.852,0.584c13.248-2.439,26.971-1.254,31.102-0.799
			c2.438,3.908,4.602,7.764,6.516,11.508H592.973z"/>
	</g>
	<g>
		<g>
			<path fill-rule="evenodd" clip-rule="evenodd" fill="#DED8F9" d="M541.816,106.993h4.018c0.738,0,1.34,0.601,1.34,1.34v4.011
				c0,0.738-0.602,1.339-1.34,1.339h-4.018c-0.74,0-1.34-0.601-1.34-1.339v-4.011C540.477,107.594,541.076,106.993,541.816,106.993
				L541.816,106.993z"/>
			<path fill-rule="evenodd" clip-rule="evenodd" fill="#DED8F9" d="M555.537,106.993h4.01c0.738,0,1.34,0.601,1.34,1.34v4.011
				c0,0.738-0.602,1.339-1.34,1.339h-4.01c-0.74,0-1.34-0.601-1.34-1.339v-4.011C554.197,107.594,554.797,106.993,555.537,106.993
				L555.537,106.993z"/>
			<path fill-rule="evenodd" clip-rule="evenodd" fill="#DED8F9" d="M569.25,106.993h4.02c0.738,0,1.338,0.601,1.338,1.34v4.011
				c0,0.738-0.6,1.339-1.338,1.339h-4.02c-0.73,0-1.33-0.601-1.33-1.339v-4.011C567.92,107.594,568.52,106.993,569.25,106.993
				L569.25,106.993z"/>
			<path fill-rule="evenodd" clip-rule="evenodd" fill="#DED8F9" d="M582.973,106.993h4.02c0.73,0,1.33,0.601,1.33,1.34v4.011
				c0,0.738-0.6,1.339-1.33,1.339h-4.02c-0.738,0-1.34-0.601-1.34-1.339v-4.011C581.633,107.594,582.234,106.993,582.973,106.993
				L582.973,106.993z"/>
		</g>
		<path fill="#C9C0ED" d="M644.49,100.433c0-0.395,0.316-0.712,0.711-0.712s0.715,0.318,0.715,0.712v3.194
			c0,0.386-0.32,0.705-0.715,0.705s-0.711-0.319-0.711-0.705V100.433z M639.656,103.026c-0.275-0.283-0.275-0.729,0-1.004
			c0.273-0.284,0.729-0.284,1.004,0l2.258,2.258c0.275,0.275,0.275,0.722,0,1.005c-0.283,0.274-0.73,0.274-1.004,0L639.656,103.026z
			 M638.066,108.273c-0.395,0-0.713-0.319-0.713-0.705c0-0.395,0.318-0.712,0.713-0.712h3.195c0.387,0,0.703,0.317,0.703,0.712
			c0,0.386-0.316,0.705-0.703,0.705H638.066z M640.66,113.116c-0.275,0.275-0.73,0.275-1.004,0c-0.275-0.275-0.275-0.73,0-1.004
			l2.258-2.259c0.273-0.275,0.721-0.275,1.004,0c0.275,0.274,0.275,0.729,0,1.005L640.66,113.116z M645.916,114.705
			c0,0.385-0.32,0.704-0.715,0.704s-0.711-0.318-0.711-0.704v-3.196c0-0.395,0.316-0.712,0.711-0.712s0.715,0.317,0.715,0.712
			V114.705z M650.75,112.112c0.273,0.273,0.273,0.729,0,1.004s-0.73,0.275-1.004,0l-2.26-2.258c-0.273-0.275-0.273-0.73,0-1.005
			c0.275-0.275,0.73-0.275,1.004,0L650.75,112.112z M652.338,106.856c0.396,0,0.713,0.317,0.713,0.712
			c0,0.386-0.316,0.705-0.713,0.705h-3.193c-0.387,0-0.705-0.319-0.705-0.705c0-0.395,0.318-0.712,0.705-0.712H652.338z
			 M649.746,102.022c0.273-0.284,0.73-0.284,1.004,0c0.273,0.275,0.273,0.721,0,1.004l-2.26,2.259c-0.273,0.274-0.729,0.274-1.004,0
			c-0.273-0.284-0.273-0.73,0-1.005L649.746,102.022z"/>
	</g>
	<path fill="#C9C0ED" d="M92.521,226.576c0-0.395,0.318-0.713,0.713-0.713c0.387,0,0.704,0.318,0.704,0.713v3.194
		c0,0.386-0.317,0.703-0.704,0.703c-0.395,0-0.713-0.317-0.713-0.703V226.576z M87.687,229.169c-0.284-0.275-0.284-0.73,0-1.005
		c0.274-0.275,0.721-0.275,1.004,0l2.25,2.259c0.283,0.274,0.283,0.721,0,1.004c-0.275,0.275-0.722,0.275-0.997,0L87.687,229.169z
		 M86.098,234.425c-0.395,0-0.712-0.318-0.712-0.713c0-0.395,0.317-0.713,0.712-0.713h3.195c0.387,0,0.704,0.318,0.704,0.713
		c0,0.395-0.317,0.713-0.704,0.713H86.098z M88.691,239.259c-0.283,0.275-0.73,0.275-1.004,0c-0.284-0.275-0.284-0.73,0-1.005
		l2.258-2.258c0.275-0.275,0.721-0.275,0.997,0c0.283,0.275,0.283,0.729,0,1.004L88.691,239.259z M93.938,240.847
		c0,0.395-0.317,0.713-0.704,0.713c-0.395,0-0.713-0.318-0.713-0.713v-3.194c0-0.387,0.318-0.713,0.713-0.713
		c0.387,0,0.704,0.326,0.704,0.713V240.847z M98.781,238.254c0.275,0.275,0.275,0.73,0,1.005c-0.283,0.275-0.729,0.275-1.004,0
		L95.518,237c-0.274-0.275-0.274-0.729,0-1.004c0.275-0.275,0.73-0.275,1.005,0L98.781,238.254z M100.37,232.999
		c0.386,0,0.704,0.318,0.704,0.713c0,0.395-0.318,0.713-0.704,0.713h-3.194c-0.395,0-0.713-0.318-0.713-0.713
		c0-0.395,0.318-0.713,0.713-0.713H100.37z M97.777,228.164c0.275-0.275,0.721-0.275,1.004,0c0.275,0.275,0.275,0.73,0,1.005
		l-2.258,2.258c-0.275,0.275-0.729,0.275-1.005,0c-0.274-0.283-0.274-0.729,0-1.004L97.777,228.164z"/>
	<g>
		<path fill-rule="evenodd" clip-rule="evenodd" fill="#31275B" d="M64.491,412.484h622.032c4.412,0,8.021,3.599,8.021,8.011l0,0
			c0,4.41-3.609,8.02-8.021,8.02h-27.036c-2.451,0-4.451,2-4.451,4.451l0,0c0,2.443,2,4.452,4.451,4.452h9.889
			c3.064,0,5.568,2.504,5.568,5.567l0,0c0,3.059-2.504,5.56-5.568,5.56H82.532c-3.067,0-5.569-2.501-5.569-5.56l0,0
			c0-3.063,2.502-5.567,5.569-5.567h7.784c2.451,0,4.452-2.009,4.452-4.452l0,0c0-2.451-2.001-4.451-4.452-4.451H64.491
			c-4.41,0-8.011-3.609-8.011-8.02l0,0C56.48,416.083,60.092,412.484,64.491,412.484L64.491,412.484z M68.665,448.545
			L68.665,448.545c-2.933,0-5.343-2.398-5.343-5.344v-0.44c0-2.944,2.41-5.343,5.343-5.343l0,0c2.943,0,5.344,2.398,5.344,5.343
			v0.44C74.009,446.146,71.608,448.545,68.665,448.545L68.665,448.545z"/>
	</g>
</g>
<text transform="matrix(1 0 0 1 170.4697 89.3213)" fill="#443572" font-family="'MyriadPro-Regular'" font-size="14">Welcome...</text>
<text transform="matrix(1 0 0 1 327.1016 436.9805)" fill="#F1EFFD" font-family="'MyriadPro-Regular'" font-size="18">Tech-Series</text>
</svg>
