<?xml version="1.0" encoding="utf-8"?>
<!-- Generator: Adobe Illustrator 16.0.0, SVG Export Plug-In . SVG Version: 6.00 Build 0)  -->
<!DOCTYPE svg PUBLIC "-//W3C//DTD SVG 1.1//EN" "http://www.w3.org/Graphics/SVG/1.1/DTD/svg11.dtd">
<svg version="1.1" xmlns="http://www.w3.org/2000/svg" xmlns:xlink="http://www.w3.org/1999/xlink" x="0px" y="0px" width="500px"
	 height="500px" viewBox="0 0 500 500" enable-background="new 0 0 500 500" xml:space="preserve">
<g id="Background">
	<radialGradient id="SVGID_1_" cx="250" cy="250" r="307" gradientUnits="userSpaceOnUse">
		<stop  offset="0" style="stop-color:#FFFFFF"/>
		<stop  offset="0.4809" style="stop-color:#FDFDFE"/>
		<stop  offset="0.717" style="stop-color:#F5F7F8"/>
		<stop  offset="0.8992" style="stop-color:#E8EEF0"/>
		<stop  offset="1" style="stop-color:#DDE5E8"/>
	</radialGradient>
	<rect fill="url(#SVGID_1_)" width="500" height="500"/>
</g>
<g id="Objects">
	<g>
		<g>
			<g>
				<polygon fill="none" points="68.671,297.118 413.916,350.214 442.592,252.391 68.671,194.15 				"/>
				<polygon fill="#008817" points="71.654,194.15 420.966,137.756 387.077,246.196 71.654,297.118 				"/>
				<linearGradient id="SVGID_2_" gradientUnits="userSpaceOnUse" x1="71.6543" y1="217.4375" x2="420.9658" y2="217.4375">
					<stop  offset="0" style="stop-color:#C00DC9"/>
					<stop  offset="1" style="stop-color:#C00DC9;stop-opacity:0"/>
				</linearGradient>
				<polygon display="none" opacity="0.61" fill="url(#SVGID_2_)" points="420.966,137.756 71.654,194.15 71.654,297.118 				"/>
				<polygon fill="#008817" points="209.497,383.697 416.899,350.214 445.574,252.391 209.497,290.503 242.103,331.836 				"/>
				
					<linearGradient id="SVGID_3_" gradientUnits="userSpaceOnUse" x1="209.4971" y1="354.1074" x2="445.5742" y2="354.1074" gradientTransform="matrix(1 -0.1614 0 1 0 16.8012)">
					<stop  offset="0" style="stop-color:#C00DC9"/>
					<stop  offset="1" style="stop-color:#C00DC9;stop-opacity:0"/>
				</linearGradient>
				<polygon display="none" opacity="0.31" fill="url(#SVGID_3_)" points="445.574,252.391 209.497,290.503 242.103,331.836 
					209.497,383.697 				"/>
			</g>
			<g>
				<linearGradient id="SVGID_4_" gradientUnits="userSpaceOnUse" x1="71.6543" y1="191.7109" x2="422.007" y2="191.7109">
					<stop  offset="0" style="stop-color:#D0276B"/>
					<stop  offset="1" style="stop-color:#D027B8"/>
				</linearGradient>
				<path fill="url(#SVGID_4_)" d="M71.654,194.15c29.086-4.842,58.159-9.765,87.267-14.472l87.302-14.262
					c29.101-4.746,58.194-9.55,87.32-14.147l87.354-13.934l0.683-0.109l-0.207,0.658l-17.056,54.185l-17.24,54.127l16.648-54.313
					l16.832-54.254l0.476,0.549l-87.301,14.263c-29.093,4.802-58.219,9.397-87.336,14.049l-87.354,13.936
					C129.932,185.118,100.787,189.594,71.654,194.15z"/>
			</g>
			
				<text transform="matrix(0.9235 -0.1614 0 1 80.8369 265.8213)" fill="#C6F4CB" font-family="'BebasNeueBold'" font-size="69.2719">SUPER SALE</text>
			<text transform="matrix(1 -0.1614 0 1 261.959 349.1924)" fill="#FFFFFF" font-family="'BebasNeueBold'" font-size="50.1335">40% off</text>
			<g>
				
					<line fill="none" stroke="#A1E5AB" stroke-width="1.3034" stroke-miterlimit="10" x1="420.966" y1="119.542" x2="227.394" y2="153.577"/>
			</g>
			<g>
				
					<line fill="none" stroke="#008817" stroke-width="1.3034" stroke-miterlimit="10" x1="420.966" y1="111.538" x2="227.394" y2="145.573"/>
			</g>
			<g>
				
					<line fill="none" stroke="#7CCE87" stroke-width="1.3034" stroke-miterlimit="10" x1="420.966" y1="103.533" x2="227.394" y2="137.568"/>
			</g>
			<g>
				
					<line fill="none" stroke="#008817" stroke-width="1.3034" stroke-miterlimit="10" x1="420.966" y1="95.529" x2="227.394" y2="129.564"/>
			</g>
			<g>
				
					<line fill="none" stroke="#88D392" stroke-width="1.3034" stroke-miterlimit="10" x1="420.966" y1="87.524" x2="227.394" y2="121.56"/>
			</g>
			<g>
				
					<line fill="none" stroke="#008817" stroke-width="0.9645" stroke-miterlimit="10" x1="155.399" y1="350.875" x2="67.922" y2="363.659"/>
				
					<line fill="none" stroke="#008817" stroke-width="0.9645" stroke-miterlimit="10" x1="155.399" y1="344.376" x2="82.975" y2="354.723"/>
			</g>
			<g>
				
					<line fill="none" stroke="#008817" stroke-width="1.3034" stroke-miterlimit="10" x1="255.631" y1="387.966" x2="415.395" y2="362.173"/>
				
					<line fill="none" stroke="#008817" stroke-width="1.3034" stroke-miterlimit="10" x1="255.631" y1="394.464" x2="387.903" y2="373.109"/>
			</g>
		</g>
		<g>
			<g>
				<text transform="matrix(1 -0.1614 0 1 72.2095 178.7144)" fill="#008817" font-family="'BebasNeueBold'" font-size="46.3088">SHOP NOW</text>
			</g>
		</g>
		<g>
			<g>
				<polygon fill="#44B74F" points="220.266,335.755 201.866,321.999 197.672,327.498 211.249,337.647 199.445,353.123 
					204.269,356.729 				"/>
			</g>
			<g>
				<polygon fill="#5CAA67" points="201.76,339.639 183.36,325.884 179.167,331.382 192.743,341.531 180.939,357.007 
					185.763,360.613 				"/>
			</g>
			<g>
				<polygon fill="#53C162" points="183.254,343.522 164.854,329.768 160.661,335.266 174.237,345.415 162.433,360.892 
					167.256,364.497 				"/>
			</g>
		</g>
		<g>
			<path fill="none" stroke="#008817" stroke-width="1.5885" stroke-miterlimit="10" d="M414.222,204.139
				c-5.068,6.147-13.636,7.506-19.135,3.034c-5.499-4.471-5.848-13.079-0.778-19.226c5.068-6.147,13.636-7.505,19.135-3.034
				S419.291,197.992,414.222,204.139z"/>
			
				<line fill="none" stroke="#008817" stroke-width="1.5885" stroke-miterlimit="10" x1="374.291" y1="201.379" x2="447.363" y2="189.791"/>
		</g>
		<g>
			
				<line fill="none" stroke="#5ABF68" stroke-width="3" stroke-linecap="round" stroke-linejoin="round" stroke-miterlimit="10" x1="92.814" y1="316.433" x2="92.814" y2="332.433"/>
			
				<line fill="none" stroke="#5ABF68" stroke-width="3" stroke-linecap="round" stroke-linejoin="round" stroke-miterlimit="10" x1="84.814" y1="324.433" x2="100.814" y2="324.433"/>
		</g>
		<g display="none">
			
				<line display="inline" fill="none" stroke="#1DD4DD" stroke-width="1.5" stroke-linecap="round" stroke-linejoin="round" stroke-miterlimit="10" x1="57.436" y1="165.922" x2="57.436" y2="173.922"/>
			
				<line display="inline" fill="none" stroke="#1DD4DD" stroke-width="1.5" stroke-linecap="round" stroke-linejoin="round" stroke-miterlimit="10" x1="53.436" y1="169.922" x2="61.436" y2="169.922"/>
		</g>
		<g display="none">
			
				<line fill="none" stroke="#1DD4DD" stroke-width="1.5" stroke-linecap="round" stroke-linejoin="round" stroke-miterlimit="10" x1="390.724" y1="271.488" x2="390.724" y2="279.488"/>
			
				<line fill="none" stroke="#1DD4DD" stroke-width="1.5" stroke-linecap="round" stroke-linejoin="round" stroke-miterlimit="10" x1="386.724" y1="275.488" x2="394.724" y2="275.488"/>
		</g>
		<circle fill="none" stroke="#008817" stroke-width="1.6751" stroke-miterlimit="10" cx="136.392" cy="379.02" r="7.06"/>
		<circle fill="none" stroke="#008817" stroke-width="1.6751" stroke-miterlimit="10" cx="143.452" cy="306.983" r="7.06"/>
		<circle fill="none" stroke="#008817" stroke-width="1.6751" stroke-miterlimit="10" cx="440.303" cy="137.757" r="7.06"/>
		
			<text transform="matrix(-1.0021 0.0478 0.0161 -0.9999 68.3042 198.563)" fill="#008817" font-family="'BebasNeueBold'" font-size="135.0896">!</text>
		
			<text transform="matrix(0.9717 0.2493 -0.3097 0.9508 421.0078 349.0254)" fill="#008817" font-family="'BebasNeueBold'" font-size="135.0896">!</text>
	</g>
</g>
<g id="Designed_by_Freepik" display="none">
	<g display="inline">
		<g id="XMLID_1_">
			<g id="XMLID_20_">
				<path id="XMLID_28_" fill="#A5B7C6" d="M260.104,465.466c-0.433,0.442-0.804,0.931-1.108,1.452l-0.466-0.24
					c-0.066-0.298-0.349-0.503-0.658-0.467c-0.331,0.039-0.568,0.339-0.529,0.67s0.339,0.568,0.67,0.529
					c0.065-0.008,0.127-0.026,0.184-0.053l0.451,0.234c-0.251,0.554-0.433,1.139-0.539,1.744l0.746,0.131
					c0.23-1.306,0.85-2.506,1.792-3.472L260.104,465.466z"/>
				<path id="XMLID_27_" fill="#A5B7C6" d="M265.592,463.163c-0.171,0-0.341,0.007-0.51,0.018l-0.073-0.626
					c0.188-0.149,0.296-0.39,0.266-0.645c-0.046-0.394-0.402-0.675-0.795-0.629c-0.394,0.047-0.675,0.402-0.629,0.796
					c0.03,0.254,0.189,0.461,0.405,0.563l0.073,0.624c-0.714,0.116-1.403,0.332-2.06,0.646l0.327,0.684
					c0.934-0.447,1.941-0.673,2.995-0.673c0.496,0,0.993,0.053,1.475,0.157l0.161-0.741
					C266.692,463.223,266.143,463.163,265.592,463.163z"/>
				<path id="XMLID_26_" fill="#A5B7C6" d="M272.194,465.711c0.331-0.041,0.566-0.342,0.525-0.673
					c-0.04-0.331-0.342-0.565-0.672-0.525c-0.31,0.038-0.535,0.304-0.53,0.608l-0.416,0.363c-0.418-0.43-0.89-0.813-1.408-1.139
					l-0.403,0.641c1.134,0.715,2.021,1.727,2.563,2.926l0.69-0.313c-0.251-0.555-0.567-1.072-0.942-1.545l0.402-0.352
					C272.064,465.716,272.129,465.719,272.194,465.711z"/>
				<path id="XMLID_25_" fill="#A5B7C6" d="M265.044,473.372c-0.386,0.023-0.774,0.034-1.157,0.034c-0.88,0-1.732-0.061-2.478-0.179
					c-0.391-0.063-0.847-0.155-1.271-0.292c1.046,1.86,3.069,3.125,5.389,3.125c2.855,0,5.262-1.916,5.949-4.504
					c-0.682,0.449-1.506,0.825-2.459,1.123C267.839,473.047,266.464,473.286,265.044,473.372z"/>
				<path id="XMLID_21_" fill="#A5B7C6" d="M265.592,464.68c-3.353,0-6.079,2.666-6.079,5.943c0,0.426,0.046,0.849,0.137,1.262
					c0.674,0.482,2.706,0.89,5.348,0.73c2.879-0.173,5.297-0.957,6.672-2.158c-0.005-0.195-0.021-0.391-0.045-0.582
					C271.244,466.913,268.65,464.68,265.592,464.68z M263.433,471.194c-1.021,0-1.85-0.83-1.85-1.85c0-1.021,0.829-1.85,1.85-1.85
					c1.02,0,1.85,0.829,1.85,1.85C265.282,470.364,264.452,471.194,263.433,471.194z M268.17,470.286c-0.75,0-1.36-0.61-1.36-1.36
					s0.61-1.36,1.36-1.36s1.36,0.61,1.36,1.36S268.92,470.286,268.17,470.286z"/>
			</g>
			<path id="XMLID_18_" fill="#A5B7C6" d="M281.596,466.547c-0.295-0.116-0.806-0.309-1.383-0.237
				c-0.551,0.068-0.844,0.341-0.844,1.007v0.865h2.228v1.718h-2.228v5.454h-1.932v-5.454h-1.34v-1.718h1.34v-0.888
				c0-1.681,0.896-2.783,2.568-2.783c0.643,0,1.157,0.122,1.59,0.309V466.547z"/>
			<path id="XMLID_16_" fill="#A5B7C6" d="M286.298,469.879c-0.177-0.03-0.357-0.047-0.526-0.047c-0.896,0-1.51,0.548-1.51,1.614
				v3.907h-1.932v-7.172h1.873v0.785c0.451-0.674,1.14-0.978,2.021-0.978c0.414,0,0.848,0.128,1.094,0.337L286.298,469.879z"/>
			<path id="XMLID_13_" fill="#A5B7C6" d="M293.965,471.757c0,0.222-0.015,0.488-0.037,0.651h-5.084
				c0.207,1.036,0.933,1.487,1.843,1.487c0.621,0,1.295-0.251,1.813-0.688l1.132,1.243c-0.813,0.747-1.851,1.088-3.057,1.088
				c-2.198,0-3.723-1.495-3.723-3.753c0-2.257,1.48-3.797,3.627-3.797C292.544,467.989,293.958,469.521,293.965,471.757z
				 M288.851,471.091h3.175c-0.177-0.918-0.732-1.437-1.562-1.437C289.554,469.654,289.021,470.202,288.851,471.091z"/>
			<path id="XMLID_10_" fill="#A5B7C6" d="M301.618,471.757c0,0.222-0.015,0.488-0.037,0.651h-5.084
				c0.207,1.036,0.933,1.487,1.843,1.487c0.621,0,1.295-0.251,1.813-0.688l1.132,1.243c-0.814,0.747-1.851,1.088-3.057,1.088
				c-2.198,0-3.723-1.495-3.723-3.753c0-2.257,1.48-3.797,3.626-3.797C300.197,467.989,301.611,469.521,301.618,471.757z
				 M296.504,471.091h3.176c-0.178-0.918-0.733-1.437-1.563-1.437C297.207,469.654,296.674,470.202,296.504,471.091z"/>
			<path id="XMLID_7_" fill="#A5B7C6" d="M309.964,471.765c0,2.153-1.495,3.774-3.471,3.774c-0.963,0-1.644-0.378-2.109-0.933v3.708
				h-1.925v-10.133h1.888v0.792c0.466-0.585,1.154-0.984,2.139-0.984C308.469,467.989,309.964,469.61,309.964,471.765z
				 M304.287,471.765c0,1.132,0.748,1.976,1.843,1.976c1.14,0,1.851-0.881,1.851-1.976c0-1.096-0.711-1.977-1.851-1.977
				C305.035,469.788,304.287,470.632,304.287,471.765z"/>
			<path id="XMLID_4_" fill="#A5B7C6" d="M313.067,465.836c0,0.695-0.54,1.229-1.235,1.229c-0.696,0-1.229-0.533-1.229-1.229
				c0-0.696,0.533-1.244,1.229-1.244C312.527,464.592,313.067,465.14,313.067,465.836z M312.809,475.354h-1.932v-7.172h1.932
				V475.354z"/>
			<path id="XMLID_2_" fill="#A5B7C6" d="M316.032,470.735l2.701-2.554h2.369l-3.479,3.375l3.501,3.797h-2.376l-2.716-2.901v2.901
				h-1.932v-10.657h1.932V470.735z"/>
		</g>
		<g>
			<path fill="#A5B7C6" d="M184.413,475.289v-1.055c-0.527,0.718-1.392,1.23-2.388,1.23c-1.846,0-3.149-1.406-3.149-3.706
				c0-2.256,1.289-3.721,3.149-3.721c0.952,0,1.816,0.469,2.388,1.245v-3.765h1.099v9.771H184.413z M184.413,473.37v-3.208
				c-0.396-0.615-1.245-1.143-2.124-1.143c-1.421,0-2.271,1.172-2.271,2.739s0.85,2.725,2.271,2.725
				C183.167,474.483,184.017,473.985,184.413,473.37z"/>
			<path fill="#A5B7C6" d="M186.932,471.744c0-2.051,1.465-3.706,3.486-3.706c2.139,0,3.398,1.67,3.398,3.794v0.278h-5.728
				c0.088,1.333,1.025,2.446,2.549,2.446c0.806,0,1.626-0.322,2.183-0.894l0.527,0.718c-0.703,0.703-1.655,1.084-2.813,1.084
				C188.44,475.465,186.932,473.956,186.932,471.744z M190.403,468.946c-1.509,0-2.256,1.274-2.314,2.358h4.644
				C192.718,470.25,192.015,468.946,190.403,468.946z"/>
			<path fill="#A5B7C6" d="M194.607,474.352l0.571-0.791c0.469,0.542,1.362,1.011,2.329,1.011c1.084,0,1.67-0.513,1.67-1.216
				c0-1.714-4.38-0.659-4.38-3.281c0-1.099,0.952-2.036,2.637-2.036c1.201,0,2.051,0.454,2.622,1.025l-0.513,0.762
				c-0.424-0.513-1.201-0.894-2.109-0.894c-0.967,0-1.567,0.483-1.567,1.113c0,1.553,4.379,0.527,4.379,3.281
				c0,1.187-0.952,2.139-2.783,2.139C196.306,475.465,195.325,475.113,194.607,474.352z"/>
			<path fill="#A5B7C6" d="M201.477,466.471c0-0.41,0.337-0.747,0.732-0.747c0.41,0,0.747,0.337,0.747,0.747
				s-0.337,0.732-0.747,0.732C201.814,467.203,201.477,466.881,201.477,466.471z M201.667,475.289v-7.075h1.099v7.075H201.667z"/>
			<path fill="#A5B7C6" d="M204.582,477.105l0.557-0.82c0.586,0.703,1.289,0.967,2.3,0.967c1.172,0,2.27-0.571,2.27-2.124v-1.011
				c-0.512,0.718-1.376,1.26-2.373,1.26c-1.845,0-3.149-1.377-3.149-3.662c0-2.271,1.289-3.677,3.149-3.677
				c0.952,0,1.802,0.469,2.373,1.245v-1.069h1.099v6.87c0,2.344-1.641,3.076-3.369,3.076
				C206.237,478.16,205.417,477.926,204.582,477.105z M209.708,473.253v-3.091c-0.381-0.615-1.23-1.143-2.109-1.143
				c-1.421,0-2.271,1.128-2.271,2.695c0,1.553,0.849,2.695,2.271,2.695C208.478,474.41,209.328,473.868,209.708,473.253z"/>
			<path fill="#A5B7C6" d="M217.413,475.289v-4.629c0-1.245-0.629-1.641-1.582-1.641c-0.865,0-1.685,0.527-2.095,1.099v5.171h-1.099
				v-7.075h1.099v1.025c0.498-0.586,1.464-1.201,2.519-1.201c1.479,0,2.256,0.747,2.256,2.285v4.966H217.413z"/>
			<path fill="#A5B7C6" d="M219.933,471.744c0-2.051,1.465-3.706,3.486-3.706c2.138,0,3.398,1.67,3.398,3.794v0.278h-5.728
				c0.088,1.333,1.025,2.446,2.549,2.446c0.806,0,1.626-0.322,2.183-0.894l0.527,0.718c-0.703,0.703-1.655,1.084-2.813,1.084
				C221.441,475.465,219.933,473.956,219.933,471.744z M223.404,468.946c-1.509,0-2.256,1.274-2.314,2.358h4.643
				C225.718,470.25,225.015,468.946,223.404,468.946z"/>
			<path fill="#A5B7C6" d="M233.35,475.289v-1.055c-0.527,0.718-1.392,1.23-2.388,1.23c-1.845,0-3.149-1.406-3.149-3.706
				c0-2.256,1.289-3.721,3.149-3.721c0.952,0,1.817,0.469,2.388,1.245v-3.765h1.098v9.771H233.35z M233.35,473.37v-3.208
				c-0.396-0.615-1.245-1.143-2.124-1.143c-1.421,0-2.271,1.172-2.271,2.739s0.85,2.725,2.271,2.725
				C232.105,474.483,232.954,473.985,233.35,473.37z"/>
			<path fill="#A5B7C6" d="M239.692,475.289v-9.771h1.099v3.765c0.572-0.776,1.421-1.245,2.388-1.245
				c1.846,0,3.149,1.465,3.149,3.721c0,2.3-1.304,3.706-3.149,3.706c-0.996,0-1.86-0.513-2.388-1.23v1.055H239.692z M242.9,474.483
				c1.436,0,2.286-1.157,2.286-2.725s-0.85-2.739-2.286-2.739c-0.864,0-1.729,0.527-2.109,1.143v3.208
				C241.171,473.985,242.036,474.483,242.9,474.483z"/>
			<path fill="#A5B7C6" d="M247.528,477.062c0.161,0.073,0.425,0.117,0.601,0.117c0.483,0,0.805-0.161,1.055-0.747l0.468-1.069
				l-2.959-7.148h1.187l2.358,5.801l2.344-5.801h1.201l-3.545,8.511c-0.425,1.025-1.143,1.421-2.08,1.436
				c-0.234,0-0.601-0.044-0.806-0.103L247.528,477.062z"/>
		</g>
	</g>
</g>
</svg>
