<?xml version="1.0" encoding="utf-8"?>
<!-- Generator: Adobe Illustrator 16.0.0, SVG Export Plug-In . SVG Version: 6.00 Build 0)  -->
<!DOCTYPE svg PUBLIC "-//W3C//DTD SVG 1.1//EN" "http://www.w3.org/Graphics/SVG/1.1/DTD/svg11.dtd">
<svg version="1.1" xmlns="http://www.w3.org/2000/svg" xmlns:xlink="http://www.w3.org/1999/xlink" x="0px" y="0px" width="500px"
	 height="500px" viewBox="0 0 500 500" enable-background="new 0 0 500 500" xml:space="preserve">
<g id="Background_Simple">
	<g>
		<path fill="#C6FF00" d="M165.186,59.918c0,0-75.766,38.605-113.558,98.099C13.836,217.511,16.827,293.971,62.75,350.799
			c45.923,56.827,133.693,49.339,207.177,85.318s154.576,28.577,189.321-47.661s-17.646-104.716-26.652-192.935
			C423.59,107.301,344.067-21.883,165.186,59.918z"/>
		<path opacity="0.7" fill="#FFFFFF" d="M165.186,59.918c0,0-75.766,38.605-113.558,98.099
			C13.836,217.511,16.827,293.971,62.75,350.799c45.923,56.827,133.693,49.339,207.177,85.318s154.576,28.577,189.321-47.661
			s-17.646-104.716-26.652-192.935C423.59,107.301,344.067-21.883,165.186,59.918z"/>
	</g>
</g>
<g id="Plants">
	<g>
		<g>
			<g>
				<path fill="#C6FF00" d="M388.25,405.729c0,0-42.575-74.773-32.75-93.784c9.825-19.01,34.933,15.209,34.933,15.209
					s-21.833-69.705-9.824-100.121c12.008-30.416,32.749,0,33.841,21.545s-4.366,58.298-4.366,58.298s8.733-76.041,29.475-53.229
					c20.741,22.813-26.2,98.854-26.2,98.854s31.658-17.743,30.566,5.069s-38.208,43.09-38.208,43.09"/>
				<path fill="none" stroke="#263238" stroke-miterlimit="10" d="M388.613,391.787c0,0-39.4-36.753-20.205-53.229
					c19.194-16.475,29.297,17.743,29.297,17.743S376.49,251.112,410.838,247.31c34.349-3.802,9.093,91.249,9.093,91.249
					s29.297-40.555,27.276-7.604s-45.461,60.832-45.461,60.832"/>
			</g>
			<line fill="none" stroke="#263238" stroke-miterlimit="10" x1="407.965" y1="385.098" x2="381.336" y2="356.25"/>
			<line fill="none" stroke="#263238" stroke-miterlimit="10" x1="402.417" y1="387.317" x2="409.629" y2="302.993"/>
			<line fill="none" stroke="#263238" stroke-miterlimit="10" x1="401.308" y1="381.215" x2="425.162" y2="349.593"/>
		</g>
		<polygon fill="#263238" points="435.811,375.332 362.162,375.332 369.526,462.2 428.445,462.2 		"/>
	</g>
</g>
<g id="Piggy_Bank">
	<g>
		<g>
			<path fill="#C6FF00" stroke="#263238" stroke-linecap="round" stroke-linejoin="round" stroke-miterlimit="10" d="
				M154.651,274.594c0,0-14.998-7.499-29.621-11.998c-14.624-4.5-31.871-0.375-32.246,4.499c-0.375,4.875,2.25,2.625,5.624,7.874
				c3.375,5.25,1.875,17.623,6.75,28.871c4.874,11.249,19.498,16.873,19.498,16.873L154.651,274.594z"/>
			<path opacity="0.3" d="M144.902,285.468c0,0-22.498-14.248-35.621-19.123c-13.124-4.874-13.874,2.25-13.874,2.25
				s7.134,2.202,7.134,10.621c0,8.42,4.21,25.86,14.434,29.469S144.902,285.468,144.902,285.468z"/>
		</g>
		
			<ellipse transform="matrix(0.9348 -0.3551 0.3551 0.9348 -83.3416 125.8166)" fill="#C6FF00" stroke="#263238" stroke-linecap="round" stroke-linejoin="round" stroke-miterlimit="10" cx="301.098" cy="289.96" rx="11.392" ry="12.23"/>
		<g>
			<defs>
				<path id="XMLID_6_" d="M144.234,420.824l12.617,37.852c0.702,2.104,2.671,3.524,4.889,3.524h19.667
					c2.058,0,3.918-1.225,4.733-3.114l8.799-20.414"/>
			</defs>
			<use xlink:href="#XMLID_6_"  overflow="visible" fill="#C6FF00"/>
			<clipPath id="XMLID_8_">
				<use xlink:href="#XMLID_6_"  overflow="visible"/>
			</clipPath>
			<path opacity="0.3" clip-path="url(#XMLID_8_)" d="M150.557,420.824l10.465,37.852c0.582,2.104,2.215,3.524,4.055,3.524h16.313
				c1.707,0,3.25-1.225,3.925-3.114l7.298-20.414"/>
			
				<use xlink:href="#XMLID_6_"  overflow="visible" fill="none" stroke="#263238" stroke-linecap="round" stroke-linejoin="round" stroke-miterlimit="10"/>
		</g>
		<path fill="#263238" stroke="#263238" stroke-linecap="round" stroke-linejoin="round" stroke-miterlimit="10" d="
			M239.155,420.824l-12.617,37.852c-0.702,2.104-2.671,3.524-4.889,3.524h-19.667c-2.058,0-3.918-1.225-4.733-3.114l-8.799-20.414"
			/>
		<g>
			<defs>
				<path id="XMLID_5_" d="M280.937,420.824l-12.617,37.852c-0.701,2.104-2.671,3.524-4.89,3.524h-19.667
					c-2.058,0-3.918-1.225-4.733-3.114l-8.799-20.414"/>
			</defs>
			<use xlink:href="#XMLID_5_"  overflow="visible" fill="#C6FF00"/>
			<clipPath id="XMLID_9_">
				<use xlink:href="#XMLID_5_"  overflow="visible"/>
			</clipPath>
			<path opacity="0.3" clip-path="url(#XMLID_9_)" d="M272,420.824l-8.626,37.852c-0.479,2.104-1.826,3.524-3.343,3.524h-13.446
				c-1.407,0-2.679-1.225-3.236-3.114l-8.356-19.987"/>
			
				<use xlink:href="#XMLID_5_"  overflow="visible" fill="none" stroke="#263238" stroke-linecap="round" stroke-linejoin="round" stroke-miterlimit="10"/>
		</g>
		<g>
			<defs>
				<ellipse id="XMLID_3_" cx="213.497" cy="347.626" rx="108.174" ry="98.098"/>
			</defs>
			<use xlink:href="#XMLID_3_"  overflow="visible" fill="#C6FF00"/>
			<clipPath id="XMLID_10_">
				<use xlink:href="#XMLID_3_"  overflow="visible"/>
			</clipPath>
			<path opacity="0.3" clip-path="url(#XMLID_10_)" d="M287.957,280.596c6.201,12.364,9.657,26.101,9.657,40.569
				c0,54.178-48.431,98.097-108.173,98.097c-23.394,0-45.053-6.735-62.749-18.183c18.863,25.313,50.788,41.965,87.013,41.965
				c57.969,0,104.962-42.615,104.962-95.184C318.667,321.594,306.93,297.817,287.957,280.596z"/>
			
				<use xlink:href="#XMLID_3_"  overflow="visible" fill="none" stroke="#263238" stroke-linecap="round" stroke-linejoin="round" stroke-miterlimit="10"/>
		</g>
		<g>
			<path fill="none" stroke="#C6FF00" stroke-width="2" stroke-linecap="round" stroke-linejoin="round" stroke-miterlimit="10" d="
				M312.568,356.429c-2.36,19.764-11.465,37.692-25.185,51.855"/>
			<path fill="none" stroke="#C6FF00" stroke-width="2" stroke-linecap="round" stroke-linejoin="round" stroke-miterlimit="10" d="
				M310.779,325.961c1.57,6.512,2.398,13.274,2.398,20.213"/>
		</g>
		<path fill="none" stroke="#263238" stroke-width="4" stroke-linecap="round" stroke-linejoin="round" stroke-miterlimit="10" d="
			M186.675,255.655c8.69-2.041,17.804-3.127,27.197-3.127c5.961,0,11.809,0.438,17.508,1.278"/>
		<g>
			<path fill="#C6FF00" stroke="#263238" stroke-linecap="round" stroke-linejoin="round" stroke-miterlimit="10" d="
				M234.724,324.129c0,0,10.499-7.124,10.874-20.247c0.375-13.124-16.873-32.246-30.746-40.12
				c-13.873-7.874-23.997-6.374-24.372-0.75s-5.249,11.998-7.124,22.872c-1.875,10.874-2.625,26.997,11.999,32.246"/>
			<path opacity="0.3" d="M212.127,319.923c0.729,0.11,1.449,0.214,2.155,0.315c9.216,1.327,12.458-4.69,12.192-13.732
				c-0.375-12.748-17.248-39.745-24.372-43.494c-7.124-3.75-9.374,1.5-9.374,1.5s0.984,0.673-2.511,12.322
				c-1.614,5.379-7.647,24.131-1.675,32.453C193.822,316.642,203.633,318.647,212.127,319.923z"/>
			<g>
				<g>
					<path opacity="0.3" d="M241.977,306.945c-0.044,0-0.089-0.003-0.134-0.009c-0.547-0.073-0.932-0.577-0.858-1.124
						c0.103-0.767,0.166-1.549,0.188-2.324c0.199-6.963-5.51-17.05-14.899-26.322c-0.393-0.389-0.397-1.021-0.009-1.415
						c0.389-0.391,1.021-0.396,1.414-0.009c9.918,9.797,15.71,20.19,15.493,27.803c-0.024,0.846-0.093,1.697-0.205,2.533
						C242.899,306.58,242.47,306.945,241.977,306.945z"/>
				</g>
				<g>
					<path opacity="0.3" d="M236.617,319.057c-0.221,0-0.444-0.073-0.629-0.223c-0.429-0.348-0.495-0.978-0.147-1.407
						c1.688-2.083,3-4.342,3.9-6.714c0.197-0.517,0.774-0.778,1.29-0.58c0.517,0.195,0.776,0.772,0.581,1.289
						c-0.976,2.571-2.394,5.016-4.216,7.265C237.197,318.93,236.908,319.057,236.617,319.057z"/>
				</g>
			</g>
		</g>
		<g>
			
				<ellipse transform="matrix(0.9703 0.242 -0.242 0.9703 91.0319 -22.0849)" opacity="0.3" cx="135.412" cy="359.502" rx="29.246" ry="22.122"/>
			
				<ellipse transform="matrix(0.9703 0.242 -0.242 0.9703 90.461 -21.8059)" fill="#C6FF00" stroke="#263238" stroke-linecap="round" stroke-linejoin="round" stroke-miterlimit="10" cx="133.998" cy="357.345" rx="29.246" ry="22.122"/>
			
				<ellipse transform="matrix(0.9978 -0.067 0.067 0.9978 -23.4323 9.0034)" fill="none" stroke="#263238" stroke-linecap="round" stroke-linejoin="round" stroke-miterlimit="10" cx="122.561" cy="353.971" rx="2.625" ry="4.874"/>
			
				<ellipse transform="matrix(0.9978 -0.067 0.067 0.9978 -23.721 10.3401)" fill="none" stroke="#263238" stroke-linecap="round" stroke-linejoin="round" stroke-miterlimit="10" cx="142.352" cy="358.945" rx="2.625" ry="4.874"/>
		</g>
		<g>
			<path fill="none" stroke="#263238" stroke-width="3" stroke-linecap="round" stroke-linejoin="round" stroke-miterlimit="10" d="
				M177.71,365.719c-0.214,1.905-0.655,3.789-1.336,5.629c-5.747,15.511-26.52,22.225-47.059,15.541"/>
			
				<line fill="none" stroke="#263238" stroke-width="3" stroke-linecap="round" stroke-linejoin="round" stroke-miterlimit="10" x1="174.356" y1="364.249" x2="180.73" y2="364.249"/>
		</g>
		
			<ellipse transform="matrix(0.9722 0.2342 -0.2342 0.9722 79.0845 -21.7363)" fill="#263238" stroke="#263238" stroke-linecap="round" stroke-linejoin="round" stroke-miterlimit="10" cx="131.049" cy="322.067" rx="2.812" ry="5.437"/>
		
			<ellipse transform="matrix(0.9721 0.2344 -0.2344 0.9721 80.6006 -25.9577)" fill="#263238" stroke="#263238" stroke-linecap="round" stroke-linejoin="round" stroke-miterlimit="10" cx="149.5" cy="326.095" rx="2.812" ry="5.437"/>
		<g>
			<defs>
				<path id="XMLID_4_" d="M179.764,432.946l11.007,26.103c0.805,1.909,2.676,3.151,4.749,3.151h19.972
					c2.053,0,3.91-1.219,4.728-3.102l12.04-27.729l-0.515-0.026"/>
			</defs>
			<use xlink:href="#XMLID_4_"  overflow="visible" fill="#C6FF00"/>
			<clipPath id="XMLID_11_">
				<use xlink:href="#XMLID_4_"  overflow="visible"/>
			</clipPath>
			<path opacity="0.3" clip-path="url(#XMLID_11_)" d="M203.022,429.67c-6.342,0-13.726,0.83-19.694-0.551l10.287,29.93
				c0.665,1.909,2.21,3.151,3.922,3.151h16.493c1.695,0,3.229-1.219,3.904-3.102l9.942-30.53l-4.041,0.551
				C211.159,430.497,211.492,429.67,203.022,429.67z"/>
			
				<use xlink:href="#XMLID_4_"  overflow="visible" fill="none" stroke="#263238" stroke-linecap="round" stroke-linejoin="round" stroke-miterlimit="10"/>
		</g>
	</g>
</g>
<g id="Hand">
	<g>
		<g>
			<defs>
				<path id="XMLID_1_" d="M379.036,26.445l-55.308,79.687c0,0-4.729,11.28-10.552,19.648c-5.821,8.369-22.195,16.738-22.195,16.738
					s-1.456,15.646-6.187,21.104c-4.729,5.458-14.918,2.184-14.918,2.184s-4.366,4.73-9.097,6.913s-19.285-5.822-19.285-5.822
					s13.099,14.191,14.918,18.921c1.819,4.73,5.094,8.733-0.728,13.099c-5.822,4.367-12.372-1.819-12.372-1.819
					s2.911,9.46-5.458,11.28c-8.369,1.819-17.465-16.374-21.104-22.56c-3.639-6.186-14.191-29.473-16.01-30.564
					s-4.366-6.914-0.728-12.372s29.473-40.389,32.384-42.936c2.911-2.547,58.583-15.646,58.583-15.646l21.104-58.218"/>
			</defs>
			<use xlink:href="#XMLID_1_"  overflow="visible" fill="#FFFFFF"/>
			<clipPath id="XMLID_12_">
				<use xlink:href="#XMLID_1_"  overflow="visible"/>
			</clipPath>
			<path opacity="0.2" clip-path="url(#XMLID_12_)" d="M318,107c0,0-6,18-12.5,21.5s-43.5,13-58,11S225,132,225,132s-8,10.5-11.5,14
				s-8.5,5-8.5,5s17.4,43.712,29.914,57.24c0.984,0.28,1.969,0.349,2.943,0.137c8.369-1.819,5.458-11.28,5.458-11.28
				s6.549,6.186,12.372,1.819c5.821-4.366,2.547-8.369,0.728-13.099c-1.819-4.73-14.918-18.921-14.918-18.921
				s14.554,8.005,19.285,5.822s9.097-6.914,9.097-6.914s10.188,3.275,14.918-2.183c4.73-5.458,6.187-21.104,6.187-21.104
				s16.374-8.369,22.195-16.738c5.822-8.369,10.552-19.648,10.552-19.648l22.789-32.834L318,107z"/>
			
				<use xlink:href="#XMLID_1_"  overflow="visible" fill="none" stroke="#263238" stroke-linecap="round" stroke-linejoin="round" stroke-miterlimit="10"/>
		</g>
		<g>
			<polygon fill="#FFFFFF" stroke="#263238" stroke-linecap="round" stroke-linejoin="round" stroke-miterlimit="10" points="
				189.827,238.941 191.282,244.399 213.842,238.941 234.946,183.634 221.119,178.904 			"/>
			<polygon fill="#FFFFFF" stroke="#263238" stroke-linecap="round" stroke-linejoin="round" stroke-miterlimit="10" points="
				196.74,165.441 228.033,177.084 212.75,246.219 176,234.939 			"/>
			<polygon fill="#C6FF00" stroke="#263238" stroke-linecap="round" stroke-linejoin="round" stroke-miterlimit="10" points="
				177.233,230.807 209.839,240.397 224.03,178.904 195.463,169.722 			"/>
			<path fill="#FFFFFF" stroke="#263238" stroke-linecap="round" stroke-linejoin="round" stroke-miterlimit="10" d="
				M195.333,184.932c-1.44-0.395-2.908-0.435-4.351-0.197l-8.519,28.547c1.24,1.191,2.721,2.07,4.404,2.531
				c6.687,1.833,14.002-3.594,16.339-12.122C205.544,195.163,202.019,186.765,195.333,184.932z"/>
			<path fill="#263238" d="M194.12,189.662c-0.104-0.054-0.141-0.152-0.121-0.236l0.382-1.475c0.074-0.308-0.054-0.516-0.361-0.589
				l-1.594-0.381c-0.308-0.073-0.509,0.026-0.589,0.362l-0.305,1.523c-0.02,0.084-0.096,0.155-0.214,0.156
				c-0.578-0.051-1.112-0.023-1.625,0.039l-2.915,9.767c2.271,2.364,5.813,3.54,5.34,5.521c-0.268,1.118-1.283,2.028-3.073,1.6
				c-1.901-0.455-2.53-1.905-2.189-3.332l0.094-0.391c0.053-0.224-0.082-0.403-0.389-0.477l-0.612-0.146l-1.726,5.783
				c0.626,0.579,1.412,1.076,2.389,1.44c0.105,0.055,0.141,0.152,0.121,0.235l-0.363,1.273c-0.08,0.336,0.054,0.516,0.361,0.589
				l1.65,0.394c0.308,0.074,0.509-0.026,0.589-0.362l0.273-1.264c0.02-0.084,0.096-0.155,0.214-0.156
				c3.519,0.369,5.913-1.364,6.648-4.441c0.588-2.46-0.242-4.551-2.814-6.525c-2.354-1.775-4.832-2.663-4.397-4.48
				c0.301-1.258,1.445-1.842,3.011-1.467c1.958,0.468,2.476,2.01,2.121,3.492l-0.066,0.28c-0.041,0.167,0.101,0.319,0.408,0.393
				l2.936,0.702c0.308,0.073,0.516-0.054,0.589-0.362l0.221-0.923C198.802,193.323,197.389,190.828,194.12,189.662z"/>
		</g>
		<g>
			<defs>
				<path id="XMLID_2_" d="M222.575,129.055c0,0,4.366,6.549,5.094,12.372c0.728,5.822-1.092,10.916-3.275,14.19
					s-4.367,6.186-6.186,11.28s-2.183,12.372-4.73,16.01s-4.002,7.277-0.364,10.552s13.099,2.911,18.193-6.549
					c5.094-9.46,8.369-19.649,11.644-23.288c3.274-3.639,13.826-12.007,13.826-12.007s28.746-4.002,34.204-9.097
					s10.188-18.921,10.188-18.921"/>
			</defs>
			<use xlink:href="#XMLID_2_"  overflow="visible" fill="#FFFFFF"/>
			<clipPath id="XMLID_13_">
				<use xlink:href="#XMLID_2_"  overflow="visible"/>
			</clipPath>
			<path opacity="0.2" clip-path="url(#XMLID_13_)" d="M299,128.5c0,0-15.5,10-27.5,13s-19.5,3-24,9s-9,25-15,28.5s-7-9-15.5-6.5
				c-0.094,0.028-0.187,0.067-0.28,0.099c-0.827,3.905-1.558,7.901-3.242,10.308c-2.547,3.639-4.002,7.277-0.364,10.552
				s13.099,2.911,18.193-6.549c5.094-9.46,8.369-19.649,11.644-23.288c3.274-3.639,13.826-12.007,13.826-12.007
				s28.746-4.002,34.204-9.097c3.297-3.077,6.326-9.338,8.21-13.816L299,128.5z"/>
			
				<use xlink:href="#XMLID_2_"  overflow="visible" fill="none" stroke="#263238" stroke-linecap="round" stroke-linejoin="round" stroke-miterlimit="10"/>
		</g>
		<path fill="none" stroke="#263238" stroke-linecap="round" stroke-linejoin="round" stroke-miterlimit="10" d="M211.295,147.248
			c0,0,9.46,5.094,16.374-0.728"/>
		
			<line fill="none" stroke="#263238" stroke-linecap="round" stroke-linejoin="round" stroke-miterlimit="10" x1="243.315" y1="197.097" x2="234.946" y2="181.087"/>
		<path fill="none" stroke="#263238" stroke-linecap="round" stroke-linejoin="round" stroke-miterlimit="10" d="M269.877,165.805
			c0,0,6.55-5.458,6.186-17.466"/>
	</g>
</g>
<g id="Floor">
	<g>
		
			<line fill="none" stroke="#263238" stroke-linecap="round" stroke-linejoin="round" stroke-miterlimit="10" x1="71" y1="462.2" x2="467" y2="462.2"/>
		
			<line fill="none" stroke="#263238" stroke-linecap="round" stroke-linejoin="round" stroke-miterlimit="10" x1="36" y1="462.2" x2="54" y2="462.2"/>
	</g>
</g>
</svg>
